<svg width="30" height="30" viewBox="0 0 30 30" fill="none" xmlns="http://www.w3.org/2000/svg">
<g clip-path="url(#clip0_515_1229)">
<path d="M0 3.75C0 3.75 0 3.75 0 3.75V9.75C0 11.9591 1.79086 13.75 4 13.75H9.75C11.9591 13.75 13.75 11.9591 13.75 9.75V4C13.75 1.79086 11.9591 0 9.75 0H3.75C2.75544 0 1.80161 0.395088 1.09835 1.09835C0.395088 1.80161 0 2.75544 0 3.75C0 3.75 0 3.75 0 3.75Z" fill="#FF9E68"/>
<path d="M26.25 0C26.25 0 26.25 0 26.25 0H20.25C18.0409 0 16.25 1.79086 16.25 4V9.75C16.25 11.9591 18.0409 13.75 20.25 13.75H26C28.2091 13.75 30 11.9591 30 9.75V3.75C30 2.75544 29.6049 1.80161 28.9016 1.09835C28.1984 0.395088 27.2445 0 26.25 0C26.25 0 26.25 0 26.25 0Z" fill="#FF9E68"/>
<path d="M0 26.25C0 27.2445 0.395088 28.1984 1.09835 28.9016C1.80161 29.6049 2.75544 30 3.75 30H9.75C11.9591 30 13.75 28.2091 13.75 26V20.25C13.75 18.0409 11.9591 16.25 9.75 16.25H4C1.79086 16.25 0 18.0409 0 20.25V26.25Z" fill="#FF9E68"/>
<path d="M16.25 26C16.25 28.2091 18.0409 30 20.25 30H26.25C27.2445 30 28.1984 29.6049 28.9016 28.9016C29.6049 28.1984 30 27.2445 30 26.25V20.25C30 18.0409 28.2091 16.25 26 16.25H20.25C18.0409 16.25 16.25 18.0409 16.25 20.25V26Z" fill="#FF9E68"/>
</g>
<defs>
<clipPath id="clip0_515_1229">
<rect width="30" height="30" fill="white"/>
</clipPath>
</defs>
</svg>
