<svg width="32" height="32" viewBox="0 0 32 32" fill="none" xmlns="http://www.w3.org/2000/svg">
<path fill-rule="evenodd" clip-rule="evenodd" d="M29.8473 11.9316L16.9504 2.01359C16.6806 1.80563 16.3458 1.69238 16.0008 1.69238C15.6557 1.69238 15.3209 1.80563 15.0511 2.01359L2.15273 11.9316C1.79325 12.2081 1.5029 12.5595 1.30332 12.9596C1.10374 13.3597 1.00006 13.7982 1 14.2424V28.1486C1 29.0885 1.38606 29.9899 2.07325 30.6544C2.76044 31.319 3.69247 31.6924 4.66431 31.6924H12.9472V24.6758C12.9472 24.2842 13.108 23.9086 13.3944 23.6317C13.6807 23.3548 14.069 23.1992 14.474 23.1992H17.5276C17.9325 23.1992 18.3208 23.3548 18.6072 23.6317C18.8935 23.9086 19.0544 24.2842 19.0544 24.6758V31.6924H27.3357C28.3075 31.6924 29.2396 31.319 29.9267 30.6544C30.6139 29.9899 31 29.0885 31 28.1486V14.2439C30.9999 13.7997 30.8963 13.3612 30.6967 12.9611C30.4971 12.561 30.2068 12.2096 29.8473 11.9331" fill="#8F8F8F"/>
</svg>
