<svg width="32" height="32" viewBox="0 0 32 32" fill="none" xmlns="http://www.w3.org/2000/svg">
<path fill-rule="evenodd" clip-rule="evenodd" d="M16 21.3335C15.3003 21.3335 14.6074 21.2041 13.9609 20.9529C13.3145 20.7016 12.7271 20.3333 12.2323 19.8691C11.7375 19.4048 11.3451 18.8536 11.0773 18.247C10.8095 17.6404 10.6717 16.9903 10.6717 16.3337C10.6717 15.6771 10.8095 15.027 11.0773 14.4204C11.3451 13.8138 11.7375 13.2626 12.2323 12.7983C12.7271 12.334 13.3145 11.9658 13.9609 11.7145C14.6074 11.4632 15.3003 11.3339 16 11.3339C17.4132 11.3339 18.7684 11.8607 19.7677 12.7983C20.7669 13.736 21.3283 15.0077 21.3283 16.3337C21.3283 17.6597 20.7669 18.9314 19.7677 19.8691C18.7684 20.8067 17.4132 21.3335 16 21.3335ZM29.1271 18.9948C28.3962 18.2845 27.9881 17.3354 27.9892 16.348V16.3194C27.9881 15.332 28.3962 14.3828 29.1271 13.6726L30.4917 12.3498C31.0527 11.8044 31.1602 10.9753 30.7576 10.3194L28.9295 7.34937C28.7333 7.02966 28.4313 6.77869 28.0694 6.63449C27.7075 6.49029 27.3054 6.46073 26.924 6.55028L25.013 6.99755C23.9868 7.23865 22.9008 7.09328 21.9873 6.59255L21.9612 6.57892C21.0615 6.08831 20.3995 5.28967 20.1141 4.35074L19.5677 2.56574C19.46 2.21076 19.2319 1.89839 18.918 1.67596C18.6041 1.45352 18.2215 1.33312 17.8282 1.33301H14.1718C13.3653 1.33301 12.6532 1.83619 12.4323 2.56574L11.8437 4.4871C11.5853 5.34581 10.9779 6.07496 10.1522 6.51755C10.0669 6.5623 9.98258 6.60868 9.8993 6.65664C9.07082 7.1196 8.08069 7.25589 7.14541 7.03574L5.07455 6.55028C4.69329 6.46084 4.29137 6.4903 3.92954 6.63423C3.56772 6.77815 3.26568 7.02871 3.06908 7.34801L1.24236 10.3194C1.04588 10.6391 0.965561 11.01 1.01354 11.3763C1.06151 11.7426 1.23517 12.0843 1.5083 12.3498L2.87289 13.6726C3.60387 14.383 4.01223 15.3321 4.01223 16.318V16.348C4.01223 17.3353 3.60387 18.2844 2.87289 18.9948L2.14191 19.7039C1.68607 20.1462 1.39611 20.7157 1.31588 21.3264C1.23564 21.937 1.36951 22.5556 1.69722 23.0885L3.07053 25.318C3.47453 25.9753 4.29125 26.3012 5.076 26.1171L7.14687 25.6316C8.08215 25.4115 9.07228 25.5478 9.90076 26.0107C9.98359 26.0585 10.0679 26.1048 10.1536 26.1498C10.9805 26.5889 11.5836 27.3212 11.8452 28.1803L12.4323 30.1016C12.6532 30.8312 13.3653 31.333 14.1718 31.333H17.8282C18.6347 31.333 19.3468 30.8312 19.5677 30.1016L20.1548 28.1803C20.4164 27.3212 21.0195 26.5889 21.8464 26.1498C21.9321 26.1048 22.0164 26.0585 22.0992 26.0107C22.9277 25.5478 23.9179 25.4115 24.8531 25.6316L26.924 26.1171C27.3053 26.2065 27.7072 26.1771 28.069 26.0332C28.4308 25.8892 28.7329 25.6387 28.9295 25.3194L30.7576 22.348C30.9541 22.0283 31.0344 21.6573 30.9865 21.2911C30.9385 20.9248 30.7648 20.5831 30.4917 20.3176L29.1257 18.9948H29.1271Z" fill="#8F8F8F"/>
</svg>
