<svg width="1920" height="1080" viewBox="0 0 1920 1080" fill="none" xmlns="http://www.w3.org/2000/svg">
<g clip-path="url(#clip0_1582_2058)">
<rect width="1920" height="1080" fill="#FF9052"/>
<path d="M203.372 379.16C203.372 384.227 201.532 388.28 197.852 391.32C194.226 394.307 189.052 395.8 182.332 395.8C176.306 395.8 170.919 394.653 166.172 392.36V381.08C168.892 382.253 171.692 383.347 174.572 384.36C177.506 385.32 180.412 385.8 183.292 385.8C186.279 385.8 188.386 385.24 189.612 384.12C190.892 382.947 191.532 381.48 191.532 379.72C191.532 378.28 191.026 377.053 190.012 376.04C189.052 375.027 187.746 374.093 186.092 373.24C184.439 372.333 182.546 371.373 180.412 370.36C179.079 369.72 177.639 368.973 176.092 368.12C174.546 367.213 173.052 366.12 171.612 364.84C170.226 363.507 169.079 361.907 168.172 360.04C167.266 358.173 166.812 355.933 166.812 353.32C166.812 348.2 168.546 344.227 172.012 341.4C175.479 338.52 180.199 337.08 186.172 337.08C189.159 337.08 191.986 337.427 194.652 338.12C197.319 338.813 200.146 339.8 203.132 341.08L199.212 350.52C196.599 349.453 194.252 348.627 192.172 348.04C190.092 347.453 187.959 347.16 185.772 347.16C183.479 347.16 181.719 347.693 180.492 348.76C179.266 349.827 178.652 351.213 178.652 352.92C178.652 354.947 179.559 356.547 181.372 357.72C183.186 358.893 185.879 360.333 189.452 362.04C192.386 363.427 194.866 364.867 196.892 366.36C198.972 367.853 200.572 369.613 201.692 371.64C202.812 373.667 203.372 376.173 203.372 379.16ZM239.755 395H227.675V347.96H212.155V337.88H255.275V347.96H239.755V395ZM314.563 337.88V374.84C314.563 378.787 313.683 382.36 311.923 385.56C310.216 388.707 307.603 391.213 304.083 393.08C300.563 394.893 296.163 395.8 290.883 395.8C283.309 395.8 277.549 393.88 273.603 390.04C269.656 386.147 267.683 381.027 267.683 374.68V337.88H279.763V372.84C279.763 377.587 280.723 380.92 282.643 382.84C284.563 384.707 287.416 385.64 291.203 385.64C295.149 385.64 298.003 384.6 299.763 382.52C301.576 380.44 302.483 377.187 302.483 372.76V337.88H314.563ZM350.792 337.88C358.152 337.88 363.512 339.48 366.872 342.68C370.285 345.827 371.992 350.173 371.992 355.72C371.992 359.08 371.298 362.2 369.912 365.08C368.525 367.96 366.205 370.28 362.952 372.04C359.752 373.8 355.378 374.68 349.832 374.68H344.632V395H332.552V337.88H350.792ZM350.152 347.8H344.632V364.76H348.632C352.045 364.76 354.738 364.093 356.712 362.76C358.738 361.373 359.752 359.16 359.752 356.12C359.752 350.573 356.552 347.8 350.152 347.8ZM404.546 361.4L416.466 337.88H429.506L410.546 372.76V395H398.546V373.16L379.586 337.88H392.706L404.546 361.4Z" fill="white"/>
<path d="M167.085 479.865V484.59H198.135V479.865H167.085ZM167.4 491.655V496.335H197.82V491.655H167.4ZM172.395 481.71V494.085H178.38V481.71H172.395ZM186.84 481.71V494.085H192.825V481.71H186.84ZM163.8 500.115V504.84H201.465V500.115H163.8ZM179.595 494.805V502.905H185.58V494.805H179.595ZM168.345 514.515V519.285H197.235V514.515H168.345ZM168.345 507.495V516.225H174.33V507.495H168.345ZM243.616 478.335V520.005H249.556V478.335H243.616ZM248.206 494.58V499.575H255.586V494.58H248.206ZM216.706 484.5V489.27H240.961V484.5H216.706ZM228.901 491.61C222.826 491.61 218.326 495.75 218.326 501.555C218.326 507.36 222.826 511.5 228.901 511.5C234.976 511.5 239.476 507.36 239.476 501.555C239.476 495.75 234.976 491.61 228.901 491.61ZM228.901 496.47C231.736 496.47 233.761 498.36 233.761 501.555C233.761 504.75 231.736 506.64 228.901 506.64C226.066 506.64 224.041 504.75 224.041 501.555C224.041 498.36 226.066 496.47 228.901 496.47ZM225.886 479.01V486.3H231.871V479.01H225.886ZM289.377 494.085V498.99H296.712V494.085H289.377ZM284.922 478.29V519.96H290.952V478.29H284.922ZM259.542 482.295V508.17H265.527V482.295H259.542ZM259.542 504.84V509.79H263.142C269.262 509.79 275.967 509.43 282.852 507.99L282.222 503.085C275.517 504.435 269.082 504.84 263.142 504.84H259.542ZM299.724 510.555V515.415H337.434V510.555H299.724ZM315.519 502.68V512.535H321.504V502.68H315.519ZM303.954 481.035V485.76H327.264V490.215H304.044V501.915H309.984V494.895H333.204V481.035H303.954ZM304.044 499.53V504.345H334.149V499.53H304.044ZM348.5 510.78L348.815 511.275C348.395 512.865 347.825 514.605 347.105 516.495C346.415 518.385 345.695 520.155 344.945 521.805H340.85C341.27 520.035 341.675 518.145 342.065 516.135C342.485 514.125 342.815 512.34 343.055 510.78H348.5ZM184.725 550.315V555.085H195.255V550.315H184.725ZM192.69 539.38V569.8H198.675V539.38H192.69ZM171.18 575.515V580.285H199.62V575.515H171.18ZM171.18 566.785V577.945H177.165V566.785H171.18ZM175.32 541.855C169.11 541.855 164.295 546.31 164.295 552.52C164.295 558.685 169.11 563.185 175.32 563.185C181.485 563.185 186.3 558.685 186.3 552.52C186.3 546.31 181.485 541.855 175.32 541.855ZM175.32 547.075C178.29 547.075 180.585 549.055 180.585 552.52C180.585 555.94 178.29 557.965 175.32 557.965C172.305 557.965 170.01 555.94 170.01 552.52C170.01 549.055 172.305 547.075 175.32 547.075ZM235.301 539.335V581.005H240.971V539.335H235.301ZM221.576 553.555V558.415H228.461V553.555H221.576ZM226.886 540.01V579.115H232.466V540.01H226.886ZM212.576 546.13V550.405C212.576 557.515 210.461 564.985 204.341 568.81L207.896 573.22C214.511 569.08 217.076 559.765 217.076 550.405V546.13H212.576ZM213.926 546.13V550.405C213.926 559.585 216.356 568.315 222.971 572.23L226.481 567.865C220.451 564.355 218.381 557.335 218.381 550.405V546.13H213.926ZM205.916 543.52V548.335H224.501V543.52H205.916ZM269.712 542.215C263.457 542.215 258.957 547.975 258.957 557.065C258.957 566.245 263.457 572.005 269.712 572.005C275.922 572.005 280.467 566.245 280.467 557.065C280.467 547.975 275.922 542.215 269.712 542.215ZM269.712 547.66C272.772 547.66 274.752 550.945 274.752 557.065C274.752 563.275 272.772 566.605 269.712 566.605C266.697 566.605 264.672 563.275 264.672 557.065C264.672 550.945 266.697 547.66 269.712 547.66ZM287.307 539.29V581.095H293.247V539.29H287.307ZM278.712 554.32V559.135H289.827V554.32H278.712ZM328.254 539.335V581.14H334.284V539.335H328.254ZM302.199 566.2V571.195H305.799C314.754 571.195 320.019 571.015 325.644 569.89L325.104 564.985C319.524 566.02 314.574 566.2 305.799 566.2H302.199ZM302.199 543.025V568.09H308.139V547.84H322.314V543.025H302.199ZM362.09 552.34V557.155H373.07V552.34H362.09ZM350.75 542.53V548.56C350.75 556.48 347.6 564.535 340.49 567.82L344.225 572.635C352.055 568.72 355.61 559.045 355.61 548.56V542.53H350.75ZM352.01 542.53V548.56C352.01 558.955 355.295 568.135 363.125 571.915L366.68 567.145C359.795 564.085 356.78 556.48 356.78 548.56V542.53H352.01ZM370.1 539.29V581.095H376.04V539.29H370.1ZM382.517 559.9V564.67H420.227V559.9H382.517ZM387.062 551.755V556.57H416.087V551.755H387.062ZM387.062 540.865V553.51H393.047V545.59H415.727V540.865H387.062ZM386.972 575.47V580.285H416.357V575.47H386.972ZM386.972 567.82V576.685H392.912V567.82H386.972ZM431.293 571.78L431.608 572.275C431.188 573.865 430.618 575.605 429.898 577.495C429.208 579.385 428.488 581.155 427.738 582.805H423.643C424.063 581.035 424.468 579.145 424.858 577.135C425.278 575.125 425.608 573.34 425.848 571.78H431.293ZM190.44 600.29V642.095H196.47V600.29H190.44ZM195.12 615.725V620.63H202.5V615.725H195.12ZM165.42 627.11V632.06H168.93C176.175 632.06 181.89 631.88 188.19 630.755L187.605 625.805C181.485 626.885 175.95 627.11 168.93 627.11H165.42ZM165.42 604.16V629.495H171.36V608.975H184.86V604.16H165.42ZM243.706 600.335V625.445H249.691V600.335H243.706ZM248.026 610.595V615.5H255.226V610.595H248.026ZM222.601 627.245V641.555H249.691V627.245H222.601ZM243.841 631.97V636.83H228.496V631.97H243.841ZM216.886 604.07V608.795H241.411V604.07H216.886ZM229.171 610.01C223.096 610.01 218.911 613.07 218.911 617.525C218.911 622.025 223.096 624.995 229.171 624.995C235.201 624.995 239.386 622.025 239.386 617.525C239.386 613.07 235.201 610.01 229.171 610.01ZM229.171 614.465C231.826 614.465 233.671 615.5 233.671 617.525C233.671 619.55 231.826 620.63 229.171 620.63C226.471 620.63 224.671 619.55 224.671 617.525C224.671 615.5 226.471 614.465 229.171 614.465ZM226.156 600.065V606.635H232.141V600.065H226.156ZM263.367 605.06V605.555C263.367 615.86 262.512 623.105 257.652 630.755L262.242 633.23C267.417 624.95 268.407 615.635 268.407 605.06H263.367ZM259.002 605.06V609.875H266.562V605.06H259.002ZM272.682 605.06V605.6C272.682 615.995 272.232 624.455 266.922 632.735L271.512 635.255C277.092 626.345 277.722 615.95 277.722 605.06H272.682ZM269.667 605.06V609.875H276.057V605.06H269.667ZM288.747 600.335V642.005H294.462V600.335H288.747ZM275.697 615.95V620.765H281.592V615.95H275.697ZM280.692 601.235V640.16H286.272V601.235H280.692ZM329.998 626.255C320.998 626.255 315.238 629.225 315.238 634.175C315.238 639.035 320.998 642.005 329.998 642.005C338.998 642.005 344.758 639.035 344.758 634.175C344.758 629.225 338.998 626.255 329.998 626.255ZM329.998 630.755C335.623 630.755 338.818 631.925 338.818 634.175C338.818 636.38 335.623 637.505 329.998 637.505C324.373 637.505 321.178 636.38 321.178 634.175C321.178 631.925 324.373 630.755 329.998 630.755ZM315.688 602.18V606.905H342.058V602.18H315.688ZM311.458 618.92V623.69H348.988V618.92H311.458ZM325.363 611.675V620.135H331.303V611.675H325.363ZM338.593 602.18V605.6C338.593 608.84 338.593 611.855 337.468 616.13L343.408 616.76C344.533 612.44 344.533 608.885 344.533 605.6V602.18H338.593ZM352.765 624.32V629.045H390.52V624.32H352.765ZM368.515 626.705V642.005H374.455V626.705H368.515ZM357.085 601.91V620.36H386.065V601.91H380.125V606.635H363.025V601.91H357.085ZM363.025 611.315H380.125V615.59H363.025V611.315ZM394.116 606.59V611.36H414.051V606.59H394.116ZM404.151 613.205C398.886 613.205 395.016 617.3 395.016 623.15C395.016 628.955 398.886 633.05 404.151 633.05C409.461 633.05 413.286 628.955 413.286 623.15C413.286 617.3 409.461 613.205 404.151 613.205ZM404.151 618.2C406.401 618.2 408.021 620 408.021 623.15C408.021 626.3 406.401 628.055 404.151 628.055C401.901 628.055 400.326 626.3 400.326 623.15C400.326 620 401.901 618.2 404.151 618.2ZM424.266 600.335V642.005H429.981V600.335H424.266ZM419.271 617.255V622.07H426.156V617.255H419.271ZM415.536 601.1V640.25H421.116V601.1H415.536ZM401.226 601.46V609.605H407.121V601.46H401.226ZM443.883 621.485V633.185H449.823V621.485H443.883ZM459.003 621.485V633.185H464.988V621.485H459.003ZM435.603 632.33V637.19H473.313V632.33H435.603ZM454.413 602.36C445.413 602.36 438.843 606.77 438.843 613.565C438.843 620.36 445.413 624.725 454.413 624.725C463.368 624.725 469.983 620.36 469.983 613.565C469.983 606.77 463.368 602.36 454.413 602.36ZM454.413 607.04C460.218 607.04 464.088 609.425 464.088 613.565C464.088 617.66 460.218 620.09 454.413 620.09C448.608 620.09 444.738 617.66 444.738 613.565C444.738 609.425 448.608 607.04 454.413 607.04Z" fill="white"/>
<path d="M164.01 709.66V721.9H177.24V709.66H164.01ZM173.31 712.81V718.75H167.94V712.81H173.31ZM181.08 707.89V723.43H185.07V707.89H181.08ZM183.96 713.92V717.16H188.76V713.92H183.96ZM174 726.22V726.88C174 729.28 171.42 731.86 165.63 732.55L167.07 735.58C173.79 734.71 177.36 731.2 177.36 726.88V726.22H174ZM174.87 726.22V726.88C174.87 731.08 178.47 734.77 185.19 735.64L186.6 732.61C180.9 731.86 178.26 729.19 178.26 726.88V726.22H174.87ZM166.8 724.75V727.87H185.43V724.75H166.8ZM201.358 723.76V727.87H205.318V723.76H201.358ZM190.798 721.21V724.36H215.908V721.21H190.798ZM201.358 707.89V712H205.318V707.89H201.358ZM201.118 712.18V712.72C201.118 714.79 198.568 716.89 191.848 717.25L192.988 720.22C200.608 719.71 204.628 716.86 204.628 712.72V712.18H201.118ZM202.048 712.18V712.72C202.048 716.86 206.068 719.71 213.688 720.22L214.828 717.25C208.108 716.89 205.558 714.79 205.558 712.72V712.18H202.048ZM193.198 710.29V713.38H213.508V710.29H193.198ZM193.708 726.49V735.37H212.908V726.49H193.708ZM209.008 729.61V732.22H197.638V729.61H209.008ZM234.085 713.98V717.16H239.185V713.98H234.085ZM234.025 719.53V722.71H239.095V719.53H234.025ZM218.485 710.38V713.53H233.725V710.38H218.485ZM226.285 714.49C222.475 714.49 219.775 716.59 219.775 719.68C219.775 722.77 222.475 724.87 226.285 724.87C230.095 724.87 232.795 722.77 232.795 719.68C232.795 716.59 230.095 714.49 226.285 714.49ZM226.285 717.46C227.935 717.46 229.105 718.21 229.105 719.68C229.105 721.15 227.935 721.9 226.285 721.9C224.605 721.9 223.495 721.15 223.495 719.68C223.495 718.21 224.605 717.46 226.285 717.46ZM224.305 707.65V712.57H228.295V707.65H224.305ZM237.655 707.89V725.59H241.645V707.89H237.655ZM232.255 725.92C226.375 725.92 222.745 727.75 222.745 730.81C222.745 733.87 226.375 735.67 232.255 735.67C238.105 735.67 241.765 733.87 241.765 730.81C241.765 727.75 238.105 725.92 232.255 725.92ZM232.255 728.98C235.675 728.98 237.535 729.52 237.535 730.81C237.535 732.07 235.675 732.67 232.255 732.67C228.835 732.67 226.945 732.07 226.945 730.81C226.945 729.52 228.835 728.98 232.255 728.98ZM266.206 725.17C260.206 725.17 256.366 727.15 256.366 730.45C256.366 733.69 260.206 735.67 266.206 735.67C272.206 735.67 276.046 733.69 276.046 730.45C276.046 727.15 272.206 725.17 266.206 725.17ZM266.206 728.17C269.956 728.17 272.086 728.95 272.086 730.45C272.086 731.92 269.956 732.67 266.206 732.67C262.456 732.67 260.326 731.92 260.326 730.45C260.326 728.95 262.456 728.17 266.206 728.17ZM256.666 709.12V712.27H274.246V709.12H256.666ZM253.846 720.28V723.46H278.866V720.28H253.846ZM263.116 715.45V721.09H267.076V715.45H263.116ZM271.936 709.12V711.4C271.936 713.56 271.936 715.57 271.186 718.42L275.146 718.84C275.896 715.96 275.896 713.59 275.896 711.4V709.12H271.936ZM281.384 723.88V727.03H306.554V723.88H281.384ZM291.884 725.47V735.67H295.844V725.47H291.884ZM284.264 708.94V721.24H303.584V708.94H299.624V712.09H288.224V708.94H284.264ZM288.224 715.21H299.624V718.06H288.224V715.21ZM319.354 710.44V713.59H336.964V710.44H319.354ZM316.804 728.8V732.04H341.914V728.8H316.804ZM334.864 710.44V713.74C334.864 717.49 334.864 721.45 333.844 726.79L337.834 727.12C338.824 721.42 338.824 717.64 338.824 713.74V710.44H334.864ZM344.372 721.33V724.45H369.542V721.33H344.372ZM354.932 722.41V726.79H358.892V722.41H354.932ZM347.492 725.65V735.37H366.542V725.65H362.612V727.84H351.422V725.65H347.492ZM351.422 730.72H362.612V732.37H351.422V730.72ZM347.462 708.31V711.28H362.552V712.69H347.492V718.69H351.452V715.48H366.482V708.31H347.462ZM347.492 717.01V719.95H367.022V717.01H347.492ZM390.323 725.68V735.7H394.283V725.68H390.323ZM379.793 724.51V727.75H404.903V724.51H379.793ZM390.293 712.87V713.53C390.293 716.11 387.323 719.26 381.053 719.98L382.433 723.1C389.783 722.23 393.803 718.18 393.803 713.53V712.87H390.293ZM390.803 712.87V713.53C390.803 718.06 394.823 722.26 402.143 723.1L403.553 719.98C397.312 719.26 394.313 716.05 394.313 713.53V712.87H390.803ZM382.043 711.07V714.22H402.623V711.07H382.043ZM390.323 707.95V712.15H394.283V707.95H390.323ZM413.6 713.32V714.4C413.6 717.76 411.68 721.12 407.18 722.53L409.1 725.65C414.38 724 416.84 719.47 416.84 714.4V713.32H413.6ZM414.32 713.32V714.4C414.32 719.26 416.87 723.64 422.12 725.2L424.04 722.08C419.54 720.73 417.59 717.52 417.59 714.4V713.32H414.32ZM408.14 711.16V714.28H423.05V711.16H408.14ZM413.6 708.1V712.33H417.59V708.1H413.6ZM422.18 715.96V719.23H428.63V715.96H422.18ZM426.62 707.92V728.47H430.61V707.92H426.62ZM412.28 732.01V735.19H431.24V732.01H412.28ZM412.28 726.76V734.11H416.27V726.76H412.28ZM463.001 707.89V724.99H466.811V707.89H463.001ZM457.691 708.37V724.93H461.441V708.37H457.691ZM453.611 721.45V724.09H459.191V721.45H453.611ZM448.031 719.5V724.81H451.811V719.5H448.031ZM442.931 721.12C446.561 721.12 452.321 721.06 456.851 720.04L456.581 717.4C452.171 718.09 446.171 718.15 442.571 718.15L442.931 721.12ZM447.041 725.89V735.37H466.811V725.89H462.851V727.69H451.001V725.89H447.041ZM451.001 730.66H462.851V732.31H451.001V730.66ZM449.801 708.82C446.171 708.82 443.711 710.44 443.711 712.96C443.711 715.51 446.171 717.16 449.801 717.16C453.401 717.16 455.861 715.51 455.861 712.96C455.861 710.44 453.401 708.82 449.801 708.82ZM449.801 711.55C451.331 711.55 452.321 712 452.321 712.96C452.321 713.98 451.331 714.4 449.801 714.4C448.241 714.4 447.281 713.98 447.281 712.96C447.281 712 448.241 711.55 449.801 711.55ZM486.181 711.28C487.861 711.28 489.231 711.68 490.291 712.48C491.351 713.28 491.881 714.42 491.881 715.9C491.881 717.24 491.471 718.37 490.651 719.29C489.831 720.21 488.811 721.02 487.591 721.72L492.361 726.34C492.801 725.7 493.171 724.99 493.471 724.21C493.791 723.43 494.061 722.63 494.281 721.81H498.181C497.861 722.99 497.431 724.19 496.891 725.41C496.351 726.61 495.661 727.71 494.821 728.71L499.201 733H494.431L492.391 731.02C491.491 731.7 490.501 732.25 489.421 732.67C488.341 733.09 487.091 733.3 485.671 733.3C483.371 733.3 481.561 732.76 480.241 731.68C478.941 730.6 478.291 729.14 478.291 727.3C478.291 725.78 478.661 724.56 479.401 723.64C480.161 722.72 481.191 721.89 482.491 721.15C481.751 720.31 481.181 719.5 480.781 718.72C480.381 717.94 480.181 717.07 480.181 716.11C480.181 714.61 480.731 713.43 481.831 712.57C482.931 711.71 484.381 711.28 486.181 711.28ZM486.121 714.22C485.481 714.22 484.921 714.39 484.441 714.73C483.981 715.05 483.751 715.57 483.751 716.29C483.751 716.87 483.901 717.42 484.201 717.94C484.501 718.46 484.911 719.01 485.431 719.59C486.411 719.05 487.131 718.52 487.591 718C488.071 717.48 488.311 716.88 488.311 716.2C488.311 715.56 488.091 715.07 487.651 714.73C487.211 714.39 486.701 714.22 486.121 714.22ZM484.711 723.43C483.951 723.93 483.351 724.45 482.911 724.99C482.471 725.53 482.251 726.2 482.251 727C482.251 727.94 482.591 728.69 483.271 729.25C483.951 729.81 484.821 730.09 485.881 730.09C486.761 730.09 487.551 729.96 488.251 729.7C488.951 729.44 489.561 729.11 490.081 728.71L484.711 723.43ZM515.849 709.81C511.679 709.81 508.679 713.65 508.679 719.71C508.679 725.83 511.679 729.67 515.849 729.67C519.989 729.67 523.019 725.83 523.019 719.71C523.019 713.65 519.989 709.81 515.849 709.81ZM515.849 713.44C517.889 713.44 519.209 715.63 519.209 719.71C519.209 723.85 517.889 726.07 515.849 726.07C513.839 726.07 512.489 723.85 512.489 719.71C512.489 715.63 513.839 713.44 515.849 713.44ZM527.579 707.86V735.73H531.539V707.86H527.579ZM521.849 717.88V721.09H529.259V717.88H521.849ZM538.017 708.64V711.61H558.717V708.64H538.017ZM538.227 715.15V718.12H558.507V715.15H538.227ZM541.557 709.81V717.07H545.547V709.81H541.557ZM551.187 709.81V717.07H555.177V709.81H551.187ZM535.827 719.56V722.68H560.937V719.56H535.827ZM538.707 724.21V727.06H553.977V728.44H538.737V733.69H542.667V731.11H557.907V724.21H538.707ZM538.737 732.58V735.49H558.627V732.58H538.737ZM582.565 707.86V735.73H586.555V707.86H582.565ZM564.925 726.01V729.25H567.385C572.455 729.25 576.535 729.1 581.035 728.29L580.645 725.08C576.235 725.83 572.305 726.01 567.385 726.01H564.925ZM564.895 710.23V713.41H573.925V717.82H564.925V727.21H568.975V720.97H578.005V710.23H564.895ZM599.512 711.01V711.7C599.512 718.6 597.712 723.49 590.902 727.45L593.122 730.21C601.342 725.41 603.262 718.93 603.262 711.01H599.512ZM592.462 711.01V714.19H600.742V711.01H592.462ZM599.572 717.34L591.052 717.79L591.532 721.15L599.572 720.31V717.34ZM600.982 718.39V721.54H606.682V718.39H600.982ZM611.152 707.89V735.67H614.962V707.89H611.152ZM605.332 708.49V734.44H609.052V708.49H605.332ZM637.67 707.86V735.73H641.69V707.86H637.67ZM626.72 709.81C622.52 709.81 619.43 713.65 619.43 719.71C619.43 725.83 622.52 729.67 626.72 729.67C630.92 729.67 634.01 725.83 634.01 719.71C634.01 713.65 630.92 709.81 626.72 709.81ZM626.72 713.44C628.79 713.44 630.17 715.63 630.17 719.71C630.17 723.85 628.79 726.07 626.72 726.07C624.65 726.07 623.24 723.85 623.24 719.71C623.24 715.63 624.65 713.44 626.72 713.44ZM660.888 711.49V714.7H666.408V711.49H660.888ZM660.888 716.86V720.04H666.408V716.86H660.888ZM652.578 709.48V712.66C652.578 716.71 650.658 720.61 646.068 722.23L648.198 725.35C653.448 723.4 655.788 718.42 655.788 712.66V709.48H652.578ZM653.418 709.48V712.66C653.418 718.18 655.698 723.07 660.618 725.02L662.808 721.93C658.428 720.28 656.628 716.47 656.628 712.66V709.48H653.418ZM665.478 707.92V728.47H669.468V707.92H665.478ZM651.078 732.01V735.19H670.068V732.01H651.078ZM651.078 726.58V734.02H655.098V726.58H651.078Z" fill="white"/>
<path d="M341 886.003C341 888.775 338.709 891.019 335.874 891.019H168.132C165.3 891.019 163 888.775 163 886.003V846.004C163 843.234 165.3 840.981 168.132 840.981H335.873C338.709 840.981 340.999 843.234 340.999 846.004L341 886.003Z" fill="black"/>
<path d="M335.333 841.042C338.42 841.042 340.932 843.491 340.932 846.5V885.5C340.932 888.51 338.42 890.958 335.333 890.958H168.667C165.58 890.958 163.068 888.51 163.068 885.5V846.5C163.068 843.491 165.58 841.042 168.667 841.042H335.333ZM335.333 840H168.667C165.002 840 162 842.927 162 846.5V885.5C162 889.073 165.002 892 168.667 892H335.333C338.998 892 342 889.073 342 885.5V846.5C342 842.927 338.998 840 335.333 840Z" fill="#A6A6A6"/>
<path d="M202.17 865.719C202.132 861.529 205.689 859.491 205.852 859.396C203.837 856.532 200.714 856.141 199.617 856.11C196.994 855.84 194.45 857.64 193.114 857.64C191.752 857.64 189.694 856.136 187.477 856.18C184.624 856.223 181.954 857.833 180.49 860.335C177.469 865.434 179.722 872.929 182.617 877.051C184.065 879.07 185.757 881.324 187.972 881.245C190.138 881.158 190.948 879.898 193.562 879.898C196.153 879.898 196.913 881.245 199.172 881.194C201.497 881.158 202.961 879.166 204.358 877.129C206.032 874.815 206.704 872.536 206.73 872.419C206.676 872.401 202.214 870.741 202.17 865.719Z" fill="white"/>
<path d="M197.904 853.398C199.069 851.977 199.866 850.044 199.645 848.082C197.958 848.155 195.849 849.22 194.634 850.609C193.56 851.834 192.6 853.841 192.848 855.729C194.742 855.866 196.688 854.797 197.904 853.398Z" fill="white"/>
<path d="M233.527 880.956H230.499L228.84 875.874H223.075L221.495 880.956H218.547L224.259 863.655H227.787L233.527 880.956ZM228.34 873.742L226.84 869.224C226.682 868.763 226.384 867.676 225.946 865.965H225.892C225.718 866.701 225.436 867.788 225.05 869.224L223.576 873.742H228.34Z" fill="white"/>
<path d="M248.216 874.565C248.216 876.686 247.628 878.363 246.452 879.594C245.399 880.69 244.091 881.238 242.53 881.238C240.844 881.238 239.634 880.647 238.896 879.467H238.843V886.039H236V872.587C236 871.254 235.964 869.885 235.895 868.481H238.395L238.554 870.458H238.607C239.555 868.968 240.994 868.225 242.924 868.225C244.434 868.225 245.694 868.806 246.702 869.969C247.712 871.134 248.216 872.665 248.216 874.565ZM245.32 874.666C245.32 873.452 245.04 872.451 244.478 871.663C243.863 870.842 243.038 870.431 242.003 870.431C241.302 870.431 240.664 870.66 240.095 871.111C239.524 871.566 239.151 872.16 238.976 872.896C238.888 873.239 238.844 873.52 238.844 873.741V875.821C238.844 876.728 239.13 877.494 239.7 878.119C240.271 878.744 241.012 879.056 241.924 879.056C242.995 879.056 243.828 878.653 244.424 877.85C245.022 877.045 245.32 875.984 245.32 874.666Z" fill="white"/>
<path d="M262.932 874.565C262.932 876.686 262.344 878.363 261.167 879.594C260.115 880.69 258.807 881.238 257.246 881.238C255.56 881.238 254.35 880.647 253.614 879.467H253.56V886.039H250.718V872.587C250.718 871.254 250.682 869.885 250.612 868.481H253.112L253.271 870.458H253.324C254.271 868.968 255.71 868.225 257.642 868.225C259.15 868.225 260.41 868.806 261.42 869.969C262.427 871.134 262.932 872.665 262.932 874.565ZM260.036 874.666C260.036 873.452 259.755 872.451 259.192 871.663C258.578 870.842 257.755 870.431 256.719 870.431C256.016 870.431 255.38 870.66 254.81 871.111C254.239 871.566 253.867 872.16 253.692 872.896C253.606 873.239 253.56 873.52 253.56 873.741V875.821C253.56 876.728 253.846 877.494 254.414 878.119C254.984 878.743 255.726 879.056 256.64 879.056C257.711 879.056 258.544 878.653 259.14 877.85C259.738 877.045 260.036 875.984 260.036 874.666Z" fill="white"/>
<path d="M279.385 876.104C279.385 877.575 278.861 878.773 277.809 879.697C276.653 880.707 275.044 881.211 272.976 881.211C271.067 881.211 269.536 880.853 268.377 880.134L269.036 877.824C270.284 878.559 271.653 878.929 273.145 878.929C274.216 878.929 275.049 878.692 275.648 878.221C276.244 877.751 276.541 877.119 276.541 876.331C276.541 875.629 276.296 875.038 275.804 874.558C275.315 874.078 274.497 873.632 273.356 873.22C270.249 872.091 268.697 870.436 268.697 868.259C268.697 866.837 269.241 865.671 270.331 864.764C271.416 863.855 272.864 863.401 274.675 863.401C276.289 863.401 277.631 863.676 278.701 864.223L277.991 866.482C276.991 865.952 275.86 865.687 274.595 865.687C273.595 865.687 272.813 865.927 272.253 866.406C271.78 866.833 271.543 867.355 271.543 867.972C271.543 868.656 271.813 869.221 272.357 869.666C272.831 870.077 273.691 870.521 274.939 871.001C276.465 871.6 277.587 872.301 278.308 873.105C279.027 873.905 279.385 874.908 279.385 876.104Z" fill="white"/>
<path d="M288.784 870.56H285.651V876.617C285.651 878.158 286.203 878.927 287.31 878.927C287.818 878.927 288.239 878.884 288.572 878.798L288.651 880.903C288.091 881.107 287.354 881.21 286.44 881.21C285.318 881.21 284.44 880.876 283.807 880.209C283.176 879.541 282.859 878.42 282.859 876.846V870.558H280.992V868.478H282.859V866.194L285.651 865.372V868.478H288.784V870.56Z" fill="white"/>
<path d="M302.922 874.615C302.922 876.533 302.359 878.107 301.236 879.338C300.059 880.605 298.496 881.237 296.548 881.237C294.671 881.237 293.176 880.63 292.062 879.416C290.947 878.202 290.39 876.669 290.39 874.822C290.39 872.889 290.963 871.305 292.114 870.074C293.262 868.842 294.811 868.226 296.759 868.226C298.636 868.226 300.147 868.833 301.287 870.048C302.378 871.227 302.922 872.75 302.922 874.615ZM299.972 874.705C299.972 873.554 299.72 872.568 299.21 871.745C298.614 870.749 297.762 870.252 296.658 870.252C295.515 870.252 294.647 870.75 294.051 871.745C293.54 872.569 293.288 873.571 293.288 874.757C293.288 875.907 293.54 876.894 294.051 877.716C294.666 878.711 295.524 879.208 296.632 879.208C297.718 879.208 298.57 878.701 299.184 877.69C299.708 876.851 299.972 875.854 299.972 874.705Z" fill="white"/>
<path d="M312.162 870.918C311.88 870.868 311.58 870.842 311.266 870.842C310.266 870.842 309.492 871.209 308.948 871.947C308.475 872.597 308.238 873.418 308.238 874.41V880.956H305.396L305.423 872.409C305.423 870.972 305.387 869.662 305.316 868.482H307.792L307.896 870.869H307.975C308.275 870.049 308.748 869.388 309.396 868.893C310.03 868.447 310.714 868.225 311.451 868.225C311.714 868.225 311.951 868.243 312.162 868.275V870.918Z" fill="white"/>
<path d="M324.875 874.128C324.875 874.624 324.842 875.043 324.771 875.385H316.243C316.276 876.617 316.688 877.56 317.48 878.21C318.199 878.791 319.128 879.082 320.27 879.082C321.532 879.082 322.684 878.886 323.72 878.492L324.166 880.416C322.955 880.931 321.526 881.187 319.876 881.187C317.892 881.187 316.335 880.617 315.202 879.48C314.071 878.342 313.504 876.815 313.504 874.899C313.504 873.018 314.031 871.451 315.086 870.202C316.19 868.868 317.682 868.201 319.559 868.201C321.403 868.201 322.799 868.868 323.747 870.202C324.498 871.261 324.875 872.572 324.875 874.128ZM322.164 873.409C322.183 872.587 321.998 871.878 321.612 871.278C321.12 870.507 320.364 870.123 319.347 870.123C318.418 870.123 317.662 870.498 317.084 871.252C316.611 871.852 316.33 872.57 316.243 873.408H322.164V873.409Z" fill="white"/>
<path d="M227.4 853.011C227.4 854.541 226.93 855.693 225.99 856.467C225.119 857.18 223.882 857.538 222.279 857.538C221.484 857.538 220.804 857.504 220.235 857.437V849.076C220.978 848.959 221.778 848.899 222.642 848.899C224.168 848.899 225.319 849.223 226.095 849.871C226.964 850.602 227.4 851.649 227.4 853.011ZM225.927 853.049C225.927 852.057 225.658 851.297 225.119 850.766C224.58 850.237 223.794 849.972 222.758 849.972C222.318 849.972 221.943 850.001 221.632 850.06V856.416C221.804 856.442 222.119 856.454 222.576 856.454C223.646 856.454 224.471 856.164 225.052 855.584C225.634 855.004 225.927 854.159 225.927 853.049Z" fill="white"/>
<path d="M235.212 854.348C235.212 855.291 234.936 856.063 234.384 856.669C233.805 857.291 233.039 857.602 232.081 857.602C231.159 857.602 230.424 857.304 229.876 856.706C229.329 856.11 229.056 855.357 229.056 854.45C229.056 853.501 229.337 852.722 229.903 852.117C230.468 851.513 231.228 851.21 232.185 851.21C233.108 851.21 233.849 851.508 234.411 852.104C234.944 852.684 235.212 853.433 235.212 854.348ZM233.763 854.392C233.763 853.827 233.637 853.342 233.388 852.938C233.095 852.449 232.677 852.204 232.135 852.204C231.573 852.204 231.147 852.449 230.853 852.938C230.603 853.342 230.479 853.835 230.479 854.417C230.479 854.983 230.604 855.467 230.853 855.872C231.156 856.361 231.577 856.605 232.121 856.605C232.655 856.605 233.073 856.357 233.375 855.859C233.633 855.447 233.763 854.958 233.763 854.392Z" fill="white"/>
<path d="M245.687 851.334L243.72 857.462H242.44L241.625 854.801C241.419 854.137 241.251 853.476 241.12 852.821H241.095C240.973 853.495 240.805 854.154 240.589 854.801L239.724 857.462H238.429L236.58 851.334H238.016L238.727 854.247C238.899 854.936 239.04 855.593 239.153 856.214H239.179C239.283 855.702 239.455 855.049 239.697 854.26L240.589 851.335H241.728L242.583 854.198C242.789 854.896 242.957 855.568 243.087 856.215H243.125C243.22 855.585 243.363 854.913 243.552 854.198L244.315 851.335H245.687V851.334Z" fill="white"/>
<path d="M252.931 857.463H251.533V853.953C251.533 852.871 251.112 852.331 250.267 852.331C249.852 852.331 249.517 852.479 249.257 852.776C249 853.074 248.869 853.425 248.869 853.827V857.462H247.472V853.086C247.472 852.548 247.455 851.964 247.421 851.332H248.649L248.715 852.29H248.753C248.916 851.993 249.159 851.747 249.477 851.551C249.856 851.322 250.28 851.206 250.744 851.206C251.331 851.206 251.819 851.391 252.207 851.761C252.689 852.215 252.931 852.892 252.931 853.792V857.463Z" fill="white"/>
<path d="M256.784 857.463H255.388V848.522H256.784V857.463Z" fill="white"/>
<path d="M265.011 854.348C265.011 855.291 264.735 856.063 264.183 856.669C263.604 857.291 262.836 857.602 261.88 857.602C260.956 857.602 260.222 857.304 259.675 856.706C259.128 856.11 258.855 855.357 258.855 854.45C258.855 853.501 259.136 852.722 259.702 852.117C260.267 851.513 261.027 851.21 261.983 851.21C262.907 851.21 263.647 851.508 264.21 852.104C264.743 852.684 265.011 853.433 265.011 854.348ZM263.56 854.392C263.56 853.827 263.435 853.342 263.186 852.938C262.894 852.449 262.475 852.204 261.934 852.204C261.371 852.204 260.944 852.449 260.652 852.938C260.402 853.342 260.278 853.835 260.278 854.417C260.278 854.983 260.403 855.467 260.652 855.872C260.955 856.361 261.376 856.605 261.92 856.605C262.454 856.605 262.871 856.357 263.172 855.859C263.432 855.447 263.56 854.958 263.56 854.392Z" fill="white"/>
<path d="M271.774 857.463H270.519L270.415 856.757H270.376C269.947 857.32 269.335 857.602 268.54 857.602C267.947 857.602 267.467 857.416 267.106 857.047C266.778 856.712 266.614 856.294 266.614 855.799C266.614 855.05 266.934 854.479 267.578 854.084C268.22 853.689 269.124 853.495 270.288 853.504V853.39C270.288 852.583 269.854 852.18 268.983 852.18C268.363 852.18 267.816 852.332 267.344 852.633L267.06 851.739C267.644 851.387 268.366 851.21 269.216 851.21C270.859 851.21 271.683 852.055 271.683 853.745V856.002C271.683 856.614 271.714 857.102 271.774 857.463ZM270.323 855.357V854.412C268.782 854.386 268.011 854.798 268.011 855.647C268.011 855.967 268.099 856.206 268.279 856.366C268.459 856.526 268.688 856.605 268.962 856.605C269.268 856.605 269.555 856.51 269.816 856.322C270.079 856.132 270.24 855.891 270.3 855.596C270.315 855.53 270.323 855.449 270.323 855.357Z" fill="white"/>
<path d="M279.713 857.463H278.473L278.408 856.478H278.369C277.973 857.227 277.299 857.602 276.351 857.602C275.593 857.602 274.963 857.312 274.463 856.732C273.963 856.152 273.713 855.399 273.713 854.475C273.713 853.483 273.984 852.68 274.528 852.066C275.055 851.494 275.7 851.208 276.468 851.208C277.312 851.208 277.903 851.485 278.239 852.04H278.265V848.522H279.664V855.812C279.664 856.408 279.68 856.958 279.713 857.463ZM278.265 854.878V853.856C278.265 853.68 278.252 853.537 278.227 853.427C278.148 853.1 277.979 852.824 277.721 852.602C277.461 852.38 277.148 852.268 276.787 852.268C276.265 852.268 275.857 852.469 275.557 852.874C275.26 853.278 275.109 853.794 275.109 854.424C275.109 855.03 275.252 855.522 275.539 855.9C275.841 856.303 276.249 856.504 276.76 856.504C277.219 856.504 277.585 856.337 277.864 856C278.133 855.689 278.265 855.315 278.265 854.878Z" fill="white"/>
<path d="M291.664 854.348C291.664 855.291 291.388 856.063 290.836 856.669C290.258 857.291 289.492 857.602 288.534 857.602C287.612 857.602 286.878 857.304 286.328 856.706C285.782 856.11 285.508 855.357 285.508 854.45C285.508 853.501 285.79 852.722 286.355 852.117C286.92 851.513 287.68 851.21 288.639 851.21C289.56 851.21 290.303 851.508 290.863 852.104C291.396 852.684 291.664 853.433 291.664 854.348ZM290.216 854.392C290.216 853.827 290.091 853.342 289.842 852.938C289.547 852.449 289.131 852.204 288.587 852.204C288.027 852.204 287.6 852.449 287.306 852.938C287.055 853.342 286.931 853.835 286.931 854.417C286.931 854.983 287.056 855.467 287.306 855.872C287.608 856.361 288.03 856.605 288.574 856.605C289.107 856.605 289.527 856.357 289.828 855.859C290.086 855.447 290.216 854.958 290.216 854.392Z" fill="white"/>
<path d="M299.177 857.463H297.781V853.953C297.781 852.871 297.36 852.331 296.513 852.331C296.099 852.331 295.764 852.479 295.505 852.776C295.247 853.074 295.117 853.425 295.117 853.827V857.462H293.719V853.086C293.719 852.548 293.703 851.964 293.669 851.332H294.896L294.961 852.29H295C295.164 851.993 295.407 851.747 295.724 851.551C296.104 851.322 296.527 851.206 296.992 851.206C297.577 851.206 298.065 851.391 298.453 851.761C298.937 852.215 299.177 852.892 299.177 853.792V857.463Z" fill="white"/>
<path d="M308.581 852.355H307.043V855.332C307.043 856.089 307.316 856.467 307.857 856.467C308.108 856.467 308.316 856.446 308.48 856.403L308.516 857.437C308.24 857.538 307.877 857.589 307.431 857.589C306.879 857.589 306.449 857.425 306.139 857.098C305.827 856.77 305.672 856.219 305.672 855.445V852.355H304.753V851.335H305.672V850.212L307.041 849.809V851.333H308.58V852.355H308.581Z" fill="white"/>
<path d="M315.979 857.463H314.58V853.979C314.58 852.88 314.159 852.33 313.315 852.33C312.667 852.33 312.224 852.649 311.981 853.286C311.94 853.42 311.916 853.583 311.916 853.776V857.461H310.52V848.522H311.916V852.216H311.943C312.383 851.544 313.013 851.208 313.831 851.208C314.409 851.208 314.888 851.393 315.268 851.763C315.741 852.225 315.979 852.911 315.979 853.819V857.463Z" fill="white"/>
<path d="M323.609 854.109C323.609 854.353 323.591 854.559 323.557 854.726H319.367C319.385 855.332 319.585 855.794 319.973 856.114C320.328 856.4 320.785 856.543 321.345 856.543C321.965 856.543 322.531 856.446 323.04 856.253L323.259 857.199C322.663 857.451 321.961 857.577 321.149 857.577C320.176 857.577 319.409 857.298 318.855 856.739C318.297 856.18 318.021 855.43 318.021 854.489C318.021 853.564 318.279 852.795 318.797 852.181C319.339 851.526 320.071 851.198 320.995 851.198C321.899 851.198 322.585 851.526 323.049 852.181C323.424 852.701 323.609 853.345 323.609 854.109ZM322.276 853.757C322.287 853.352 322.195 853.004 322.005 852.71C321.763 852.332 321.393 852.142 320.893 852.142C320.437 852.142 320.065 852.327 319.781 852.697C319.549 852.992 319.412 853.345 319.367 853.757H322.276Z" fill="white"/>
<path d="M335.095 892H168.658C164.998 892 162 889.073 162 885.5V846.5C162 842.927 164.998 840 168.658 840H335.095C338.755 840 341.753 842.927 341.753 846.5V885.5C341.753 889.073 338.755 892 335.095 892Z" fill="white"/>
<path d="M225.137 853.317C225.137 854.403 224.804 855.272 224.148 855.92C223.394 856.689 222.412 857.076 221.209 857.076C220.059 857.076 219.077 856.683 218.271 855.907C217.464 855.121 217.061 854.156 217.061 853C217.061 851.845 217.464 850.88 218.271 850.1C219.077 849.318 220.059 848.925 221.209 848.925C221.781 848.925 222.327 849.04 222.848 849.255C223.367 849.471 223.79 849.763 224.096 850.124L223.401 850.81C222.866 850.194 222.139 849.89 221.209 849.89C220.37 849.89 219.642 850.176 219.025 850.753C218.414 851.331 218.108 852.081 218.108 853C218.108 853.92 218.414 854.676 219.025 855.254C219.642 855.825 220.37 856.117 221.209 856.117C222.099 856.117 222.848 855.825 223.439 855.248C223.828 854.866 224.05 854.339 224.108 853.667H221.209V852.727H225.077C225.123 852.93 225.137 853.127 225.137 853.317Z" fill="black" stroke="black" stroke-width="0.16" stroke-miterlimit="10"/>
<path d="M231.273 850.061H227.639V852.531H230.915V853.47H227.639V855.94H231.273V856.897H226.611V849.104H231.273V850.061Z" fill="black" stroke="black" stroke-width="0.16" stroke-miterlimit="10"/>
<path d="M235.604 856.897H234.575V850.061H232.347V849.104H237.834V850.061H235.604V856.897Z" fill="black" stroke="black" stroke-width="0.16" stroke-miterlimit="10"/>
<path d="M241.805 856.897V849.104H242.832V856.897H241.805Z" fill="black" stroke="black" stroke-width="0.16" stroke-miterlimit="10"/>
<path d="M247.384 856.897H246.364V850.061H244.127V849.104H249.621V850.061H247.384V856.897Z" fill="black" stroke="black" stroke-width="0.16" stroke-miterlimit="10"/>
<path d="M260.01 855.894C259.223 856.683 258.247 857.076 257.084 857.076C255.914 857.076 254.939 856.683 254.151 855.894C253.366 855.108 252.975 854.143 252.975 853C252.975 851.858 253.366 850.893 254.151 850.106C254.939 849.318 255.914 848.925 257.084 848.925C258.241 848.925 259.216 849.318 260.003 850.113C260.796 850.906 261.187 851.864 261.187 853C261.187 854.143 260.796 855.108 260.01 855.894ZM254.912 855.241C255.504 855.825 256.225 856.117 257.084 856.117C257.936 856.117 258.663 855.825 259.249 855.241C259.84 854.658 260.14 853.909 260.14 853C260.14 852.092 259.84 851.343 259.249 850.759C258.663 850.176 257.936 849.884 257.084 849.884C256.225 849.884 255.504 850.176 254.912 850.759C254.321 851.343 254.022 852.092 254.022 853C254.022 853.909 254.321 854.658 254.912 855.241Z" fill="black" stroke="black" stroke-width="0.16" stroke-miterlimit="10"/>
<path d="M262.63 856.897V849.104H263.878L267.759 855.165H267.804L267.759 853.667V849.104H268.786V856.897H267.715L263.65 850.537H263.605L263.65 852.042V856.897H262.63Z" fill="black" stroke="black" stroke-width="0.16" stroke-miterlimit="10"/>
<path d="M252.722 868.278C249.594 868.278 247.039 870.602 247.039 873.808C247.039 876.988 249.594 879.336 252.722 879.336C255.856 879.336 258.41 876.988 258.41 873.808C258.41 870.602 255.856 868.278 252.722 868.278ZM252.722 877.159C251.006 877.159 249.529 875.776 249.529 873.808C249.529 871.814 251.006 870.456 252.722 870.456C254.437 870.456 255.92 871.814 255.92 873.808C255.92 875.776 254.437 877.159 252.722 877.159ZM240.324 868.278C237.19 868.278 234.641 870.602 234.641 873.808C234.641 876.988 237.19 879.336 240.324 879.336C243.456 879.336 246.006 876.988 246.006 873.808C246.006 870.602 243.456 868.278 240.324 868.278ZM240.324 877.159C238.606 877.159 237.125 875.776 237.125 873.808C237.125 871.814 238.606 870.456 240.324 870.456C242.04 870.456 243.516 871.814 243.516 873.808C243.516 875.776 242.04 877.159 240.324 877.159ZM225.571 869.973V872.323H231.318C231.15 873.636 230.7 874.601 230.011 875.274C229.172 876.086 227.866 876.988 225.571 876.988C222.034 876.988 219.264 874.201 219.264 870.748C219.264 867.295 222.034 864.508 225.571 864.508C227.483 864.508 228.874 865.238 229.901 866.184L231.597 864.528C230.161 863.189 228.25 862.16 225.571 862.16C220.721 862.16 216.645 866.013 216.645 870.748C216.645 875.484 220.721 879.336 225.571 879.336C228.192 879.336 230.161 878.498 231.709 876.925C233.295 875.376 233.789 873.199 233.789 871.441C233.789 870.895 233.743 870.392 233.659 869.973H225.571ZM285.898 871.795C285.43 870.558 283.987 868.278 281.048 868.278C278.135 868.278 275.71 870.519 275.71 873.808C275.71 876.905 278.11 879.336 281.327 879.336C283.929 879.336 285.43 877.788 286.047 876.886L284.117 875.63C283.473 876.55 282.595 877.159 281.327 877.159C280.067 877.159 279.163 876.595 278.584 875.484L286.159 872.424L285.898 871.795ZM278.175 873.636C278.11 871.504 279.871 870.412 281.132 870.412C282.121 870.412 282.96 870.895 283.24 871.585L278.175 873.636ZM272.018 879H274.508V862.75H272.018V879ZM267.941 869.51H267.857C267.298 868.863 266.231 868.278 264.88 868.278C262.044 868.278 259.451 870.709 259.451 873.826C259.451 876.925 262.044 879.336 264.88 879.336C266.231 879.336 267.298 878.747 267.857 878.08H267.941V878.873C267.941 880.987 266.784 882.123 264.918 882.123C263.397 882.123 262.453 881.051 262.064 880.149L259.898 881.031C260.522 882.497 262.175 884.301 264.918 884.301C267.837 884.301 270.301 882.624 270.301 878.543V868.615H267.941V869.51ZM265.093 877.159C263.377 877.159 261.94 875.757 261.94 873.826C261.94 871.878 263.377 870.456 265.093 870.456C266.784 870.456 268.117 871.878 268.117 873.826C268.117 875.757 266.784 877.159 265.093 877.159ZM297.555 862.75H291.6V879H294.083V872.843H297.555C300.313 872.843 303.017 870.895 303.017 867.796C303.017 864.698 300.306 862.75 297.555 862.75ZM297.62 870.583H294.083V865.01H297.62C299.474 865.01 300.532 866.514 300.532 867.796C300.532 869.053 299.474 870.583 297.62 870.583ZM312.97 868.247C311.176 868.247 309.31 869.021 308.543 870.735L310.747 871.637C311.221 870.735 312.093 870.443 313.015 870.443C314.303 870.443 315.61 871.198 315.63 872.533V872.703C315.181 872.45 314.219 872.074 313.035 872.074C310.662 872.074 308.243 873.35 308.243 875.731C308.243 877.908 310.187 879.31 312.373 879.31C314.044 879.31 314.966 878.574 315.545 877.718H315.63V878.974H318.028V872.741C318.028 869.859 315.825 868.247 312.97 868.247ZM312.671 877.152C311.858 877.152 310.727 876.759 310.727 875.776C310.727 874.518 312.138 874.036 313.36 874.036C314.453 874.036 314.966 874.271 315.63 874.582C315.435 876.086 314.109 877.152 312.671 877.152ZM326.766 868.603L323.912 875.648H323.827L320.876 868.603H318.198L322.632 878.448L320.102 883.925H322.697L329.529 868.603H326.766ZM304.382 879H306.872V862.75H304.382V879Z" fill="black"/>
<path d="M175.894 849.8C175.503 850.2 175.277 850.823 175.277 851.629V880.378C175.277 881.184 175.503 881.806 175.894 882.206L175.991 882.294L192.491 866.19V865.81L175.991 849.706L175.894 849.8Z" fill="url(#paint0_linear_1582_2058)"/>
<path d="M197.985 871.561L192.491 866.19V865.81L197.992 860.439L198.115 860.509L204.63 864.128C206.489 865.155 206.489 866.845 204.63 867.878L198.115 871.491L197.985 871.561Z" fill="url(#paint1_linear_1582_2058)"/>
<path d="M198.115 871.491L192.491 866L175.894 882.206C176.512 882.84 177.518 882.917 178.664 882.283L198.115 871.491Z" fill="url(#paint2_linear_1582_2058)"/>
<path d="M198.115 860.509L178.664 849.718C177.518 849.09 176.512 849.167 175.894 849.8L192.491 866L198.115 860.509Z" fill="url(#paint3_linear_1582_2058)"/>
<path d="M173.013 954.2C172.053 954.2 171.306 953.907 170.773 953.32C170.239 952.733 169.973 951.92 169.973 950.88C169.973 949.813 170.246 948.993 170.793 948.42C171.353 947.833 172.119 947.54 173.093 947.54C173.413 947.54 173.719 947.573 174.013 947.64C174.319 947.693 174.619 947.787 174.913 947.92L174.573 948.92C174.319 948.813 174.066 948.733 173.813 948.68C173.573 948.627 173.326 948.6 173.073 948.6C172.486 948.6 172.039 948.793 171.733 949.18C171.439 949.553 171.293 950.12 171.293 950.88C171.293 951.6 171.439 952.16 171.733 952.56C172.026 952.947 172.453 953.14 173.013 953.14C173.279 953.14 173.559 953.107 173.853 953.04C174.159 952.96 174.479 952.853 174.813 952.72V953.8C174.493 953.933 174.186 954.033 173.893 954.1C173.599 954.167 173.306 954.2 173.013 954.2ZM172.473 959.1C171.339 959.1 170.273 958.887 169.273 958.46C168.273 958.033 167.393 957.447 166.633 956.7C165.886 955.94 165.299 955.06 164.873 954.06C164.446 953.06 164.233 951.993 164.233 950.86C164.233 949.713 164.446 948.647 164.873 947.66C165.299 946.66 165.886 945.787 166.633 945.04C167.393 944.28 168.273 943.687 169.273 943.26C170.273 942.833 171.339 942.62 172.473 942.62C173.619 942.62 174.686 942.833 175.673 943.26C176.673 943.687 177.546 944.28 178.293 945.04C179.053 945.787 179.646 946.66 180.073 947.66C180.499 948.647 180.713 949.713 180.713 950.86C180.713 951.993 180.499 953.06 180.073 954.06C179.646 955.06 179.053 955.94 178.293 956.7C177.546 957.447 176.673 958.033 175.673 958.46C174.686 958.887 173.619 959.1 172.473 959.1ZM172.473 957.98C173.459 957.98 174.379 957.8 175.233 957.44C176.099 957.067 176.859 956.553 177.513 955.9C178.166 955.247 178.673 954.493 179.033 953.64C179.406 952.773 179.593 951.847 179.593 950.86C179.593 949.873 179.406 948.953 179.033 948.1C178.673 947.233 178.166 946.473 177.513 945.82C176.859 945.167 176.099 944.66 175.233 944.3C174.379 943.927 173.459 943.74 172.473 943.74C171.486 943.74 170.559 943.927 169.693 944.3C168.839 944.66 168.086 945.167 167.433 945.82C166.779 946.473 166.266 947.233 165.893 948.1C165.533 948.953 165.353 949.873 165.353 950.86C165.353 951.847 165.533 952.773 165.893 953.64C166.266 954.493 166.779 955.247 167.433 955.9C168.086 956.553 168.839 957.067 169.693 957.44C170.559 957.8 171.486 957.98 172.473 957.98ZM198.188 958H188.588V956.36L192.268 952.62C192.988 951.887 193.588 951.253 194.068 950.72C194.548 950.173 194.908 949.653 195.148 949.16C195.388 948.653 195.508 948.107 195.508 947.52C195.508 946.8 195.295 946.253 194.868 945.88C194.455 945.507 193.901 945.32 193.208 945.32C192.555 945.32 191.968 945.44 191.448 945.68C190.928 945.92 190.388 946.267 189.828 946.72L188.688 945.3C189.261 944.82 189.915 944.407 190.648 944.06C191.381 943.7 192.255 943.52 193.268 943.52C194.615 943.52 195.681 943.867 196.468 944.56C197.255 945.253 197.648 946.18 197.648 947.34C197.648 948.1 197.495 948.807 197.188 949.46C196.881 950.113 196.448 950.76 195.888 951.4C195.328 952.04 194.668 952.72 193.908 953.44L191.248 956.02V956.12H198.188V958ZM209.653 950.84C209.653 952.387 209.493 953.707 209.173 954.8C208.853 955.893 208.333 956.733 207.613 957.32C206.907 957.907 205.973 958.2 204.813 958.2C203.173 958.2 201.96 957.553 201.173 956.26C200.4 954.953 200.013 953.147 200.013 950.84C200.013 949.293 200.167 947.973 200.473 946.88C200.793 945.787 201.307 944.953 202.013 944.38C202.72 943.793 203.653 943.5 204.813 943.5C206.44 943.5 207.653 944.147 208.453 945.44C209.253 946.72 209.653 948.52 209.653 950.84ZM202.133 950.84C202.133 952.707 202.333 954.107 202.733 955.04C203.133 955.96 203.827 956.42 204.813 956.42C205.787 956.42 206.48 955.96 206.893 955.04C207.307 954.12 207.513 952.72 207.513 950.84C207.513 948.987 207.307 947.6 206.893 946.68C206.48 945.747 205.787 945.28 204.813 945.28C203.827 945.28 203.133 945.747 202.733 946.68C202.333 947.6 202.133 948.987 202.133 950.84ZM221.079 958H211.479V956.36L215.159 952.62C215.879 951.887 216.479 951.253 216.959 950.72C217.439 950.173 217.799 949.653 218.039 949.16C218.279 948.653 218.399 948.107 218.399 947.52C218.399 946.8 218.185 946.253 217.759 945.88C217.345 945.507 216.792 945.32 216.099 945.32C215.445 945.32 214.859 945.44 214.339 945.68C213.819 945.92 213.279 946.267 212.719 946.72L211.579 945.3C212.152 944.82 212.805 944.407 213.539 944.06C214.272 943.7 215.145 943.52 216.159 943.52C217.505 943.52 218.572 943.867 219.359 944.56C220.145 945.253 220.539 946.18 220.539 947.34C220.539 948.1 220.385 948.807 220.079 949.46C219.772 950.113 219.339 950.76 218.779 951.4C218.219 952.04 217.559 952.72 216.799 953.44L214.139 956.02V956.12H221.079V958ZM232.524 958H222.924V956.36L226.604 952.62C227.324 951.887 227.924 951.253 228.404 950.72C228.884 950.173 229.244 949.653 229.484 949.16C229.724 948.653 229.844 948.107 229.844 947.52C229.844 946.8 229.631 946.253 229.204 945.88C228.791 945.507 228.237 945.32 227.544 945.32C226.891 945.32 226.304 945.44 225.784 945.68C225.264 945.92 224.724 946.267 224.164 946.72L223.024 945.3C223.597 944.82 224.251 944.407 224.984 944.06C225.717 943.7 226.591 943.52 227.604 943.52C228.951 943.52 230.017 943.867 230.804 944.56C231.591 945.253 231.984 946.18 231.984 947.34C231.984 948.1 231.831 948.807 231.524 949.46C231.217 950.113 230.784 950.76 230.224 951.4C229.664 952.04 229.004 952.72 228.244 953.44L225.584 956.02V956.12H232.524V958ZM234.809 956.82C234.809 956.3 234.943 955.933 235.209 955.72C235.476 955.507 235.796 955.4 236.169 955.4C236.543 955.4 236.863 955.507 237.129 955.72C237.409 955.933 237.549 956.3 237.549 956.82C237.549 957.34 237.409 957.713 237.129 957.94C236.863 958.167 236.543 958.28 236.169 958.28C235.796 958.28 235.476 958.167 235.209 957.94C234.943 957.713 234.809 957.34 234.809 956.82ZM254.213 954.14C254.213 955.407 253.753 956.4 252.833 957.12C251.913 957.84 250.653 958.2 249.053 958.2C248.267 958.2 247.533 958.133 246.853 958C246.173 957.88 245.593 957.7 245.113 957.46V955.42C245.647 955.66 246.273 955.88 246.993 956.08C247.713 956.267 248.447 956.36 249.193 956.36C250.153 956.36 250.873 956.173 251.353 955.8C251.833 955.427 252.073 954.927 252.073 954.3C252.073 953.86 251.967 953.493 251.753 953.2C251.54 952.893 251.193 952.613 250.713 952.36C250.247 952.093 249.633 951.813 248.873 951.52C248.18 951.253 247.56 950.94 247.013 950.58C246.467 950.22 246.04 949.773 245.733 949.24C245.427 948.707 245.273 948.053 245.273 947.28C245.273 946.107 245.7 945.187 246.553 944.52C247.407 943.853 248.527 943.52 249.913 943.52C250.687 943.52 251.4 943.6 252.053 943.76C252.72 943.92 253.353 944.127 253.953 944.38L253.273 946.16C252.727 945.933 252.167 945.747 251.593 945.6C251.033 945.453 250.453 945.38 249.853 945.38C249.067 945.38 248.467 945.553 248.053 945.9C247.64 946.247 247.433 946.7 247.433 947.26C247.433 947.7 247.533 948.073 247.733 948.38C247.933 948.673 248.253 948.947 248.693 949.2C249.133 949.44 249.713 949.7 250.433 949.98C251.233 950.3 251.913 950.64 252.473 951C253.047 951.347 253.48 951.773 253.773 952.28C254.067 952.773 254.213 953.393 254.213 954.14ZM261.809 958H259.649V945.58H255.369V943.72H266.089V945.58H261.809V958ZM279.359 943.72V952.96C279.359 953.947 279.152 954.84 278.739 955.64C278.339 956.427 277.719 957.053 276.879 957.52C276.039 957.973 274.979 958.2 273.699 958.2C271.886 958.2 270.506 957.72 269.559 956.76C268.626 955.787 268.159 954.507 268.159 952.92V943.72H270.319V952.82C270.319 955.18 271.479 956.36 273.799 956.36C274.999 956.36 275.866 956.04 276.399 955.4C276.946 954.76 277.219 953.893 277.219 952.8V943.72H279.359ZM287.045 943.72C288.911 943.72 290.271 944.1 291.125 944.86C291.978 945.607 292.405 946.653 292.405 948C292.405 948.8 292.225 949.547 291.865 950.24C291.518 950.933 290.931 951.5 290.105 951.94C289.278 952.367 288.158 952.58 286.745 952.58H285.205V958H283.045V943.72H287.045ZM286.885 945.54H285.205V950.76H286.505C287.718 950.76 288.631 950.56 289.245 950.16C289.871 949.747 290.185 949.053 290.185 948.08C290.185 947.227 289.918 946.593 289.385 946.18C288.851 945.753 288.018 945.54 286.885 945.54ZM299.231 950.4L302.731 943.72H305.051L300.291 952.46V958H298.151V952.54L293.391 943.72H295.731L299.231 950.4ZM316.086 947.02C317.433 947.02 318.439 947.32 319.106 947.92C319.786 948.507 320.126 949.433 320.126 950.7V958H318.626L318.206 956.5H318.126C317.659 957.087 317.166 957.52 316.646 957.8C316.139 958.067 315.433 958.2 314.526 958.2C313.553 958.2 312.746 957.94 312.106 957.42C311.466 956.887 311.146 956.06 311.146 954.94C311.146 953.833 311.559 953 312.386 952.44C313.226 951.867 314.499 951.553 316.206 951.5L318.046 951.44V950.84C318.046 950.053 317.866 949.5 317.506 949.18C317.146 948.847 316.639 948.68 315.986 948.68C315.439 948.68 314.913 948.76 314.406 948.92C313.899 949.08 313.413 949.273 312.946 949.5L312.266 947.96C312.773 947.693 313.353 947.473 314.006 947.3C314.673 947.113 315.366 947.02 316.086 947.02ZM318.026 952.82L316.586 952.86C315.359 952.913 314.506 953.12 314.026 953.48C313.559 953.84 313.326 954.333 313.326 954.96C313.326 955.52 313.493 955.927 313.826 956.18C314.159 956.433 314.593 956.56 315.126 956.56C315.953 956.56 316.639 956.327 317.186 955.86C317.746 955.393 318.026 954.693 318.026 953.76V952.82ZM325.51 958H323.39V942.8H325.51V958ZM330.96 958H328.84V942.8H330.96V958ZM344.804 947.02C345.231 947.02 345.624 947.053 345.984 947.12L345.764 949.1C345.418 949.007 345.058 948.96 344.684 948.96C344.138 948.96 343.631 949.093 343.164 949.36C342.698 949.627 342.318 950.013 342.024 950.52C341.744 951.013 341.604 951.613 341.604 952.32V958H339.484V947.22H341.164L341.444 949.14H341.524C341.858 948.567 342.304 948.073 342.864 947.66C343.424 947.233 344.071 947.02 344.804 947.02ZM349.06 943.12C349.38 943.12 349.66 943.213 349.9 943.4C350.14 943.587 350.26 943.9 350.26 944.34C350.26 944.767 350.14 945.08 349.9 945.28C349.66 945.467 349.38 945.56 349.06 945.56C348.727 945.56 348.44 945.467 348.2 945.28C347.96 945.08 347.84 944.767 347.84 944.34C347.84 943.9 347.96 943.587 348.2 943.4C348.44 943.213 348.727 943.12 349.06 943.12ZM350.1 947.22V958H347.98V947.22H350.1ZM357.15 947.02C357.843 947.02 358.47 947.153 359.03 947.42C359.59 947.687 360.063 948.093 360.45 948.64H360.55L360.79 947.22H362.51V958.14C362.51 961.247 360.85 962.8 357.53 962.8C356.756 962.8 356.043 962.747 355.39 962.64C354.736 962.533 354.136 962.367 353.59 962.14V960.28C354.15 960.56 354.77 960.767 355.45 960.9C356.143 961.047 356.876 961.12 357.65 961.12C358.516 961.12 359.19 960.867 359.67 960.36C360.163 959.867 360.41 959.167 360.41 958.26V957.9C360.41 957.727 360.416 957.5 360.43 957.22C360.443 956.94 360.456 956.727 360.47 956.58H360.39C360.016 957.14 359.556 957.553 359.01 957.82C358.476 958.073 357.856 958.2 357.15 958.2C355.79 958.2 354.723 957.713 353.95 956.74C353.19 955.753 352.81 954.387 352.81 952.64C352.81 950.907 353.19 949.54 353.95 948.54C354.723 947.527 355.79 947.02 357.15 947.02ZM357.59 948.78C356.75 948.78 356.103 949.113 355.65 949.78C355.21 950.433 354.99 951.393 354.99 952.66C354.99 953.913 355.21 954.867 355.65 955.52C356.103 956.173 356.763 956.5 357.63 956.5C358.616 956.5 359.336 956.233 359.79 955.7C360.256 955.153 360.49 954.267 360.49 953.04V952.64C360.49 951.253 360.256 950.267 359.79 949.68C359.323 949.08 358.59 948.78 357.59 948.78ZM367.952 942.8V946.86C367.952 947.193 367.939 947.527 367.912 947.86C367.885 948.193 367.859 948.467 367.832 948.68H367.972C368.319 948.133 368.779 947.727 369.352 947.46C369.939 947.18 370.572 947.04 371.252 947.04C372.519 947.04 373.485 947.353 374.152 947.98C374.832 948.607 375.172 949.607 375.172 950.98V958H373.072V951.28C373.072 949.6 372.332 948.76 370.852 948.76C369.745 948.76 368.985 949.093 368.572 949.76C368.159 950.427 367.952 951.367 367.952 952.58V958H365.832V942.8H367.952ZM382.31 956.48C382.91 956.48 383.45 956.393 383.93 956.22V957.82C383.703 957.927 383.396 958.013 383.01 958.08C382.623 958.16 382.236 958.2 381.85 958.2C381.263 958.2 380.723 958.1 380.23 957.9C379.75 957.7 379.363 957.353 379.07 956.86C378.776 956.367 378.63 955.68 378.63 954.8V948.84H377.13V947.88L378.71 947.08L379.45 944.8H380.75V947.22H383.83V948.84H380.75V954.76C380.75 955.347 380.89 955.78 381.17 956.06C381.463 956.34 381.843 956.48 382.31 956.48ZM393.246 954.96C393.246 956.027 392.859 956.833 392.086 957.38C391.326 957.927 390.252 958.2 388.866 958.2C388.106 958.2 387.452 958.147 386.906 958.04C386.372 957.933 385.879 957.767 385.426 957.54V955.68C385.892 955.907 386.439 956.113 387.066 956.3C387.706 956.473 388.326 956.56 388.926 956.56C389.726 956.56 390.299 956.433 390.646 956.18C391.006 955.927 391.186 955.587 391.186 955.16C391.186 954.92 391.119 954.707 390.986 954.52C390.852 954.32 390.599 954.12 390.226 953.92C389.866 953.707 389.332 953.467 388.626 953.2C387.932 952.933 387.346 952.66 386.866 952.38C386.399 952.1 386.039 951.767 385.786 951.38C385.532 950.993 385.406 950.507 385.406 949.92C385.406 948.987 385.779 948.273 386.526 947.78C387.286 947.273 388.286 947.02 389.526 947.02C390.179 947.02 390.792 947.087 391.366 947.22C391.952 947.353 392.519 947.54 393.066 947.78L392.366 949.4C391.899 949.2 391.419 949.033 390.926 948.9C390.432 948.753 389.932 948.68 389.426 948.68C388.119 948.68 387.466 949.06 387.466 949.82C387.466 950.073 387.539 950.293 387.686 950.48C387.846 950.667 388.112 950.853 388.486 951.04C388.872 951.227 389.406 951.453 390.086 951.72C390.739 951.973 391.299 952.24 391.766 952.52C392.246 952.787 392.612 953.113 392.866 953.5C393.119 953.887 393.246 954.373 393.246 954.96ZM406.289 947.02C406.715 947.02 407.109 947.053 407.469 947.12L407.249 949.1C406.902 949.007 406.542 948.96 406.169 948.96C405.622 948.96 405.115 949.093 404.649 949.36C404.182 949.627 403.802 950.013 403.509 950.52C403.229 951.013 403.089 951.613 403.089 952.32V958H400.969V947.22H402.649L402.929 949.14H403.009C403.342 948.567 403.789 948.073 404.349 947.66C404.909 947.233 405.555 947.02 406.289 947.02ZM413.314 947.02C414.727 947.02 415.841 947.46 416.654 948.34C417.467 949.207 417.874 950.393 417.874 951.9V953.06H410.634C410.661 954.167 410.947 955.013 411.494 955.6C412.054 956.187 412.834 956.48 413.834 956.48C414.527 956.48 415.141 956.42 415.674 956.3C416.221 956.167 416.781 955.973 417.354 955.72V957.48C416.807 957.733 416.261 957.913 415.714 958.02C415.167 958.14 414.514 958.2 413.754 958.2C412.714 958.2 411.794 957.993 410.994 957.58C410.194 957.167 409.567 956.553 409.114 955.74C408.674 954.927 408.454 953.913 408.454 952.7C408.454 951.487 408.654 950.46 409.054 949.62C409.467 948.78 410.034 948.14 410.754 947.7C411.487 947.247 412.341 947.02 413.314 947.02ZM413.314 948.66C412.554 948.66 411.941 948.907 411.474 949.4C411.021 949.893 410.754 950.593 410.674 951.5H415.754C415.741 950.66 415.534 949.98 415.134 949.46C414.747 948.927 414.141 948.66 413.314 948.66ZM427.679 954.96C427.679 956.027 427.293 956.833 426.519 957.38C425.759 957.927 424.686 958.2 423.299 958.2C422.539 958.2 421.886 958.147 421.339 958.04C420.806 957.933 420.313 957.767 419.859 957.54V955.68C420.326 955.907 420.873 956.113 421.499 956.3C422.139 956.473 422.759 956.56 423.359 956.56C424.159 956.56 424.733 956.433 425.079 956.18C425.439 955.927 425.619 955.587 425.619 955.16C425.619 954.92 425.553 954.707 425.419 954.52C425.286 954.32 425.033 954.12 424.659 953.92C424.299 953.707 423.766 953.467 423.059 953.2C422.366 952.933 421.779 952.66 421.299 952.38C420.833 952.1 420.473 951.767 420.219 951.38C419.966 950.993 419.839 950.507 419.839 949.92C419.839 948.987 420.213 948.273 420.959 947.78C421.719 947.273 422.719 947.02 423.959 947.02C424.613 947.02 425.226 947.087 425.799 947.22C426.386 947.353 426.953 947.54 427.499 947.78L426.799 949.4C426.333 949.2 425.853 949.033 425.359 948.9C424.866 948.753 424.366 948.68 423.859 948.68C422.553 948.68 421.899 949.06 421.899 949.82C421.899 950.073 421.973 950.293 422.119 950.48C422.279 950.667 422.546 950.853 422.919 951.04C423.306 951.227 423.839 951.453 424.519 951.72C425.173 951.973 425.733 952.24 426.199 952.52C426.679 952.787 427.046 953.113 427.299 953.5C427.553 953.887 427.679 954.373 427.679 954.96ZM434.447 947.02C435.86 947.02 436.974 947.46 437.787 948.34C438.6 949.207 439.007 950.393 439.007 951.9V953.06H431.767C431.794 954.167 432.08 955.013 432.627 955.6C433.187 956.187 433.967 956.48 434.967 956.48C435.66 956.48 436.274 956.42 436.807 956.3C437.354 956.167 437.914 955.973 438.487 955.72V957.48C437.94 957.733 437.394 957.913 436.847 958.02C436.3 958.14 435.647 958.2 434.887 958.2C433.847 958.2 432.927 957.993 432.127 957.58C431.327 957.167 430.7 956.553 430.247 955.74C429.807 954.927 429.587 953.913 429.587 952.7C429.587 951.487 429.787 950.46 430.187 949.62C430.6 948.78 431.167 948.14 431.887 947.7C432.62 947.247 433.474 947.02 434.447 947.02ZM434.447 948.66C433.687 948.66 433.074 948.907 432.607 949.4C432.154 949.893 431.887 950.593 431.807 951.5H436.887C436.874 950.66 436.667 949.98 436.267 949.46C435.88 948.927 435.274 948.66 434.447 948.66ZM446.972 947.02C447.399 947.02 447.792 947.053 448.152 947.12L447.932 949.1C447.586 949.007 447.226 948.96 446.852 948.96C446.306 948.96 445.799 949.093 445.332 949.36C444.866 949.627 444.486 950.013 444.192 950.52C443.912 951.013 443.772 951.613 443.772 952.32V958H441.652V947.22H443.332L443.612 949.14H443.692C444.026 948.567 444.472 948.073 445.032 947.66C445.592 947.233 446.239 947.02 446.972 947.02ZM452.568 958L448.488 947.22H450.728L452.968 953.52C453.102 953.947 453.242 954.413 453.388 954.92C453.535 955.427 453.635 955.847 453.688 956.18H453.768C453.822 955.847 453.928 955.427 454.088 954.92C454.248 954.4 454.395 953.933 454.528 953.52L456.768 947.22H459.008L454.908 958H452.568ZM464.916 947.02C466.329 947.02 467.442 947.46 468.256 948.34C469.069 949.207 469.476 950.393 469.476 951.9V953.06H462.236C462.262 954.167 462.549 955.013 463.096 955.6C463.656 956.187 464.436 956.48 465.436 956.48C466.129 956.48 466.742 956.42 467.276 956.3C467.822 956.167 468.382 955.973 468.956 955.72V957.48C468.409 957.733 467.862 957.913 467.316 958.02C466.769 958.14 466.116 958.2 465.356 958.2C464.316 958.2 463.396 957.993 462.596 957.58C461.796 957.167 461.169 956.553 460.716 955.74C460.276 954.927 460.056 953.913 460.056 952.7C460.056 951.487 460.256 950.46 460.656 949.62C461.069 948.78 461.636 948.14 462.356 947.7C463.089 947.247 463.942 947.02 464.916 947.02ZM464.916 948.66C464.156 948.66 463.542 948.907 463.076 949.4C462.622 949.893 462.356 950.593 462.276 951.5H467.356C467.342 950.66 467.136 949.98 466.736 949.46C466.349 948.927 465.742 948.66 464.916 948.66ZM475.821 958.2C474.514 958.2 473.468 957.733 472.681 956.8C471.894 955.867 471.501 954.48 471.501 952.64C471.501 950.787 471.901 949.387 472.701 948.44C473.501 947.493 474.554 947.02 475.861 947.02C476.674 947.02 477.341 947.173 477.861 947.48C478.381 947.787 478.801 948.16 479.121 948.6H479.241C479.214 948.413 479.181 948.14 479.141 947.78C479.101 947.42 479.081 947.107 479.081 946.84V942.8H481.201V958H479.541L479.181 956.56H479.081C478.774 957.013 478.361 957.4 477.841 957.72C477.321 958.04 476.648 958.2 475.821 958.2ZM476.321 956.46C477.361 956.46 478.088 956.173 478.501 955.6C478.928 955.027 479.148 954.153 479.161 952.98V952.66C479.161 951.393 478.954 950.427 478.541 949.76C478.141 949.093 477.394 948.76 476.301 948.76C475.434 948.76 474.781 949.107 474.341 949.8C473.901 950.493 473.681 951.453 473.681 952.68C473.681 953.893 473.901 954.827 474.341 955.48C474.781 956.133 475.441 956.46 476.321 956.46ZM484.223 956.82C484.223 956.3 484.357 955.933 484.623 955.72C484.89 955.507 485.21 955.4 485.583 955.4C485.957 955.4 486.277 955.507 486.543 955.72C486.823 955.933 486.963 956.3 486.963 956.82C486.963 957.34 486.823 957.713 486.543 957.94C486.277 958.167 485.957 958.28 485.583 958.28C485.21 958.28 484.89 958.167 484.623 957.94C484.357 957.713 484.223 957.34 484.223 956.82Z" fill="#CF4B00"/>
<path d="M537 886.003C537 888.775 534.709 891.019 531.874 891.019H364.132C361.3 891.019 359 888.775 359 886.003V846.004C359 843.234 361.3 840.981 364.132 840.981H531.873C534.709 840.981 536.999 843.234 536.999 846.004L537 886.003Z" fill="white"/>
<path d="M398.17 865.719C398.132 861.529 401.689 859.491 401.852 859.396C399.837 856.532 396.714 856.141 395.617 856.11C392.994 855.84 390.45 857.64 389.114 857.64C387.752 857.64 385.694 856.136 383.477 856.18C380.624 856.223 377.954 857.833 376.49 860.335C373.469 865.434 375.722 872.929 378.617 877.051C380.065 879.07 381.757 881.324 383.972 881.245C386.138 881.158 386.948 879.898 389.562 879.898C392.153 879.898 392.913 881.245 395.172 881.194C397.497 881.158 398.961 879.166 400.358 877.129C402.032 874.815 402.704 872.536 402.73 872.419C402.676 872.401 398.214 870.741 398.17 865.719Z" fill="black"/>
<path d="M393.904 853.398C395.069 851.977 395.866 850.044 395.645 848.082C393.958 848.155 391.849 849.22 390.634 850.609C389.56 851.834 388.6 853.841 388.848 855.729C390.742 855.866 392.688 854.797 393.904 853.398Z" fill="black"/>
<path d="M429.527 880.956H426.499L424.84 875.874H419.075L417.495 880.956H414.547L420.259 863.655H423.787L429.527 880.956ZM424.34 873.742L422.84 869.224C422.682 868.763 422.384 867.676 421.946 865.965H421.892C421.718 866.701 421.436 867.788 421.05 869.224L419.576 873.742H424.34Z" fill="black"/>
<path d="M444.216 874.565C444.216 876.686 443.628 878.363 442.452 879.594C441.399 880.69 440.091 881.238 438.53 881.238C436.844 881.238 435.634 880.647 434.896 879.467H434.843V886.039H432V872.587C432 871.254 431.964 869.885 431.895 868.481H434.395L434.554 870.458H434.607C435.555 868.968 436.994 868.225 438.924 868.225C440.434 868.225 441.694 868.806 442.702 869.969C443.712 871.134 444.216 872.665 444.216 874.565ZM441.32 874.666C441.32 873.452 441.04 872.451 440.478 871.663C439.863 870.842 439.038 870.431 438.003 870.431C437.302 870.431 436.664 870.66 436.095 871.111C435.524 871.566 435.151 872.16 434.976 872.896C434.888 873.239 434.844 873.52 434.844 873.741V875.821C434.844 876.728 435.13 877.494 435.7 878.119C436.271 878.744 437.012 879.056 437.924 879.056C438.995 879.056 439.828 878.653 440.424 877.85C441.022 877.045 441.32 875.984 441.32 874.666Z" fill="black"/>
<path d="M458.932 874.565C458.932 876.686 458.344 878.363 457.167 879.594C456.115 880.69 454.807 881.238 453.246 881.238C451.56 881.238 450.35 880.647 449.614 879.467H449.56V886.039H446.718V872.587C446.718 871.254 446.682 869.885 446.612 868.481H449.112L449.271 870.458H449.324C450.271 868.968 451.71 868.225 453.642 868.225C455.15 868.225 456.41 868.806 457.42 869.969C458.427 871.134 458.932 872.665 458.932 874.565ZM456.036 874.666C456.036 873.452 455.755 872.451 455.192 871.663C454.578 870.842 453.755 870.431 452.719 870.431C452.016 870.431 451.38 870.66 450.81 871.111C450.239 871.566 449.867 872.16 449.692 872.896C449.606 873.239 449.56 873.52 449.56 873.741V875.821C449.56 876.728 449.846 877.494 450.414 878.119C450.984 878.743 451.726 879.056 452.64 879.056C453.711 879.056 454.544 878.653 455.14 877.85C455.738 877.045 456.036 875.984 456.036 874.666Z" fill="black"/>
<path d="M475.385 876.104C475.385 877.575 474.861 878.773 473.809 879.697C472.653 880.707 471.044 881.211 468.976 881.211C467.067 881.211 465.536 880.853 464.377 880.134L465.036 877.824C466.284 878.559 467.653 878.929 469.145 878.929C470.216 878.929 471.049 878.692 471.648 878.221C472.244 877.751 472.541 877.119 472.541 876.331C472.541 875.629 472.296 875.038 471.804 874.558C471.315 874.078 470.497 873.632 469.356 873.22C466.249 872.091 464.697 870.436 464.697 868.259C464.697 866.837 465.241 865.671 466.331 864.764C467.416 863.855 468.864 863.401 470.675 863.401C472.289 863.401 473.631 863.676 474.701 864.223L473.991 866.482C472.991 865.952 471.86 865.687 470.595 865.687C469.595 865.687 468.813 865.927 468.253 866.406C467.78 866.833 467.543 867.355 467.543 867.972C467.543 868.656 467.813 869.221 468.357 869.666C468.831 870.077 469.691 870.521 470.939 871.001C472.465 871.6 473.587 872.301 474.308 873.105C475.027 873.905 475.385 874.908 475.385 876.104Z" fill="black"/>
<path d="M484.784 870.56H481.651V876.617C481.651 878.158 482.203 878.927 483.31 878.927C483.818 878.927 484.239 878.884 484.572 878.798L484.651 880.903C484.091 881.107 483.354 881.21 482.44 881.21C481.318 881.21 480.44 880.876 479.807 880.209C479.176 879.541 478.859 878.42 478.859 876.846V870.558H476.992V868.478H478.859V866.194L481.651 865.372V868.478H484.784V870.56Z" fill="black"/>
<path d="M498.922 874.615C498.922 876.533 498.359 878.107 497.236 879.338C496.059 880.605 494.496 881.237 492.548 881.237C490.671 881.237 489.176 880.63 488.062 879.416C486.947 878.202 486.39 876.669 486.39 874.822C486.39 872.889 486.963 871.305 488.114 870.074C489.262 868.842 490.811 868.226 492.759 868.226C494.636 868.226 496.147 868.833 497.287 870.048C498.378 871.227 498.922 872.75 498.922 874.615ZM495.972 874.705C495.972 873.554 495.72 872.568 495.21 871.745C494.614 870.749 493.762 870.252 492.658 870.252C491.515 870.252 490.647 870.75 490.051 871.745C489.54 872.569 489.288 873.571 489.288 874.757C489.288 875.907 489.54 876.894 490.051 877.716C490.666 878.711 491.524 879.208 492.632 879.208C493.718 879.208 494.57 878.701 495.184 877.69C495.708 876.851 495.972 875.854 495.972 874.705Z" fill="black"/>
<path d="M508.162 870.918C507.88 870.868 507.58 870.842 507.266 870.842C506.266 870.842 505.492 871.209 504.948 871.947C504.475 872.597 504.238 873.418 504.238 874.41V880.956H501.396L501.423 872.409C501.423 870.972 501.387 869.662 501.316 868.482H503.792L503.896 870.869H503.975C504.275 870.049 504.748 869.388 505.396 868.893C506.03 868.447 506.714 868.225 507.451 868.225C507.714 868.225 507.951 868.243 508.162 868.275V870.918Z" fill="black"/>
<path d="M520.875 874.128C520.875 874.624 520.841 875.043 520.771 875.385H512.243C512.276 876.617 512.688 877.56 513.48 878.21C514.199 878.791 515.128 879.082 516.269 879.082C517.532 879.082 518.684 878.886 519.72 878.492L520.165 880.416C518.955 880.931 517.525 881.187 515.876 881.187C513.892 881.187 512.335 880.617 511.201 879.48C510.071 878.342 509.504 876.815 509.504 874.899C509.504 873.018 510.031 871.451 511.085 870.202C512.189 868.868 513.681 868.201 515.559 868.201C517.403 868.201 518.799 868.868 519.747 870.202C520.497 871.261 520.875 872.572 520.875 874.128ZM518.164 873.409C518.183 872.587 517.997 871.878 517.612 871.278C517.12 870.507 516.364 870.123 515.347 870.123C514.417 870.123 513.661 870.498 513.084 871.252C512.611 871.852 512.329 872.57 512.243 873.408H518.164V873.409Z" fill="black"/>
<path d="M423.4 853.011C423.4 854.541 422.93 855.693 421.99 856.467C421.119 857.18 419.882 857.538 418.279 857.538C417.484 857.538 416.804 857.504 416.235 857.437V849.076C416.978 848.959 417.778 848.899 418.642 848.899C420.168 848.899 421.319 849.223 422.095 849.871C422.964 850.602 423.4 851.649 423.4 853.011ZM421.927 853.049C421.927 852.057 421.658 851.297 421.119 850.766C420.58 850.237 419.794 849.972 418.758 849.972C418.318 849.972 417.943 850.001 417.632 850.06V856.416C417.804 856.442 418.119 856.454 418.576 856.454C419.646 856.454 420.471 856.164 421.052 855.584C421.634 855.004 421.927 854.159 421.927 853.049Z" fill="black"/>
<path d="M431.212 854.348C431.212 855.291 430.936 856.063 430.384 856.669C429.805 857.291 429.039 857.602 428.081 857.602C427.159 857.602 426.424 857.304 425.876 856.706C425.329 856.11 425.056 855.357 425.056 854.45C425.056 853.501 425.337 852.722 425.903 852.117C426.468 851.513 427.228 851.21 428.185 851.21C429.108 851.21 429.849 851.508 430.411 852.104C430.944 852.684 431.212 853.433 431.212 854.348ZM429.763 854.392C429.763 853.827 429.637 853.342 429.388 852.938C429.095 852.449 428.677 852.204 428.135 852.204C427.573 852.204 427.147 852.449 426.853 852.938C426.603 853.342 426.479 853.835 426.479 854.417C426.479 854.983 426.604 855.467 426.853 855.872C427.156 856.361 427.577 856.605 428.121 856.605C428.655 856.605 429.073 856.357 429.375 855.859C429.633 855.447 429.763 854.958 429.763 854.392Z" fill="black"/>
<path d="M441.687 851.334L439.72 857.462H438.44L437.625 854.801C437.419 854.137 437.251 853.476 437.12 852.821H437.095C436.973 853.495 436.805 854.154 436.589 854.801L435.724 857.462H434.429L432.58 851.334H434.016L434.727 854.247C434.899 854.936 435.04 855.593 435.153 856.214H435.179C435.283 855.702 435.455 855.049 435.697 854.26L436.589 851.335H437.728L438.583 854.198C438.789 854.896 438.957 855.568 439.087 856.215H439.125C439.22 855.585 439.363 854.913 439.552 854.198L440.315 851.335H441.687V851.334Z" fill="black"/>
<path d="M448.931 857.463H447.533V853.953C447.533 852.871 447.112 852.331 446.267 852.331C445.852 852.331 445.517 852.479 445.257 852.776C445 853.074 444.869 853.425 444.869 853.827V857.462H443.472V853.086C443.472 852.548 443.455 851.964 443.421 851.332H444.649L444.715 852.29H444.753C444.916 851.993 445.159 851.747 445.477 851.551C445.856 851.322 446.28 851.206 446.744 851.206C447.331 851.206 447.819 851.391 448.207 851.761C448.689 852.215 448.931 852.892 448.931 853.792V857.463Z" fill="black"/>
<path d="M452.784 857.463H451.388V848.522H452.784V857.463Z" fill="black"/>
<path d="M461.011 854.348C461.011 855.291 460.735 856.063 460.183 856.669C459.604 857.291 458.836 857.602 457.88 857.602C456.956 857.602 456.222 857.304 455.675 856.706C455.128 856.11 454.855 855.357 454.855 854.45C454.855 853.501 455.136 852.722 455.702 852.117C456.267 851.513 457.027 851.21 457.983 851.21C458.907 851.21 459.647 851.508 460.21 852.104C460.743 852.684 461.011 853.433 461.011 854.348ZM459.56 854.392C459.56 853.827 459.435 853.342 459.186 852.938C458.894 852.449 458.475 852.204 457.934 852.204C457.371 852.204 456.944 852.449 456.652 852.938C456.402 853.342 456.278 853.835 456.278 854.417C456.278 854.983 456.403 855.467 456.652 855.872C456.955 856.361 457.376 856.605 457.92 856.605C458.454 856.605 458.871 856.357 459.172 855.859C459.432 855.447 459.56 854.958 459.56 854.392Z" fill="black"/>
<path d="M467.774 857.463H466.519L466.415 856.757H466.376C465.947 857.32 465.335 857.602 464.54 857.602C463.947 857.602 463.467 857.416 463.106 857.047C462.778 856.712 462.614 856.294 462.614 855.799C462.614 855.05 462.934 854.479 463.578 854.084C464.22 853.689 465.124 853.495 466.288 853.504V853.39C466.288 852.583 465.854 852.18 464.983 852.18C464.363 852.18 463.816 852.332 463.344 852.633L463.06 851.739C463.644 851.387 464.366 851.21 465.216 851.21C466.859 851.21 467.683 852.055 467.683 853.745V856.002C467.683 856.614 467.714 857.102 467.774 857.463ZM466.323 855.357V854.412C464.782 854.386 464.011 854.798 464.011 855.647C464.011 855.967 464.099 856.206 464.279 856.366C464.459 856.526 464.688 856.605 464.962 856.605C465.268 856.605 465.555 856.51 465.816 856.322C466.079 856.132 466.24 855.891 466.3 855.596C466.315 855.53 466.323 855.449 466.323 855.357Z" fill="black"/>
<path d="M475.713 857.463H474.473L474.408 856.478H474.369C473.973 857.227 473.299 857.602 472.351 857.602C471.593 857.602 470.963 857.312 470.463 856.732C469.963 856.152 469.713 855.399 469.713 854.475C469.713 853.483 469.984 852.68 470.528 852.066C471.055 851.494 471.7 851.208 472.468 851.208C473.312 851.208 473.903 851.485 474.239 852.04H474.265V848.522H475.664V855.812C475.664 856.408 475.68 856.958 475.713 857.463ZM474.265 854.878V853.856C474.265 853.68 474.252 853.537 474.227 853.427C474.148 853.1 473.979 852.824 473.721 852.602C473.461 852.38 473.148 852.268 472.787 852.268C472.265 852.268 471.857 852.469 471.557 852.874C471.26 853.278 471.109 853.794 471.109 854.424C471.109 855.03 471.252 855.522 471.539 855.9C471.841 856.303 472.249 856.504 472.76 856.504C473.219 856.504 473.585 856.337 473.864 856C474.133 855.689 474.265 855.315 474.265 854.878Z" fill="black"/>
<path d="M487.664 854.348C487.664 855.291 487.388 856.063 486.836 856.669C486.258 857.291 485.492 857.602 484.534 857.602C483.612 857.602 482.878 857.304 482.328 856.706C481.782 856.11 481.508 855.357 481.508 854.45C481.508 853.501 481.79 852.722 482.355 852.117C482.92 851.513 483.68 851.21 484.639 851.21C485.56 851.21 486.303 851.508 486.863 852.104C487.396 852.684 487.664 853.433 487.664 854.348ZM486.216 854.392C486.216 853.827 486.091 853.342 485.842 852.938C485.547 852.449 485.131 852.204 484.587 852.204C484.027 852.204 483.6 852.449 483.306 852.938C483.055 853.342 482.931 853.835 482.931 854.417C482.931 854.983 483.056 855.467 483.306 855.872C483.608 856.361 484.03 856.605 484.574 856.605C485.107 856.605 485.527 856.357 485.828 855.859C486.086 855.447 486.216 854.958 486.216 854.392Z" fill="black"/>
<path d="M495.177 857.463H493.781V853.953C493.781 852.871 493.36 852.331 492.513 852.331C492.099 852.331 491.764 852.479 491.505 852.776C491.247 853.074 491.117 853.425 491.117 853.827V857.462H489.719V853.086C489.719 852.548 489.703 851.964 489.669 851.332H490.896L490.961 852.29H491C491.164 851.993 491.407 851.747 491.724 851.551C492.104 851.322 492.527 851.206 492.992 851.206C493.577 851.206 494.065 851.391 494.453 851.761C494.937 852.215 495.177 852.892 495.177 853.792V857.463Z" fill="black"/>
<path d="M504.582 852.355H503.043V855.332C503.043 856.089 503.316 856.467 503.858 856.467C504.108 856.467 504.316 856.446 504.48 856.403L504.516 857.437C504.24 857.538 503.878 857.589 503.431 857.589C502.879 857.589 502.45 857.425 502.139 857.098C501.827 856.77 501.672 856.219 501.672 855.445V852.355H500.754V851.335H501.672V850.212L503.042 849.809V851.333H504.58V852.355H504.582Z" fill="black"/>
<path d="M511.979 857.463H510.58V853.979C510.58 852.88 510.159 852.33 509.315 852.33C508.667 852.33 508.224 852.649 507.982 853.286C507.94 853.42 507.916 853.583 507.916 853.776V857.461H506.52V848.522H507.916V852.216H507.943C508.383 851.544 509.014 851.208 509.831 851.208C510.41 851.208 510.888 851.393 511.268 851.763C511.742 852.225 511.979 852.911 511.979 853.819V857.463Z" fill="black"/>
<path d="M519.609 854.109C519.609 854.353 519.591 854.559 519.557 854.726H515.367C515.385 855.332 515.585 855.794 515.973 856.114C516.328 856.4 516.785 856.543 517.345 856.543C517.965 856.543 518.531 856.446 519.04 856.253L519.259 857.199C518.663 857.451 517.961 857.577 517.149 857.577C516.176 857.577 515.409 857.298 514.855 856.739C514.297 856.18 514.021 855.43 514.021 854.489C514.021 853.564 514.279 852.795 514.797 852.181C515.339 851.526 516.071 851.198 516.995 851.198C517.899 851.198 518.585 851.526 519.049 852.181C519.424 852.701 519.609 853.345 519.609 854.109ZM518.276 853.757C518.287 853.352 518.195 853.004 518.005 852.71C517.763 852.332 517.393 852.142 516.893 852.142C516.437 852.142 516.065 852.327 515.781 852.697C515.549 852.992 515.412 853.345 515.367 853.757H518.276Z" fill="black"/>
<g filter="url(#filter0_d_1582_2058)">
<rect x="162" y="164" width="124" height="124" rx="23" fill="white"/>
</g>
<path fill-rule="evenodd" clip-rule="evenodd" d="M198.898 199.903H249.681C251.684 199.903 253.308 201.523 253.308 203.521V228.844C253.308 230.842 251.684 232.462 249.681 232.462H220.662V243.315H249.681C257.694 243.315 264.19 236.836 264.19 228.844V203.521C264.19 195.529 257.694 189.05 249.681 189.05H198.898C190.885 189.05 184.389 195.529 184.389 203.521V230.653H195.271V203.521C195.271 201.523 196.895 199.903 198.898 199.903Z" fill="#D9D9D9"/>
<path d="M211.676 215.74C211.676 218.611 209.349 220.939 206.477 220.939C203.606 220.939 201.278 218.611 201.278 215.74C201.278 212.869 203.606 210.541 206.477 210.541C209.349 210.541 211.676 212.869 211.676 215.74Z" fill="#FF9052"/>
<path d="M229.501 215.787C229.501 218.658 227.174 220.986 224.302 220.986C221.431 220.986 219.104 218.658 219.104 215.787C219.104 212.916 221.431 210.588 224.302 210.588C227.174 210.588 229.501 212.916 229.501 215.787Z" fill="#FF9052"/>
<path d="M247.326 215.74C247.326 218.611 244.998 220.939 242.127 220.939C239.256 220.939 236.928 218.611 236.928 215.74C236.928 212.869 239.256 210.541 242.127 210.541C244.998 210.541 247.326 212.869 247.326 215.74Z" fill="#FF9052"/>
<path fill-rule="evenodd" clip-rule="evenodd" d="M220.782 232.499L235.265 232.424L213.664 254.941L213.679 254.955L211.995 256.68L206.049 262.878L205.995 262.825L205.881 262.941L190.109 247.54L197.907 239.554L206.015 247.471L220.782 232.499Z" fill="#FF9052"/>
<path d="M1009.57 733.505C1018.27 758.735 1004.86 786.235 979.628 794.927C954.398 803.619 926.898 790.212 918.206 764.982C909.514 739.751 922.921 712.251 948.151 703.559C973.381 694.867 1000.88 708.274 1009.57 733.505Z" fill="#D9D9D9" fill-opacity="0.15"/>
<path d="M1166.35 679.959C1175.04 705.189 1161.63 732.689 1136.4 741.381C1111.17 750.073 1083.67 736.666 1074.98 711.436C1066.29 686.205 1079.69 658.706 1104.92 650.013C1130.15 641.321 1157.65 654.728 1166.35 679.959Z" fill="#D9D9D9" fill-opacity="0.15"/>
<path d="M1322.83 625.584C1331.53 650.814 1318.12 678.314 1292.89 687.006C1267.66 695.698 1240.16 682.291 1231.47 657.061C1222.77 631.83 1236.18 604.331 1261.41 595.638C1286.64 586.946 1314.14 600.353 1322.83 625.584Z" fill="#D9D9D9" fill-opacity="0.15"/>
<path fill-rule="evenodd" clip-rule="evenodd" d="M1295.58 479.29L849.35 633.022C831.747 639.087 822.379 658.235 828.428 675.792L910.565 914.208L814.943 947.151L732.806 708.734C708.613 638.508 746.082 561.914 816.495 537.656L1262.73 383.924C1333.14 359.665 1409.84 396.93 1434.03 467.156L1510.69 689.677C1534.89 759.903 1497.42 836.498 1427 860.756L1208.52 936.027L1145.71 1071.94L1145.89 1072.03L1136.3 1092.29L1102.82 1164.74L1102.18 1164.44L1101.54 1165.81L916.324 1078.22L960.674 984.439L1055.88 1029.46L1139.64 854.627L1139.16 853.237L1202.63 831.369L1267.36 808.696L1267.15 809.142L1394.15 765.39C1411.75 759.325 1421.12 740.176 1415.07 722.62L1338.41 500.098C1332.36 482.542 1313.19 473.226 1295.58 479.29Z" fill="#D9D9D9" fill-opacity="0.15"/>
<path d="M57.3457 30.9587C66.0378 56.1891 52.6309 83.6887 27.4005 92.3809C2.17004 101.073 -25.3296 87.6661 -34.0218 62.4357C-42.7139 37.2052 -29.307 9.70559 -4.07654 1.01345C21.1539 -7.67868 48.6535 5.72825 57.3457 30.9587Z" fill="#D9D9D9" fill-opacity="0.15"/>
<path d="M213.833 -23.4163C222.526 1.81409 209.119 29.3137 183.888 38.0059C158.658 46.698 131.158 33.2911 122.466 8.06067C113.774 -17.1698 127.181 -44.6694 152.411 -53.3615C177.642 -62.0537 205.141 -48.6468 213.833 -23.4163Z" fill="#D9D9D9" fill-opacity="0.15"/>
<path fill-rule="evenodd" clip-rule="evenodd" d="M186.584 -169.71L-259.65 -15.9778C-277.253 -9.91325 -286.621 9.23539 -280.572 26.7919L-198.435 265.208L-294.057 298.151L-376.194 59.7344C-400.387 -10.4915 -362.918 -87.0861 -292.505 -111.344L153.729 -265.076C224.143 -289.335 300.837 -252.07 325.031 -181.844L401.692 40.6774C425.885 110.903 388.416 187.498 318.003 211.756L99.5152 287.027L36.7066 422.944L36.8863 423.029L27.3041 443.291L-6.17599 515.742L-6.81551 515.438L-7.46296 516.807L-192.676 429.217L-148.326 335.439L-53.118 380.465L30.6361 205.627L30.1572 204.237L93.631 182.369L158.356 159.696L158.15 160.142L285.148 116.39C302.751 110.325 312.118 91.1765 306.07 73.62L229.409 -148.902C223.361 -166.458 204.187 -175.774 186.584 -169.71Z" fill="#D9D9D9" fill-opacity="0.15"/>
<rect x="1281" width="428" height="1080" fill="white"/>
</g>
<defs>
<filter id="filter0_d_1582_2058" x="148" y="152" width="154" height="154" filterUnits="userSpaceOnUse" color-interpolation-filters="sRGB">
<feFlood flood-opacity="0" result="BackgroundImageFix"/>
<feColorMatrix in="SourceAlpha" type="matrix" values="0 0 0 0 0 0 0 0 0 0 0 0 0 0 0 0 0 0 127 0" result="hardAlpha"/>
<feOffset dx="1" dy="3"/>
<feGaussianBlur stdDeviation="7.5"/>
<feComposite in2="hardAlpha" operator="out"/>
<feColorMatrix type="matrix" values="0 0 0 0 0 0 0 0 0 0 0 0 0 0 0 0 0 0 0.25 0"/>
<feBlend mode="normal" in2="BackgroundImageFix" result="effect1_dropShadow_1582_2058"/>
<feBlend mode="normal" in="SourceGraphic" in2="effect1_dropShadow_1582_2058" result="shape"/>
</filter>
<linearGradient id="paint0_linear_1582_2058" x1="191.026" y1="880.677" x2="169.216" y2="858.338" gradientUnits="userSpaceOnUse">
<stop stop-color="#00A0FF"/>
<stop offset="0.0066" stop-color="#00A1FF"/>
<stop offset="0.2601" stop-color="#00BEFF"/>
<stop offset="0.5122" stop-color="#00D2FF"/>
<stop offset="0.7604" stop-color="#00DFFF"/>
<stop offset="1" stop-color="#00E3FF"/>
</linearGradient>
<linearGradient id="paint1_linear_1582_2058" x1="207.05" y1="865.998" x2="174.832" y2="865.998" gradientUnits="userSpaceOnUse">
<stop stop-color="#FFE000"/>
<stop offset="0.4087" stop-color="#FFBD00"/>
<stop offset="0.7754" stop-color="#FFA500"/>
<stop offset="1" stop-color="#FF9C00"/>
</linearGradient>
<linearGradient id="paint2_linear_1582_2058" x1="195.057" y1="863.015" x2="165.48" y2="832.721" gradientUnits="userSpaceOnUse">
<stop stop-color="#FF3A44"/>
<stop offset="1" stop-color="#C31162"/>
</linearGradient>
<linearGradient id="paint3_linear_1582_2058" x1="171.716" y1="891.771" x2="184.924" y2="878.243" gradientUnits="userSpaceOnUse">
<stop stop-color="#32A071"/>
<stop offset="0.0685" stop-color="#2DA771"/>
<stop offset="0.4762" stop-color="#15CF74"/>
<stop offset="0.8009" stop-color="#06E775"/>
<stop offset="1" stop-color="#00F076"/>
</linearGradient>
<clipPath id="clip0_1582_2058">
<rect width="1920" height="1080" fill="white"/>
</clipPath>
</defs>
</svg>
