<svg width="348" height="46" viewBox="0 0 348 46" fill="none" xmlns="http://www.w3.org/2000/svg">
<rect width="348" height="46" rx="10" transform="matrix(-1 0 0 1 348 0)" fill="#FF9052"/>
<path d="M142.754 15.68V18.38C142.754 21.98 141.234 25.54 138.014 26.94L139.594 29.14C143.274 27.44 144.914 23.14 144.914 18.38V15.68H142.754ZM143.274 15.68V18.38C143.274 22.94 144.914 27.06 148.494 28.7L150.054 26.56C146.894 25.2 145.434 21.8 145.434 18.38V15.68H143.274ZM150.934 14.24V32.82H153.614V14.24H150.934ZM160.472 16.16V17.32C160.472 19.64 159.172 22.04 156.072 23.04L157.452 25.1C160.992 23.96 162.652 20.82 162.652 17.32V16.16H160.472ZM161.012 16.16V17.32C161.012 20.64 162.612 23.66 166.072 24.78L167.432 22.72C164.432 21.76 163.172 19.5 163.172 17.32V16.16H161.012ZM156.792 15.34V17.46H166.792V15.34H156.792ZM168.272 14.26V25.42H170.932V14.26H168.272ZM170.192 18.74V20.92H173.392V18.74H170.192ZM158.572 26.22V28.36H168.272V32.78H170.932V26.22H158.572ZM186.351 14.26V32.78H188.991V14.26H186.351ZM188.391 21.48V23.7H191.671V21.48H188.391ZM174.391 17V19.12H185.171V17H174.391ZM179.811 20.16C177.111 20.16 175.111 22 175.111 24.58C175.111 27.16 177.111 29 179.811 29C182.511 29 184.511 27.16 184.511 24.58C184.511 22 182.511 20.16 179.811 20.16ZM179.811 22.32C181.071 22.32 181.971 23.16 181.971 24.58C181.971 26 181.071 26.84 179.811 26.84C178.551 26.84 177.651 26 177.651 24.58C177.651 23.16 178.551 22.32 179.811 22.32ZM178.471 14.56V17.8H181.131V14.56H178.471ZM205.349 14.26V32.78H208.029V14.26H205.349ZM199.889 16.18V16.66C199.889 21.62 197.969 24.98 192.649 27.54L194.029 29.66C200.609 26.48 202.529 21.84 202.529 16.18H199.889ZM193.629 16.18V18.28H201.149V16.18H193.629Z" fill="white"/>
</svg>
