<svg width="22" height="22" viewBox="0 0 22 22" fill="none" xmlns="http://www.w3.org/2000/svg">
<path fill-rule="evenodd" clip-rule="evenodd" d="M13.4204 11.0005L20.9551 3.46582C21.1037 3.31725 21.2217 3.14085 21.3021 2.94671C21.3826 2.75256 21.4241 2.54446 21.4241 2.33429C21.4242 2.12412 21.3829 1.91599 21.3025 1.7218C21.2221 1.5276 21.1043 1.35114 20.9557 1.20248C20.8072 1.05383 20.6308 0.935889 20.4366 0.855403C20.2425 0.774918 20.0344 0.73346 19.8242 0.733399C19.614 0.733337 19.4059 0.774671 19.2117 0.855042C19.0175 0.935414 18.8411 1.05325 18.6924 1.20182L11.1577 8.73782L3.62173 1.20182C3.31821 0.918318 2.91641 0.763837 2.50114 0.77098C2.08588 0.778122 1.68963 0.946328 1.39603 1.2401C1.10244 1.53386 0.934465 1.93021 0.927568 2.34548C0.92067 2.76075 1.07539 3.16246 1.35906 3.46582L8.89506 11.0005L1.35906 18.5351C1.13634 18.7594 0.984905 19.0445 0.923795 19.3546C0.862686 19.6647 0.894635 19.986 1.01562 20.278C1.13661 20.57 1.34123 20.8197 1.60376 20.9957C1.86629 21.1717 2.175 21.2661 2.49106 21.2672C2.9004 21.2672 3.30973 21.1112 3.62173 20.7992L11.1577 13.2631L18.6924 20.7992C18.8408 20.948 19.0171 21.0662 19.2112 21.1468C19.4054 21.2274 19.6135 21.2689 19.8237 21.2689C20.0339 21.2689 20.2421 21.2274 20.4362 21.1468C20.6303 21.0662 20.8067 20.948 20.9551 20.7992C21.1038 20.6506 21.2218 20.4741 21.3024 20.2799C21.3829 20.0856 21.4243 19.8774 21.4243 19.6672C21.4243 19.4569 21.3829 19.2487 21.3024 19.0544C21.2218 18.8602 21.1038 18.6837 20.9551 18.5351L13.4204 11.0005Z" fill="#FF9052"/>
</svg>
