<svg width="75" height="32" viewBox="0 0 75 32" fill="none" xmlns="http://www.w3.org/2000/svg">
<path d="M4.30156 10.14H10.2616V8H1.68156V20.34H3.24156C6.44156 20.34 8.96156 20.24 11.7416 19.74L11.4816 17.56C9.10156 17.96 6.92156 18.1 4.30156 18.14V10.14ZM18.0616 13.1H15.3816V6.3H12.7416V24.76H15.3816V15.28H18.0616V13.1ZM27.68 6.66C23.62 6.66 21.02 8.02 21.02 10.24C21.02 12.48 23.62 13.82 27.68 13.82C31.74 13.82 34.36 12.48 34.36 10.24C34.36 8.02 31.74 6.66 27.68 6.66ZM27.68 8.68C30.2 8.68 31.64 9.2 31.64 10.24C31.64 11.28 30.2 11.8 27.68 11.8C25.18 11.8 23.74 11.28 23.74 10.24C23.74 9.2 25.18 8.68 27.68 8.68ZM21.3 18.26V24.5H34.02V18.26H21.3ZM31.42 20.32V22.44H23.88V20.32H31.42ZM19.36 14.88V16.96H36V14.88H19.36Z" fill="#FF9052"/>
<path fill-rule="evenodd" clip-rule="evenodd" d="M55.0578 25.5168C55.4514 25.9104 56.0896 25.9104 56.4832 25.5168L64.4929 17.5071C64.5195 17.4805 64.5443 17.4528 64.5673 17.4242L65.2258 16.7656L56.5045 8.04441C56.1109 7.65079 55.4727 7.65079 55.0791 8.0444C54.6855 8.43802 54.6855 9.07619 55.0791 9.4698L62.3793 16.7699L55.0578 24.0914C54.6642 24.485 54.6642 25.1232 55.0578 25.5168Z" fill="#FF9052"/>
</svg>
