<svg width="348" height="107" viewBox="0 0 348 107" fill="none" xmlns="http://www.w3.org/2000/svg">
<rect x="30" y="55" width="124" height="13" fill="url(#paint0_linear_1107_1448)"/>
<path d="M121.264 6.524V20.668H123.422V6.524H121.264ZM122.824 12.764V14.558H126.906V12.764H122.824ZM108.654 21.994V29.716H123.422V21.994H108.654ZM121.316 23.736V27.974H110.76V23.736H121.316ZM105.248 8.994V10.762H119.132V8.994H105.248ZM112.19 11.906C108.81 11.906 106.548 13.57 106.548 16.118C106.548 18.666 108.81 20.278 112.19 20.278C115.544 20.278 117.806 18.666 117.806 16.118C117.806 13.57 115.544 11.906 112.19 11.906ZM112.19 13.57C114.296 13.57 115.752 14.558 115.752 16.118C115.752 17.652 114.296 18.64 112.19 18.64C110.032 18.64 108.602 17.652 108.602 16.118C108.602 14.558 110.032 13.57 112.19 13.57ZM111.098 6.316V9.904H113.256V6.316H111.098ZM133.04 9.332V9.488C133.04 14.402 132.364 19.316 129.14 23.502L130.83 24.49C134.184 19.914 134.86 14.376 134.86 9.332H133.04ZM129.634 9.332V11.126H134.106V9.332H129.634ZM138.214 9.332V9.514C138.214 14.22 137.928 20.33 134.34 25.01L136.056 25.998C139.748 20.902 140.06 14.298 140.06 9.332H138.214ZM135.64 9.332V11.126H139.358V9.332H135.64ZM147.08 6.524V30.028H149.16V6.524H147.08ZM138.968 15.754V17.522H143.18V15.754H138.968ZM142.738 7.122V28.832H144.766V7.122H142.738ZM156.958 25.27C156.802 25.8767 156.603 26.5353 156.36 27.246C156.118 27.9567 155.858 28.6587 155.58 29.352C155.303 30.0627 155.017 30.73 154.722 31.354H152.72C152.894 30.678 153.058 29.9587 153.214 29.196C153.388 28.4507 153.544 27.714 153.682 26.986C153.821 26.258 153.934 25.5907 154.02 24.984H156.776L156.958 25.27ZM168.066 22.436V24.256H169.86C174.332 24.256 177.166 24.1 180.546 23.476L180.312 21.708C177.036 22.332 174.228 22.436 169.86 22.436H168.066ZM168.066 8.76V23.112H170.198V10.528H178.752V8.76H168.066ZM184.108 6.524V30.08H186.266V6.524H184.108ZM177.374 15.026V16.82H184.992V15.026H177.374ZM198.66 7.772V17.392H209.476V7.772H198.66ZM207.396 9.488V15.65H200.766V9.488H207.396ZM214.728 6.524V18.562H216.886V6.524H214.728ZM208.852 11.568V13.336H215.378V11.568H208.852ZM201.754 19.758V21.474H214.754V23.814H201.806V28.962H203.912V25.426H216.886V19.758H201.754ZM201.806 28V29.716H217.744V28H201.806ZM238.594 6.498V30.054H240.752V6.498H238.594ZM222.838 22.592V24.386H224.788C228.818 24.386 232.354 24.23 236.618 23.528L236.384 21.76C232.224 22.436 228.714 22.592 224.788 22.592H222.838ZM222.786 8.708V10.476H231.47V15.338H222.838V23.268H224.996V17.106H233.654V8.708H222.786ZM33.1699 53.614V56.37H54.9319V53.614H33.1699ZM42.2959 50.234V54.862H45.7539V50.234H42.2959ZM35.7959 62.142V64.898H52.4879V62.142H35.7959ZM35.7959 57.904V63.078H39.2539V57.904H35.7959ZM44.0639 41.836C38.8119 41.836 35.3539 43.76 35.3539 46.802C35.3539 49.896 38.8119 51.768 44.0639 51.768C49.2899 51.768 52.7739 49.896 52.7739 46.802C52.7739 43.76 49.2899 41.836 44.0639 41.836ZM44.0639 44.592C47.3139 44.592 49.2119 45.346 49.2119 46.802C49.2119 48.284 47.3139 49.012 44.0639 49.012C40.8139 49.012 38.9159 48.284 38.9159 46.802C38.9159 45.346 40.8139 44.592 44.0639 44.592ZM72.5319 41.212V65.366H75.9639V41.212H72.5319ZM75.1839 50.312V53.172H79.4479V50.312H75.1839ZM58.0759 56.942V59.776H60.1039C64.2899 59.776 67.5919 59.62 71.2319 58.97L70.8939 56.188C67.3579 56.812 64.1859 56.942 60.1039 56.942H58.0759ZM58.0499 43.266V46.022H65.6939V49.844H58.0759V58.008H61.5079V52.6H69.1259V43.266H58.0499ZM97.5418 41.264V58.554H101.026V41.264H97.5418ZM84.9838 62.142V64.898H101.624V62.142H84.9838ZM84.9838 56.812V63.26H88.4418V56.812H84.9838ZM87.9218 42.772C84.2298 42.772 81.3698 45.32 81.3698 48.882C81.3698 52.418 84.2298 54.992 87.9218 54.992C91.6138 54.992 94.4478 52.418 94.4478 48.882C94.4478 45.32 91.6138 42.772 87.9218 42.772ZM87.9218 45.762C89.6898 45.762 91.0678 46.906 91.0678 48.882C91.0678 50.832 89.6898 51.976 87.9218 51.976C86.1278 51.976 84.7498 50.832 84.7498 48.882C84.7498 46.906 86.1278 45.762 87.9218 45.762ZM114.544 50.104V52.886H118.496V50.104H114.544ZM122.318 41.238V65.314H125.62V41.238H122.318ZM117.404 41.602V64.222H120.654V41.602H117.404ZM110.332 42.928C107.16 42.928 105.132 46.23 105.132 51.664C105.132 57.124 107.16 60.426 110.332 60.426C113.53 60.426 115.584 57.124 115.584 51.664C115.584 46.23 113.53 42.928 110.332 42.928ZM110.332 46.178C111.684 46.178 112.438 47.998 112.438 51.664C112.438 55.356 111.684 57.15 110.332 57.15C109.032 57.15 108.278 55.356 108.278 51.664C108.278 47.998 109.032 46.178 110.332 46.178ZM140.984 48.752V51.534H147.328V48.752H140.984ZM134.432 43.084V46.568C134.432 51.144 132.612 55.798 128.504 57.696L130.662 60.478C135.186 58.216 137.24 52.626 137.24 46.568V43.084H134.432ZM135.16 43.084V46.568C135.16 52.574 137.058 57.878 141.582 60.062L143.636 57.306C139.658 55.538 137.916 51.144 137.916 46.568V43.084H135.16ZM145.612 41.212V65.366H149.044V41.212H145.612ZM170.304 56.344C165.286 56.344 162.114 57.982 162.114 60.686C162.114 63.364 165.286 64.976 170.304 64.976C175.296 64.976 178.494 63.364 178.494 60.686C178.494 57.982 175.296 56.344 170.304 56.344ZM170.304 58.034C173.996 58.034 176.336 59.048 176.336 60.686C176.336 62.298 173.996 63.312 170.304 63.312C166.612 63.312 164.246 62.298 164.246 60.686C164.246 59.048 166.612 58.034 170.304 58.034ZM162.296 42.694V44.462H177.428V42.694H162.296ZM159.774 52.47V54.212H180.99V52.47H159.774ZM168.484 47.946V52.964H170.616V47.946H168.484ZM176.18 42.694V44.696C176.18 46.542 176.18 48.258 175.53 50.676L177.662 50.936C178.286 48.492 178.286 46.594 178.286 44.696V42.694H176.18ZM183.666 55.434V57.202H204.986V55.434H183.666ZM193.182 56.266V65.028H195.314V56.266H193.182ZM186.344 42.46V52.626H202.256V42.46H200.124V45.684H188.502V42.46H186.344ZM188.502 47.426H200.124V50.884H188.502V47.426ZM214.311 45.528V47.296H225.959V45.528H214.311ZM220.135 48.856C217.223 48.856 215.091 51.066 215.091 54.238C215.091 57.384 217.223 59.594 220.135 59.594C223.073 59.594 225.205 57.384 225.205 54.238C225.205 51.066 223.073 48.856 220.135 48.856ZM220.135 50.702C221.955 50.702 223.281 52.158 223.281 54.238C223.281 56.318 221.955 57.774 220.135 57.774C218.341 57.774 217.041 56.318 217.041 54.238C217.041 52.158 218.341 50.702 220.135 50.702ZM232.173 41.524V65.028H234.253V41.524H232.173ZM228.429 51.404V53.198H232.875V51.404H228.429ZM227.155 42.044V63.884H229.183V42.044H227.155ZM219.095 42.2V46.62H221.227V42.2H219.095ZM238.281 60.244V62.038H259.575V60.244H238.281ZM247.797 54.628V60.764H249.955V54.628H247.797ZM240.777 43.188V55.2H257.027V43.188H254.895V47.374H242.909V43.188H240.777ZM242.909 49.116H254.895V53.432H242.909V49.116ZM271.455 49.922V51.716H275.953V49.922H271.455ZM267.061 43.734V48.206C267.061 52.236 265.137 56.448 261.913 58.346L263.265 59.984C266.697 57.878 268.751 53.12 268.751 48.206V43.734H267.061ZM267.477 43.734V48.128C267.477 52.704 269.375 57.384 272.755 59.464L274.003 57.774C270.909 55.902 269.141 51.898 269.141 48.128V43.734H267.477ZM280.087 41.524V65.028H282.167V41.524H280.087ZM275.329 42.018V63.858H277.357V42.018H275.329ZM291.317 53.614V60.66H293.449V53.614H291.317ZM300.001 53.614V60.66H302.159V53.614H300.001ZM286.117 60.244V62.038H307.411V60.244H286.117ZM296.725 43.006C291.733 43.006 288.171 45.372 288.171 49.064C288.171 52.73 291.733 55.096 296.725 55.096C301.691 55.096 305.253 52.73 305.253 49.064C305.253 45.372 301.691 43.006 296.725 43.006ZM296.725 44.722C300.495 44.722 303.173 46.438 303.173 49.064C303.173 51.664 300.495 53.38 296.725 53.38C292.955 53.38 290.251 51.664 290.251 49.064C290.251 46.438 292.955 44.722 296.725 44.722ZM313.285 57.488H311.335L310.685 44.436H313.935L313.285 57.488ZM310.503 61.466C310.503 60.79 310.677 60.3133 311.023 60.036C311.37 59.7587 311.795 59.62 312.297 59.62C312.783 59.62 313.199 59.7587 313.545 60.036C313.892 60.3133 314.065 60.79 314.065 61.466C314.065 62.142 313.892 62.6273 313.545 62.922C313.199 63.2167 312.783 63.364 312.297 63.364C311.795 63.364 311.37 63.2167 311.023 62.922C310.677 62.6273 310.503 62.142 310.503 61.466Z" fill="black"/>
<path d="M43.6885 90.864V91.952H48.1045V90.864H43.6885ZM43.6885 94.192V95.296H48.1045V94.192H43.6885ZM41.0485 89.632C38.9045 89.632 37.3205 91.072 37.3205 93.072C37.3205 95.088 38.9045 96.512 41.0485 96.512C43.1765 96.512 44.7765 95.088 44.7765 93.072C44.7765 91.072 43.1765 89.632 41.0485 89.632ZM41.0485 90.768C42.4565 90.768 43.5125 91.712 43.5125 93.072C43.5125 94.432 42.4565 95.376 41.0485 95.376C39.6405 95.376 38.6005 94.432 38.6005 93.072C38.6005 91.712 39.6405 90.768 41.0485 90.768ZM47.6725 88.784V97.344H49.0005V88.784H47.6725ZM44.2485 97.68C41.2565 97.68 39.4165 98.704 39.4165 100.448C39.4165 102.208 41.2565 103.216 44.2485 103.216C47.2245 103.216 49.0645 102.208 49.0645 100.448C49.0645 98.704 47.2245 97.68 44.2485 97.68ZM44.2485 98.736C46.4245 98.736 47.7525 99.376 47.7525 100.448C47.7525 101.536 46.4245 102.176 44.2485 102.176C42.0565 102.176 40.7285 101.536 40.7285 100.448C40.7285 99.376 42.0565 98.736 44.2485 98.736ZM55.6873 89.888C53.5753 89.888 52.0872 91.856 52.0872 94.928C52.0872 98.016 53.5753 99.984 55.6873 99.984C57.7833 99.984 59.2873 98.016 59.2873 94.928C59.2873 91.856 57.7833 89.888 55.6873 89.888ZM55.6873 91.088C57.0793 91.088 58.0233 92.592 58.0233 94.928C58.0233 97.28 57.0793 98.816 55.6873 98.816C54.2953 98.816 53.3513 97.28 53.3513 94.928C53.3513 92.592 54.2953 91.088 55.6873 91.088ZM62.4233 88.768V103.264H63.7353V88.768H62.4233ZM58.8553 94.288V95.376H62.9993V94.288H58.8553ZM68.966 100.32C68.87 100.693 68.7473 101.099 68.598 101.536C68.4487 101.973 68.2887 102.405 68.118 102.832C67.9473 103.269 67.7713 103.68 67.59 104.064H66.358C66.4647 103.648 66.566 103.205 66.662 102.736C66.7687 102.277 66.8647 101.824 66.95 101.376C67.0353 100.928 67.1047 100.517 67.158 100.144H68.854L68.966 100.32ZM78.6493 90.848V93.2C78.6493 95.648 76.9053 98.4 74.8413 99.408L75.6093 100.464C77.8653 99.312 79.7053 96.208 79.7053 93.2V90.848H78.6493ZM78.8893 90.848V93.2C78.8893 96.064 80.6333 98.976 82.9213 100.112L83.6733 99.056C81.5773 98.064 79.9453 95.488 79.9453 93.2V90.848H78.8893ZM75.3533 90.256V91.376H83.1453V90.256H75.3533ZM84.8573 88.784V103.248H86.2013V88.784H84.8573ZM85.8813 94.624V95.744H88.5693V94.624H85.8813ZM95.96 89.76V90.336C95.96 93.024 93.72 95.152 90.008 96.176L90.536 97.216C94.744 96.064 97.352 93.44 97.352 89.76H95.96ZM90.744 89.76V90.832H96.776V89.76H90.744ZM92.04 98.064V99.136H100.36V103.216H101.688V98.064H92.04ZM100.36 88.784V97.408H101.688V88.784H100.36ZM96.76 91.36V92.448H100.632V91.36H96.76ZM96.616 94.432V95.52H100.536V94.432H96.616ZM104.503 95.664V96.736H117.575V95.664H104.503ZM111.031 97.984C107.943 97.984 106.071 98.944 106.071 100.608C106.071 102.272 107.943 103.216 111.031 103.216C114.119 103.216 115.991 102.272 115.991 100.608C115.991 98.944 114.119 97.984 111.031 97.984ZM111.031 99.04C113.303 99.04 114.647 99.6 114.647 100.608C114.647 101.6 113.303 102.176 111.031 102.176C108.775 102.176 107.415 101.6 107.415 100.608C107.415 99.6 108.775 99.04 111.031 99.04ZM110.183 90.096V90.528C110.183 92.16 107.831 93.456 105.239 93.744L105.719 94.784C108.711 94.432 111.367 92.848 111.367 90.528V90.096H110.183ZM110.743 90.096V90.528C110.743 92.848 113.383 94.432 116.375 94.784L116.855 93.744C114.263 93.456 111.911 92.16 111.911 90.528V90.096H110.743ZM105.703 89.52V90.592H116.407V89.52H105.703ZM133.89 88.768V103.264H135.218V88.768H133.89ZM127.586 89.888C125.458 89.888 123.922 91.856 123.922 94.928C123.922 98.016 125.458 99.984 127.586 99.984C129.73 99.984 131.266 98.016 131.266 94.928C131.266 91.856 129.73 89.888 127.586 89.888ZM127.586 91.088C129.01 91.088 129.986 92.592 129.986 94.928C129.986 97.28 129.01 98.816 127.586 98.816C126.178 98.816 125.186 97.28 125.186 94.928C125.186 92.592 126.178 91.088 127.586 91.088ZM149.105 88.784V103.248H150.385V88.784H149.105ZM143.841 93.968V95.072H146.609V93.968H143.841ZM146.209 89.12V102.512H147.457V89.12H146.209ZM141.057 91.024V92.864C141.057 95.52 139.937 98.16 137.921 99.376L138.737 100.368C140.865 99.024 142.081 96.032 142.081 92.864V91.024H141.057ZM141.329 91.024V92.864C141.329 95.888 142.497 98.736 144.609 100.016L145.425 99.04C143.441 97.888 142.353 95.376 142.353 92.864V91.024H141.329ZM138.321 90.464V91.568H144.929V90.464H138.321ZM154.591 93.12V94.208H164.415V93.12H154.591ZM152.815 96.144V97.232H165.935V96.144H152.815ZM154.591 89.312V93.664H155.903V89.312H154.591ZM154.495 101.808V102.896H164.495V101.808H154.495ZM154.495 98.672V102.096H155.807V98.672H154.495ZM171.69 97.312V98.384H184.762V97.312H171.69ZM177.578 95.776V97.792H178.89V95.776H177.578ZM173.386 101.872V102.928H183.322V101.872H173.386ZM173.386 99.328V102.448H174.714V99.328H173.386ZM172.378 90.112V91.152H184.01V90.112H172.378ZM178.234 91.776C175.274 91.776 173.562 92.544 173.562 93.984C173.562 95.408 175.274 96.176 178.234 96.176C181.194 96.176 182.906 95.408 182.906 93.984C182.906 92.544 181.194 91.776 178.234 91.776ZM178.234 92.752C180.362 92.752 181.562 93.184 181.562 93.984C181.562 94.768 180.362 95.2 178.234 95.2C176.09 95.2 174.906 94.768 174.906 93.984C174.906 93.184 176.09 92.752 178.234 92.752ZM177.578 88.624V90.688H178.89V88.624H177.578ZM189.993 90.848V93.2C189.993 95.648 188.249 98.4 186.185 99.408L186.953 100.464C189.209 99.312 191.049 96.208 191.049 93.2V90.848H189.993ZM190.233 90.848V93.2C190.233 96.064 191.977 98.976 194.265 100.112L195.017 99.056C192.921 98.064 191.289 95.488 191.289 93.2V90.848H190.233ZM186.697 90.256V91.376H194.489V90.256H186.697ZM196.201 88.784V103.248H197.545V88.784H196.201ZM197.225 94.624V95.744H199.913V94.624H197.225ZM211.78 97.904C208.692 97.904 206.74 98.912 206.74 100.576C206.74 102.224 208.692 103.216 211.78 103.216C214.852 103.216 216.82 102.224 216.82 100.576C216.82 98.912 214.852 97.904 211.78 97.904ZM211.78 98.944C214.052 98.944 215.492 99.568 215.492 100.576C215.492 101.568 214.052 102.192 211.78 102.192C209.508 102.192 208.052 101.568 208.052 100.576C208.052 99.568 209.508 98.944 211.78 98.944ZM206.852 89.504V90.592H216.164V89.504H206.852ZM205.3 95.52V96.592H218.356V95.52H205.3ZM210.66 92.736V95.824H211.972V92.736H210.66ZM215.396 89.504V90.736C215.396 91.872 215.396 92.928 214.996 94.416L216.308 94.576C216.692 93.072 216.692 91.904 216.692 90.736V89.504H215.396ZM220.003 97.344V98.432H233.123V97.344H220.003ZM225.859 97.856V103.248H227.171V97.856H225.859ZM221.651 89.36V95.616H231.443V89.36H230.131V91.344H222.979V89.36H221.651ZM222.979 92.416H230.131V94.544H222.979V92.416ZM244.53 88.784V103.248H245.858V88.784H244.53ZM245.538 94.72V95.84H248.226V94.72H245.538ZM234.658 91.088V92.176H243.186V91.088H234.658ZM238.978 93.376C236.946 93.376 235.458 94.752 235.458 96.704C235.458 98.656 236.946 100.032 238.978 100.032C241.026 100.032 242.498 98.656 242.498 96.704C242.498 94.752 241.026 93.376 238.978 93.376ZM238.978 94.48C240.29 94.48 241.234 95.392 241.234 96.704C241.234 98 240.29 98.928 238.978 98.928C237.666 98.928 236.722 98 236.722 96.704C236.722 95.392 237.666 94.48 238.978 94.48ZM238.29 88.96V91.584H239.618V88.96H238.29ZM253.28 90.848V93.2C253.28 95.696 251.536 98.416 249.44 99.408L250.208 100.464C252.512 99.328 254.352 96.256 254.352 93.2V90.848H253.28ZM253.536 90.848V93.2C253.536 96.208 255.392 99.024 257.728 100.112L258.48 99.056C256.352 98.144 254.608 95.648 254.608 93.2V90.848H253.536ZM249.92 90.256V91.376H258V90.256H249.92ZM259.952 88.784V103.248H261.28V88.784H259.952ZM268.891 90.224V99.584H275.531V90.224H268.891ZM274.235 91.296V98.512H270.187V91.296H274.235ZM278.107 88.784V103.248H279.451V88.784H278.107ZM279.131 94.56V95.68H281.819V94.56H279.131ZM288.746 93.952V95.056H291.514V93.952H288.746ZM286.042 90.144V92.896C286.042 95.376 284.858 97.968 282.874 99.136L283.706 100.144C285.818 98.848 287.082 95.92 287.082 92.896V90.144H286.042ZM286.298 90.144V92.848C286.298 95.664 287.466 98.544 289.546 99.824L290.314 98.784C288.41 97.632 287.322 95.168 287.322 92.848V90.144H286.298ZM294.058 88.784V103.248H295.338V88.784H294.058ZM291.13 89.088V102.528H292.378V89.088H291.13ZM300.969 96.224V100.56H302.281V96.224H300.969ZM306.313 96.224V100.56H307.641V96.224H306.313ZM297.769 100.304V101.408H310.873V100.304H297.769ZM304.297 89.696C301.225 89.696 299.033 91.152 299.033 93.424C299.033 95.68 301.225 97.136 304.297 97.136C307.353 97.136 309.545 95.68 309.545 93.424C309.545 91.152 307.353 89.696 304.297 89.696ZM304.297 90.752C306.617 90.752 308.265 91.808 308.265 93.424C308.265 95.024 306.617 96.08 304.297 96.08C301.977 96.08 300.313 95.024 300.313 93.424C300.313 91.808 301.977 90.752 304.297 90.752Z" fill="#4F4F4F"/>
<defs>
<linearGradient id="paint0_linear_1107_1448" x1="154" y1="68" x2="30" y2="68" gradientUnits="userSpaceOnUse">
<stop stop-color="#FF9052"/>
<stop offset="1" stop-color="#FF9052"/>
</linearGradient>
</defs>
</svg>
