<svg width="348" height="107" viewBox="0 0 348 107" fill="none" xmlns="http://www.w3.org/2000/svg">
<rect x="34" y="55" width="280" height="13" fill="url(#paint0_linear_1107_1284)"/>
<path d="M112.704 6.524V30.028H114.862V6.524H112.704ZM114.342 16.17V17.99H118.71V16.17H114.342ZM96.6622 10.268V12.036H110.52V10.268H96.6622ZM103.682 13.986C100.38 13.986 97.9622 16.222 97.9622 19.394C97.9622 22.566 100.38 24.802 103.682 24.802C107.01 24.802 109.402 22.566 109.402 19.394C109.402 16.222 107.01 13.986 103.682 13.986ZM103.682 15.78C105.814 15.78 107.348 17.262 107.348 19.394C107.348 21.5 105.814 23.008 103.682 23.008C101.55 23.008 100.016 21.5 100.016 19.394C100.016 17.262 101.55 15.78 103.682 15.78ZM102.564 6.81V11.074H104.722V6.81H102.564ZM123.232 7.46V9.202H137.246V11.932H123.284V17.652H125.468V13.596H139.404V7.46H123.232ZM123.284 16.586V18.354H139.95V16.586H123.284ZM120.684 20.772V22.566H142.004V20.772H120.684ZM130.226 21.448V30.054H132.358V21.448H130.226ZM152.246 8.214C148.58 8.214 145.928 10.476 145.928 13.752C145.928 17.054 148.58 19.316 152.246 19.316C155.912 19.316 158.538 17.054 158.538 13.752C158.538 10.476 155.912 8.214 152.246 8.214ZM152.246 10.086C154.664 10.086 156.432 11.568 156.432 13.752C156.432 15.936 154.664 17.444 152.246 17.444C149.802 17.444 148.034 15.936 148.034 13.752C148.034 11.568 149.802 10.086 152.246 10.086ZM161.606 6.498V30.054H163.764V6.498H161.606ZM145.044 24.906C149.23 24.906 154.976 24.88 160.254 23.866L160.072 22.28C154.95 23.086 149.022 23.112 144.732 23.112L145.044 24.906ZM191.368 6.446V19.42H193.526V6.446H191.368ZM192.616 12.088V13.908H197.01V12.088H192.616ZM178.602 20.616V22.254H191.42V24.308H178.654V28.728H180.786V25.868H193.526V20.616H178.602ZM178.654 28.104V29.768H194.384V28.104H178.654ZM175.352 8.63V10.32H189.236V8.63H175.352ZM182.294 11.36C178.862 11.36 176.652 12.842 176.652 15.234C176.652 17.6 178.862 19.056 182.294 19.056C185.674 19.056 187.91 17.6 187.91 15.234C187.91 12.842 185.674 11.36 182.294 11.36ZM182.294 12.946C184.452 12.946 185.856 13.83 185.856 15.234C185.856 16.612 184.452 17.496 182.294 17.496C180.11 17.496 178.706 16.612 178.706 15.234C178.706 13.83 180.11 12.946 182.294 12.946ZM181.202 6.264V9.8H183.36V6.264H181.202ZM205.796 7.382C202.312 7.382 199.738 9.514 199.738 12.608C199.738 15.676 202.312 17.808 205.796 17.808C209.306 17.808 211.88 15.676 211.88 12.608C211.88 9.514 209.306 7.382 205.796 7.382ZM205.796 9.15C208.084 9.15 209.774 10.58 209.774 12.608C209.774 14.636 208.084 16.04 205.796 16.04C203.534 16.04 201.818 14.636 201.818 12.608C201.818 10.58 203.534 9.15 205.796 9.15ZM216.3 6.524V18.562H218.484V6.524H216.3ZM203.274 19.706V21.448H216.352V23.814H203.326V28.962H205.432V25.426H218.484V19.706H203.274ZM203.326 28V29.716H219.264V28H203.326ZM233.744 6.914C228.544 6.914 225.476 8.37 225.476 10.996C225.476 13.622 228.544 15.078 233.744 15.078C238.918 15.078 242.012 13.622 242.012 10.996C242.012 8.37 238.918 6.914 233.744 6.914ZM233.744 8.552C237.566 8.552 239.776 9.436 239.776 10.996C239.776 12.556 237.566 13.44 233.744 13.44C229.896 13.44 227.686 12.556 227.686 10.996C227.686 9.436 229.896 8.552 233.744 8.552ZM223.11 16.638V18.38H244.352V16.638H223.11ZM225.684 20.382V22.046H239.516V24.126H225.736V28.546H227.868V25.686H241.648V20.382H225.684ZM225.736 28.078V29.768H242.35V28.078H225.736ZM52.4618 57.852C52.4618 58.944 52.1931 59.8973 51.6558 60.712C51.1184 61.5267 50.3384 62.1593 49.3158 62.61C48.3104 63.0433 47.0798 63.26 45.6238 63.26C44.9824 63.26 44.3498 63.2167 43.7258 63.13C43.1191 63.0433 42.5298 62.922 41.9578 62.766C41.4031 62.5927 40.8744 62.3847 40.3718 62.142V58.476C41.2558 58.8573 42.1658 59.2127 43.1018 59.542C44.0551 59.854 44.9998 60.01 45.9358 60.01C46.5771 60.01 47.0884 59.9233 47.4698 59.75C47.8684 59.5767 48.1544 59.3427 48.3278 59.048C48.5184 58.7533 48.6138 58.4153 48.6138 58.034C48.6138 57.566 48.4491 57.1673 48.1198 56.838C47.8078 56.5087 47.3831 56.2053 46.8458 55.928C46.3084 55.6333 45.6931 55.3213 44.9998 54.992C44.5664 54.784 44.0984 54.5413 43.5958 54.264C43.0931 53.9693 42.6078 53.614 42.1398 53.198C41.6891 52.7647 41.3164 52.2447 41.0218 51.638C40.7271 51.0313 40.5798 50.3033 40.5798 49.454C40.5798 48.3447 40.8311 47.4 41.3338 46.62C41.8538 45.8227 42.5818 45.216 43.5178 44.8C44.4711 44.384 45.5891 44.176 46.8718 44.176C47.8424 44.176 48.7611 44.2887 49.6278 44.514C50.5118 44.7393 51.4304 45.06 52.3838 45.476L51.1098 48.544C50.2604 48.1973 49.4978 47.9287 48.8218 47.738C48.1458 47.5473 47.4524 47.452 46.7418 47.452C46.2564 47.452 45.8404 47.53 45.4938 47.686C45.1471 47.842 44.8784 48.0587 44.6878 48.336C44.5144 48.6133 44.4278 48.9427 44.4278 49.324C44.4278 49.7573 44.5578 50.13 44.8178 50.442C45.0778 50.7367 45.4678 51.0227 45.9878 51.3C46.5078 51.5773 47.1578 51.9067 47.9378 52.288C48.8911 52.7387 49.6971 53.2067 50.3558 53.692C51.0318 54.1773 51.5518 54.7493 51.9158 55.408C52.2798 56.0667 52.4618 56.8813 52.4618 57.852ZM62.9861 63H59.0601V47.712H54.0161V44.436H68.0301V47.712H62.9861V63ZM85.9987 56.448C85.9987 57.7307 85.7127 58.892 85.1407 59.932C84.5861 60.9547 83.7367 61.7693 82.5927 62.376C81.4661 62.9653 80.0361 63.26 78.3027 63.26C75.8414 63.26 73.9694 62.636 72.6867 61.388C71.4041 60.1227 70.7627 58.4587 70.7627 56.396V44.436H74.6887V55.798C74.6887 57.3233 75.0007 58.398 75.6247 59.022C76.2487 59.646 77.1761 59.958 78.4067 59.958C79.2734 59.958 79.9754 59.8107 80.5127 59.516C81.0501 59.2213 81.4401 58.762 81.6827 58.138C81.9427 57.514 82.0727 56.7253 82.0727 55.772V44.436H85.9987V56.448ZM96.4731 44.436C98.8651 44.436 100.607 44.956 101.699 45.996C102.808 47.0187 103.363 48.4313 103.363 50.234C103.363 51.0487 103.242 51.8287 102.999 52.574C102.756 53.302 102.349 53.9607 101.777 54.55C101.222 55.122 100.486 55.5727 99.5671 55.902C98.6484 56.2313 97.5131 56.396 96.1611 56.396H94.4711V63H90.5451V44.436H96.4731ZM96.2651 47.66H94.4711V53.172H95.7711C96.5164 53.172 97.1577 53.0767 97.6951 52.886C98.2324 52.6953 98.6484 52.392 98.9431 51.976C99.2377 51.56 99.3851 51.0227 99.3851 50.364C99.3851 49.4453 99.1337 48.7693 98.6311 48.336C98.1284 47.8853 97.3397 47.66 96.2651 47.66ZM112.643 52.08L116.517 44.436H120.755L114.593 55.772V63H110.693V55.902L104.531 44.436H108.795L112.643 52.08ZM131.572 50.65V52.444H136.018V50.65H131.572ZM139.944 41.524V65.028H142.024V41.524H139.944ZM135.29 42.018V63.858H137.344V42.018H135.29ZM127.334 43.474C124.292 43.474 122.342 46.62 122.342 51.664C122.342 56.708 124.292 59.854 127.334 59.854C130.376 59.854 132.352 56.708 132.352 51.664C132.352 46.62 130.376 43.474 127.334 43.474ZM127.334 45.476C129.206 45.476 130.376 47.868 130.376 51.664C130.376 55.46 129.206 57.852 127.334 57.852C125.488 57.852 124.318 55.46 124.318 51.664C124.318 47.868 125.488 45.476 127.334 45.476ZM169.836 41.524V65.028H171.994V41.524H169.836ZM162.946 44.046V44.41C162.946 50.65 159.8 55.642 153.014 58.918L154.158 60.66C162.01 56.812 165.078 50.858 165.078 44.046H162.946ZM154.08 44.046V45.814H163.882V44.046H154.08ZM176.62 54.446V56.214H197.94V54.446H176.62ZM179.324 42.122V43.812H193.078V46.23H179.376V50.988H181.508V47.816H195.184V42.122H179.324ZM179.376 50.286V51.976H195.704V50.286H179.376ZM186.188 51.17V55.33H188.346V51.17H186.188ZM178.986 58.008V59.776H193.182V64.82H195.34V58.008H178.986ZM200.512 45.528V47.296H212.16V45.528H200.512ZM206.336 48.856C203.424 48.856 201.292 51.066 201.292 54.238C201.292 57.384 203.424 59.594 206.336 59.594C209.274 59.594 211.406 57.384 211.406 54.238C211.406 51.066 209.274 48.856 206.336 48.856ZM206.336 50.702C208.156 50.702 209.482 52.158 209.482 54.238C209.482 56.318 208.156 57.774 206.336 57.774C204.542 57.774 203.242 56.318 203.242 54.238C203.242 52.158 204.542 50.702 206.336 50.702ZM218.374 41.524V65.028H220.454V41.524H218.374ZM214.63 51.404V53.198H219.076V51.404H214.63ZM213.356 42.044V63.884H215.384V42.044H213.356ZM205.296 42.2V46.62H207.428V42.2H205.296ZM231.236 60.244V62.038H252.53V60.244H231.236ZM240.752 54.628V60.764H242.91V54.628H240.752ZM233.732 43.188V55.2H249.982V43.188H247.85V47.374H235.864V43.188H233.732ZM235.864 49.116H247.85V53.432H235.864V49.116ZM264.41 49.922V51.716H268.908V49.922H264.41ZM260.016 43.734V48.206C260.016 52.236 258.092 56.448 254.868 58.346L256.22 59.984C259.652 57.878 261.706 53.12 261.706 48.206V43.734H260.016ZM260.432 43.734V48.128C260.432 52.704 262.33 57.384 265.71 59.464L266.958 57.774C263.864 55.902 262.096 51.898 262.096 48.128V43.734H260.432ZM273.042 41.524V65.028H275.122V41.524H273.042ZM268.284 42.018V63.858H270.312V42.018H268.284ZM284.271 53.614V60.66H286.403V53.614H284.271ZM292.955 53.614V60.66H295.113V53.614H292.955ZM279.071 60.244V62.038H300.365V60.244H279.071ZM289.679 43.006C284.687 43.006 281.125 45.372 281.125 49.064C281.125 52.73 284.687 55.096 289.679 55.096C294.645 55.096 298.207 52.73 298.207 49.064C298.207 45.372 294.645 43.006 289.679 43.006ZM289.679 44.722C293.449 44.722 296.127 46.438 296.127 49.064C296.127 51.664 293.449 53.38 289.679 53.38C285.909 53.38 283.205 51.664 283.205 49.064C283.205 46.438 285.909 44.722 289.679 44.722ZM306.239 57.488H304.289L303.639 44.436H306.889L306.239 57.488ZM303.457 61.466C303.457 60.79 303.631 60.3133 303.977 60.036C304.324 59.7587 304.749 59.62 305.251 59.62C305.737 59.62 306.153 59.7587 306.499 60.036C306.846 60.3133 307.019 60.79 307.019 61.466C307.019 62.142 306.846 62.6273 306.499 62.922C306.153 63.2167 305.737 63.364 305.251 63.364C304.749 63.364 304.324 63.2167 303.977 62.922C303.631 62.6273 303.457 62.142 303.457 61.466Z" fill="black"/>
<path d="M44.2108 88.784V96.464H45.5388V88.784H44.2108ZM44.6748 91.904V93.008H47.3788V91.904H44.6748ZM36.1308 89.392V90.336C36.1308 91.728 35.5068 93.712 33.8748 94.64L34.5948 95.584C36.4508 94.528 37.1068 92.16 37.1068 90.336V89.392H36.1308ZM36.4348 89.392V90.336C36.4348 92 36.8668 94.576 38.7548 95.728L39.3788 94.736C37.7948 93.68 37.3948 91.616 37.3948 90.336V89.392H36.4348ZM40.0988 89.392V90.352C40.0988 91.696 39.7148 93.712 38.1308 94.752L38.7548 95.744C40.6268 94.624 41.0748 92.096 41.0748 90.352V89.392H40.0988ZM40.3868 89.392V90.336C40.3868 92.336 41.0268 94.576 42.8828 95.584L43.6028 94.64C41.9708 93.76 41.3628 91.904 41.3628 90.336V89.392H40.3868ZM35.9228 97.328V98.352H46.1148V97.328H35.9228ZM41.0268 99.056C38.3708 99.056 36.8188 99.792 36.8188 101.136C36.8188 102.48 38.3708 103.216 41.0268 103.216C43.6988 103.216 45.2508 102.48 45.2508 101.136C45.2508 99.792 43.6988 99.056 41.0268 99.056ZM41.0268 100.016C42.8988 100.016 43.9388 100.416 43.9388 101.136C43.9388 101.856 42.8988 102.256 41.0268 102.256C39.1548 102.256 38.1148 101.856 38.1148 101.136C38.1148 100.416 39.1548 100.016 41.0268 100.016ZM40.3708 95.904V97.968H41.6988V95.904H40.3708ZM59.2335 88.768V103.264H60.5615V88.768H59.2335ZM52.9295 89.888C50.8015 89.888 49.2655 91.856 49.2655 94.928C49.2655 98.016 50.8015 99.984 52.9295 99.984C55.0735 99.984 56.6095 98.016 56.6095 94.928C56.6095 91.856 55.0735 89.888 52.9295 89.888ZM52.9295 91.088C54.3535 91.088 55.3295 92.592 55.3295 94.928C55.3295 97.28 54.3535 98.816 52.9295 98.816C51.5215 98.816 50.5295 97.28 50.5295 94.928C50.5295 92.592 51.5215 91.088 52.9295 91.088ZM65.2163 93.12V94.208H75.0403V93.12H65.2163ZM63.4403 96.144V97.232H76.5603V96.144H63.4403ZM65.2163 89.312V93.664H66.5283V89.312H65.2163ZM65.1203 101.808V102.896H75.1203V101.808H65.1203ZM65.1203 98.672V102.096H66.4323V98.672H65.1203ZM92.8593 88.784V103.248H94.1873V88.784H92.8593ZM88.6193 90.336V90.56C88.6193 94.4 86.6833 97.472 82.5073 99.488L83.2113 100.56C88.0433 98.192 89.9313 94.528 89.9313 90.336H88.6193ZM83.1633 90.336V91.424H89.1953V90.336H83.1633ZM97.034 96.736V97.824H110.154V96.736H97.034ZM98.698 89.152V90.192H107.162V91.68H98.73V94.608H100.042V92.656H108.458V89.152H98.698ZM98.73 94.176V95.216H108.778V94.176H98.73ZM102.922 94.72V97.28H104.25V94.72H102.922ZM98.49 98.928V100.016H107.226V103.12H108.554V98.928H98.49ZM111.769 94.816V95.904H124.841V94.816H111.769ZM113.497 92.576V93.648H123.289V92.576H113.497ZM113.497 89.248V93.44H114.809V90.336H123.129V89.248H113.497ZM113.337 97.152V98.192H121.849V99.568H113.369V102.384H114.681V100.56H123.161V97.152H113.337ZM113.369 102.032V103.088H123.593V102.032H113.369ZM133.016 89.024C129.816 89.024 127.928 89.92 127.928 91.536C127.928 93.152 129.816 94.048 133.016 94.048C136.2 94.048 138.104 93.152 138.104 91.536C138.104 89.92 136.2 89.024 133.016 89.024ZM133.016 90.032C135.368 90.032 136.728 90.576 136.728 91.536C136.728 92.496 135.368 93.04 133.016 93.04C130.648 93.04 129.288 92.496 129.288 91.536C129.288 90.576 130.648 90.032 133.016 90.032ZM126.472 95.008V96.08H139.544V95.008H126.472ZM128.056 97.312V98.336H136.568V99.616H128.088V102.336H129.4V100.576H137.88V97.312H128.056ZM128.088 102.048V103.088H138.312V102.048H128.088ZM145.363 100.304V101.408H158.467V100.304H145.363ZM151.219 96.848V100.624H152.547V96.848H151.219ZM146.899 89.808V97.2H156.899V89.808H155.587V92.384H148.211V89.808H146.899ZM148.211 93.456H155.587V96.112H148.211V93.456ZM166.721 92.24V93.328H171.185V92.24H166.721ZM166.721 96.224V97.328H171.185V96.224H166.721ZM160.657 90.192V99.6H167.233V90.192H160.657ZM165.921 91.264V98.528H161.953V91.264H165.921ZM170.673 88.768V103.264H171.985V88.768H170.673ZM182.588 89.6V91.088C182.588 93.296 181.148 95.232 178.94 96.016L179.628 97.104C182.108 96.176 183.692 93.888 183.692 91.088V89.6H182.588ZM182.828 89.6V91.04C182.828 93.664 184.38 95.792 186.716 96.672L187.436 95.632C185.324 94.896 183.916 93.088 183.916 91.04V89.6H182.828ZM189.516 88.784V97.344H190.844V88.784H189.516ZM186.092 97.76C183.1 97.76 181.26 98.768 181.26 100.496C181.26 102.224 183.1 103.216 186.092 103.216C189.068 103.216 190.908 102.224 190.908 100.496C190.908 98.768 189.068 97.76 186.092 97.76ZM186.092 98.816C188.268 98.816 189.596 99.44 189.596 100.496C189.596 101.552 188.268 102.176 186.092 102.176C183.916 102.176 182.588 101.552 182.588 100.496C182.588 99.44 183.916 98.816 186.092 98.816ZM186.38 91.84V92.944H189.804V91.84H186.38ZM197.787 91.312V91.504C197.787 93.04 196.379 94.384 194.315 94.848L194.859 95.904C197.307 95.296 198.875 93.632 198.875 91.504V91.312H197.787ZM198.027 91.312V91.504C198.027 93.536 199.595 95.12 202.011 95.696L202.555 94.656C200.507 94.192 199.115 92.96 199.115 91.504V91.312H198.027ZM194.619 90.416V91.472H202.283V90.416H194.619ZM197.771 88.816V91.12H199.115V88.816H197.771ZM197.803 97.056V102.832H199.131V97.056H197.803ZM204.203 88.784V103.264H205.515V88.784H204.203ZM193.819 98.032C196.507 98.032 200.027 97.984 203.275 97.424L203.179 96.448C200.011 96.896 196.379 96.912 193.643 96.912L193.819 98.032ZM218.282 88.784V96.976H219.61V88.784H218.282ZM219.242 92.304V93.408H221.754V92.304H219.242ZM214.282 89.712V90.304C214.282 92.96 212.122 95.056 208.378 96.08L208.89 97.136C213.146 95.984 215.69 93.36 215.69 89.712H214.282ZM209.002 89.712V90.784H215.018V89.712H209.002ZM210.506 97.664V103.056H219.61V97.664H210.506ZM218.298 98.736V101.968H211.818V98.736H218.298ZM229.641 89.024C226.441 89.024 224.553 89.92 224.553 91.536C224.553 93.152 226.441 94.048 229.641 94.048C232.825 94.048 234.729 93.152 234.729 91.536C234.729 89.92 232.825 89.024 229.641 89.024ZM229.641 90.032C231.993 90.032 233.353 90.576 233.353 91.536C233.353 92.496 231.993 93.04 229.641 93.04C227.273 93.04 225.913 92.496 225.913 91.536C225.913 90.576 227.273 90.032 229.641 90.032ZM223.097 95.008V96.08H236.169V95.008H223.097ZM224.681 97.312V98.336H233.193V99.616H224.713V102.336H226.025V100.576H234.505V97.312H224.681ZM224.713 102.048V103.088H234.937V102.048H224.713ZM243.588 95.312V96.416H253.604V95.312H243.588ZM241.988 100.16V101.264H255.092V100.16H241.988ZM243.588 90.048V95.808H244.916V90.048H243.588ZM267.218 88.784V103.248H268.546V88.784H267.218ZM264.386 92.688V93.776H267.778V92.688H264.386ZM263.474 96.544V97.632H267.634V96.544H263.474ZM259.762 90.352V90.48C259.762 93.744 258.898 96.736 256.562 99.184L257.602 99.952C260.194 97.184 260.994 93.792 260.994 90.352H259.762ZM257.058 90.352V91.44H260.274V90.352H257.058ZM263.65 90.352V90.464C263.65 93.792 263.042 97.376 260.642 100.208L261.73 100.928C264.354 97.808 264.882 93.792 264.882 90.352H263.65ZM261.442 90.352V91.44H264.21V90.352H261.442ZM267.218 88.784V103.248H268.546V88.784H267.218ZM271.425 100.304V101.408H284.529V100.304H271.425ZM277.281 96.848V100.624H278.609V96.848H277.281ZM272.961 89.808V97.2H282.961V89.808H281.649V92.384H274.273V89.808H272.961ZM274.273 93.456H281.649V96.112H274.273V93.456ZM291.84 93.952V95.056H294.608V93.952H291.84ZM289.136 90.144V92.896C289.136 95.376 287.952 97.968 285.968 99.136L286.8 100.144C288.912 98.848 290.176 95.92 290.176 92.896V90.144H289.136ZM289.392 90.144V92.848C289.392 95.664 290.56 98.544 292.64 99.824L293.408 98.784C291.504 97.632 290.416 95.168 290.416 92.848V90.144H289.392ZM297.152 88.784V103.248H298.432V88.784H297.152ZM294.224 89.088V102.528H295.472V89.088H294.224ZM304.062 96.224V100.56H305.375V96.224H304.062ZM309.407 96.224V100.56H310.735V96.224H309.407ZM300.863 100.304V101.408H313.967V100.304H300.863ZM307.391 89.696C304.319 89.696 302.127 91.152 302.127 93.424C302.127 95.68 304.319 97.136 307.391 97.136C310.447 97.136 312.639 95.68 312.639 93.424C312.639 91.152 310.447 89.696 307.391 89.696ZM307.391 90.752C309.711 90.752 311.359 91.808 311.359 93.424C311.359 95.024 309.711 96.08 307.391 96.08C305.071 96.08 303.407 95.024 303.407 93.424C303.407 91.808 305.071 90.752 307.391 90.752Z" fill="#4F4F4F"/>
<defs>
<linearGradient id="paint0_linear_1107_1284" x1="314" y1="68" x2="34" y2="67.9999" gradientUnits="userSpaceOnUse">
<stop stop-color="#FF9052"/>
<stop offset="1" stop-color="#FF9052"/>
</linearGradient>
</defs>
</svg>
