<svg width="293" height="107" viewBox="0 0 293 107" fill="none" xmlns="http://www.w3.org/2000/svg">
<rect y="55" width="293" height="13" fill="url(#paint0_linear_1107_1142)"/>
<path d="M42.4452 21.344C37.4272 21.344 34.2552 22.982 34.2552 25.686C34.2552 28.364 37.4272 29.976 42.4452 29.976C47.4372 29.976 50.6352 28.364 50.6352 25.686C50.6352 22.982 47.4372 21.344 42.4452 21.344ZM42.4452 23.034C46.1372 23.034 48.4772 24.048 48.4772 25.686C48.4772 27.298 46.1372 28.312 42.4452 28.312C38.7532 28.312 36.3872 27.298 36.3872 25.686C36.3872 24.048 38.7532 23.034 42.4452 23.034ZM34.4372 7.694V9.462H49.5692V7.694H34.4372ZM31.9152 17.47V19.212H53.1312V17.47H31.9152ZM40.6252 12.946V17.964H42.7572V12.946H40.6252ZM48.3212 7.694V9.696C48.3212 11.542 48.3212 13.258 47.6712 15.676L49.8032 15.936C50.4272 13.492 50.4272 11.594 50.4272 9.696V7.694H48.3212ZM55.8072 20.434V22.202H77.1272V20.434H55.8072ZM65.3232 21.266V30.028H67.4552V21.266H65.3232ZM58.4852 7.46V17.626H74.3972V7.46H72.2652V10.684H60.6432V7.46H58.4852ZM60.6432 12.426H72.2652V15.884H60.6432V12.426ZM92.3031 9.878V13.7C92.3031 17.678 89.4691 22.15 86.1151 23.788L87.3631 25.504C91.0291 23.632 94.0191 18.588 94.0191 13.7V9.878H92.3031ZM92.6931 9.878V13.7C92.6931 18.354 95.5271 23.086 99.2451 24.932L100.467 23.216C97.0611 21.604 94.4091 17.418 94.4091 13.7V9.878H92.6931ZM86.9471 8.916V10.736H99.6091V8.916H86.9471ZM102.391 6.524V30.028H104.575V6.524H102.391ZM104.055 16.014V17.834H108.423V16.014H104.055ZM113.127 7.642V9.41H128.259V7.642H113.127ZM110.423 16.404V18.172H131.717V16.404H110.423ZM126.855 7.642V9.254C126.855 11.126 126.855 13.518 126.127 16.872L128.233 17.106C128.961 13.674 128.961 11.178 128.961 9.254V7.642H126.855ZM112.685 21.682V23.424H126.959V30.106H129.117V21.682H112.685ZM151.397 6.498V30.054H153.555V6.498H151.397ZM141.153 8.318C137.695 8.318 135.199 11.516 135.199 16.508C135.199 21.526 137.695 24.724 141.153 24.724C144.637 24.724 147.133 21.526 147.133 16.508C147.133 11.516 144.637 8.318 141.153 8.318ZM141.153 10.268C143.467 10.268 145.053 12.712 145.053 16.508C145.053 20.33 143.467 22.826 141.153 22.826C138.865 22.826 137.253 20.33 137.253 16.508C137.253 12.712 138.865 10.268 141.153 10.268ZM182.121 6.524V18.692H184.305V6.524H182.121ZM168.965 19.836V21.552H182.147V23.892H169.043V29.04H171.149V25.504H184.305V19.836H168.965ZM169.043 28.052V29.768H185.163V28.052H169.043ZM166.053 8.11V9.826H178.663V8.11H166.053ZM165.637 17.912C169.771 17.886 175.231 17.73 179.911 17.028L179.781 15.442C175.205 16.014 169.589 16.118 165.403 16.118L165.637 17.912ZM168.367 8.89V16.898H170.447V8.89H168.367ZM174.243 8.89V16.898H176.349V8.89H174.243ZM194.131 18.614V25.66H196.263V18.614H194.131ZM202.815 18.614V25.66H204.973V18.614H202.815ZM188.931 25.244V27.038H210.225V25.244H188.931ZM199.539 8.006C194.547 8.006 190.985 10.372 190.985 14.064C190.985 17.73 194.547 20.096 199.539 20.096C204.505 20.096 208.067 17.73 208.067 14.064C208.067 10.372 204.505 8.006 199.539 8.006ZM199.539 9.722C203.309 9.722 205.987 11.438 205.987 14.064C205.987 16.664 203.309 18.38 199.539 18.38C195.769 18.38 193.065 16.664 193.065 14.064C193.065 11.438 195.769 9.722 199.539 9.722ZM228.917 6.446V19.42H231.075V6.446H228.917ZM230.165 12.088V13.908H234.559V12.088H230.165ZM216.151 20.616V22.254H228.969V24.308H216.203V28.728H218.335V25.868H231.075V20.616H216.151ZM216.203 28.104V29.768H231.933V28.104H216.203ZM212.901 8.63V10.32H226.785V8.63H212.901ZM219.843 11.36C216.411 11.36 214.201 12.842 214.201 15.234C214.201 17.6 216.411 19.056 219.843 19.056C223.223 19.056 225.459 17.6 225.459 15.234C225.459 12.842 223.223 11.36 219.843 11.36ZM219.843 12.946C222.001 12.946 223.405 13.83 223.405 15.234C223.405 16.612 222.001 17.496 219.843 17.496C217.659 17.496 216.255 16.612 216.255 15.234C216.255 13.83 217.659 12.946 219.843 12.946ZM218.751 6.264V9.8H220.909V6.264H218.751ZM250.235 6.992V23.242H252.263V6.992H250.235ZM251.457 13.362V15.13H255.799V13.362H251.457ZM237.469 17.86V19.654H238.379C239.393 19.654 240.875 19.628 242.825 19.186L242.591 17.418C240.823 17.86 239.289 17.86 238.379 17.86H237.469ZM237.469 8.812V18.432H239.445V10.554H242.357V8.812H237.469ZM243.553 17.86V19.654H244.489C245.763 19.654 247.297 19.628 249.247 19.186L249.039 17.392C247.219 17.834 245.685 17.86 244.489 17.86H243.553ZM243.553 8.812V18.432H245.529V10.554H248.675V8.812H243.553ZM254.889 6.524V23.97H256.917V6.524H254.889ZM241.109 27.74V29.508H257.567V27.74H241.109ZM241.109 21.994V28.702H243.267V21.994H241.109ZM1.31892 54.004V55.772H22.5609V54.004H1.31892ZM10.8869 50.572V54.914H13.0189V50.572H10.8869ZM4.07492 62.74V64.508H20.2209V62.74H4.07492ZM4.07492 57.722V63.312H6.23292V57.722H4.07492ZM11.9529 42.2C6.90892 42.2 3.68492 43.994 3.68492 46.906C3.68492 49.844 6.90892 51.586 11.9529 51.586C16.9709 51.586 20.2209 49.844 20.2209 46.906C20.2209 43.994 16.9709 42.2 11.9529 42.2ZM11.9529 43.968C15.6449 43.968 18.0109 45.086 18.0109 46.906C18.0109 48.752 15.6449 49.844 11.9529 49.844C8.26092 49.844 5.89492 48.752 5.89492 46.906C5.89492 45.086 8.26092 43.968 11.9529 43.968ZM41.1749 41.498V65.054H43.3329V41.498H41.1749ZM42.8129 50.858V52.678H47.1809V50.858H42.8129ZM26.1989 57.592V59.386H28.0709C32.5689 59.386 35.6889 59.204 39.3549 58.554L39.1209 56.76C35.5589 57.436 32.4909 57.592 28.0709 57.592H26.1989ZM26.1469 43.708V45.476H34.6489V50.364H26.1989V58.32H28.3309V52.132H36.7809V43.708H26.1469ZM66.2629 41.55V58.71H68.4469V41.55H66.2629ZM53.3409 62.74V64.508H69.1489V62.74H53.3409ZM53.3409 56.942V63.338H55.4729V56.942H53.3409ZM55.8369 43.162C52.3269 43.162 49.7009 45.554 49.7009 48.96C49.7009 52.34 52.3269 54.758 55.8369 54.758C59.3469 54.758 61.9469 52.34 61.9469 48.96C61.9469 45.554 59.3469 43.162 55.8369 43.162ZM55.8369 45.034C58.1249 45.034 59.8669 46.646 59.8669 48.96C59.8669 51.248 58.1249 52.86 55.8369 52.86C53.5489 52.86 51.8069 51.248 51.8069 48.96C51.8069 46.646 53.5489 45.034 55.8369 45.034ZM91.7607 57.93C91.7607 59.022 91.4921 59.9667 90.9547 60.764C90.4174 61.5613 89.6374 62.1767 88.6147 62.61C87.6094 63.0433 86.4047 63.26 85.0007 63.26C84.3247 63.26 83.6747 63.2167 83.0507 63.13C82.4441 63.0607 81.8634 62.948 81.3087 62.792C80.7714 62.636 80.2687 62.4453 79.8007 62.22V59.1C80.5807 59.4467 81.4387 59.7673 82.3747 60.062C83.3107 60.3393 84.2641 60.478 85.2347 60.478C85.9801 60.478 86.5867 60.3827 87.0547 60.192C87.5401 59.984 87.8954 59.7067 88.1207 59.36C88.3461 58.996 88.4587 58.58 88.4587 58.112C88.4587 57.592 88.3114 57.15 88.0167 56.786C87.7221 56.422 87.2887 56.084 86.7167 55.772C86.1447 55.46 85.4341 55.1307 84.5847 54.784C84.0127 54.5413 83.4494 54.2727 82.8947 53.978C82.3574 53.666 81.8721 53.2933 81.4387 52.86C81.0054 52.4267 80.6587 51.9153 80.3987 51.326C80.1387 50.7367 80.0087 50.0433 80.0087 49.246C80.0087 48.1887 80.2601 47.2787 80.7627 46.516C81.2827 45.7533 82.0021 45.1727 82.9207 44.774C83.8567 44.3753 84.9401 44.176 86.1707 44.176C87.1587 44.176 88.0861 44.28 88.9527 44.488C89.8194 44.696 90.6774 44.9907 91.5267 45.372L90.4607 48.05C89.6981 47.7207 88.9614 47.4607 88.2507 47.27C87.5401 47.0793 86.8121 46.984 86.0667 46.984C85.4774 46.984 84.9747 47.0793 84.5587 47.27C84.1427 47.4433 83.8307 47.6947 83.6227 48.024C83.4147 48.3533 83.3107 48.7347 83.3107 49.168C83.3107 49.6707 83.4407 50.0953 83.7007 50.442C83.9607 50.7887 84.3594 51.118 84.8967 51.43C85.4514 51.7247 86.1621 52.0627 87.0287 52.444C88.0341 52.8773 88.8834 53.328 89.5767 53.796C90.2701 54.264 90.8074 54.8273 91.1887 55.486C91.5701 56.1447 91.7607 56.9593 91.7607 57.93ZM101.922 63H98.5937V47.244H93.2637V44.436H107.252V47.244H101.922V63ZM124.81 56.448C124.81 57.7307 124.532 58.892 123.978 59.932C123.44 60.9547 122.617 61.7693 121.508 62.376C120.398 62.9653 118.994 63.26 117.296 63.26C114.886 63.26 113.058 62.636 111.81 61.388C110.562 60.1227 109.938 58.4587 109.938 56.396V44.436H113.266V56.058C113.266 57.566 113.612 58.6753 114.306 59.386C114.999 60.0793 116.03 60.426 117.4 60.426C118.37 60.426 119.15 60.2613 119.74 59.932C120.346 59.6027 120.788 59.1087 121.066 58.45C121.36 57.774 121.508 56.968 121.508 56.032V44.436H124.81V56.448ZM144.702 53.536C144.702 55.616 144.303 57.358 143.506 58.762C142.726 60.166 141.59 61.2233 140.1 61.934C138.626 62.6447 136.841 63 134.744 63H129.518V44.436H135.29C137.214 44.436 138.878 44.7827 140.282 45.476C141.686 46.1693 142.769 47.192 143.532 48.544C144.312 49.8787 144.702 51.5427 144.702 53.536ZM141.218 53.64C141.218 52.1667 140.992 50.9533 140.542 50C140.091 49.0467 139.424 48.3447 138.54 47.894C137.656 47.426 136.572 47.192 135.29 47.192H132.846V60.218H134.848C136.997 60.218 138.592 59.672 139.632 58.58C140.689 57.4707 141.218 55.824 141.218 53.64ZM153.816 52.626L158.054 44.436H161.642L155.48 55.772V63H152.152V55.902L145.99 44.436H149.604L153.816 52.626ZM193.033 44.436L188.223 63H184.557L181.619 52.34C181.549 52.08 181.471 51.7593 181.385 51.378C181.298 50.9967 181.203 50.6067 181.099 50.208C181.012 49.792 180.934 49.4107 180.865 49.064C180.795 48.7 180.752 48.4313 180.735 48.258C180.717 48.4313 180.674 48.7 180.605 49.064C180.535 49.4107 180.457 49.792 180.371 50.208C180.284 50.6067 180.197 51.0053 180.111 51.404C180.024 51.7853 179.937 52.1147 179.851 52.392L176.991 63H173.299L168.515 44.436H171.843L174.391 55.018C174.477 55.3647 174.564 55.746 174.651 56.162C174.737 56.5607 174.824 56.9767 174.911 57.41C174.997 57.826 175.075 58.242 175.145 58.658C175.214 59.0567 175.266 59.412 175.301 59.724C175.335 59.3947 175.387 59.0307 175.457 58.632C175.526 58.216 175.604 57.8 175.691 57.384C175.777 56.9507 175.864 56.5433 175.951 56.162C176.037 55.7633 176.124 55.4253 176.211 55.148L179.123 44.436H182.347L185.311 55.174C185.397 55.4687 185.484 55.8153 185.571 56.214C185.675 56.5953 185.77 57.0027 185.857 57.436C185.943 57.852 186.013 58.2593 186.065 58.658C186.134 59.0567 186.195 59.412 186.247 59.724C186.299 59.2907 186.368 58.7967 186.455 58.242C186.559 57.6873 186.671 57.124 186.793 56.552C186.931 55.98 187.053 55.4687 187.157 55.018L189.705 44.436H193.033ZM201.876 63H194.076V61.102L196.312 60.27V47.192L194.076 46.334V44.436H201.876V46.334L199.64 47.192V60.27L201.876 61.102V63ZM211.863 63H208.535V47.244H203.205V44.436H217.193V47.244H211.863V63ZM234.855 63H231.527V54.758H223.363V63H220.035V44.436H223.363V51.924H231.527V44.436H234.855V63ZM254.423 63L249.327 47.79H249.223C249.241 48.1367 249.267 48.6307 249.301 49.272C249.336 49.896 249.362 50.5807 249.379 51.326C249.414 52.054 249.431 52.7387 249.431 53.38V63H246.441V44.436H251.069L255.957 59.022H256.061L261.157 44.436H265.785V63H262.613V53.224C262.613 52.6347 262.622 51.9933 262.639 51.3C262.674 50.5893 262.7 49.922 262.717 49.298C262.752 48.6567 262.778 48.1627 262.795 47.816H262.691L257.387 63H254.423ZM281.144 63H270.588V44.436H281.144V47.218H273.916V51.95H280.676V54.732H273.916V60.192H281.144V63ZM287.556 57.202H285.06L284.41 44.436H288.206L287.556 57.202ZM284.306 61.336C284.306 60.608 284.497 60.0967 284.878 59.802C285.259 59.49 285.736 59.334 286.308 59.334C286.845 59.334 287.305 59.4813 287.686 59.776C288.085 60.0707 288.284 60.5907 288.284 61.336C288.284 62.0467 288.085 62.558 287.686 62.87C287.305 63.182 286.845 63.338 286.308 63.338C285.736 63.338 285.259 63.182 284.878 62.87C284.497 62.558 284.306 62.0467 284.306 61.336Z" fill="black"/>
<path d="M13.4526 88.784V96.272H14.7806V88.784H13.4526ZM5.43663 97.008V98.048H13.4846V99.488H5.46863V102.464H6.76463V100.48H14.7966V97.008H5.43663ZM5.46863 102.032V103.088H15.2766V102.032H5.46863ZM6.70063 89.2V90.304C6.70063 92.4 5.21263 94.32 3.03663 95.088L3.69263 96.144C6.14062 95.248 7.80463 92.976 7.80463 90.304V89.2H6.70063ZM6.94063 89.2V90.304C6.94063 92.896 8.60463 95.024 11.0366 95.856L11.6926 94.816C9.54863 94.112 8.02863 92.304 8.02863 90.304V89.2H6.94063ZM21.4674 90.032V92.624C21.4674 95.36 19.7234 98.128 17.5794 99.152L18.3954 100.24C20.7634 99.04 22.5554 95.952 22.5554 92.624V90.032H21.4674ZM21.6914 90.032V92.624C21.6914 95.84 23.4994 98.816 25.8514 99.968L26.6514 98.912C24.5074 97.92 22.7794 95.264 22.7794 92.624V90.032H21.6914ZM28.1554 88.768V103.264H29.4834V88.768H28.1554ZM42.2661 88.784V99.36H43.5941V88.784H42.2661ZM43.1781 93.168V94.272H45.7381V93.168H43.1781ZM38.3141 89.904V90.48C38.3141 93.264 36.0261 95.504 32.3781 96.624L32.9541 97.712C37.0981 96.384 39.7221 93.648 39.7221 89.904H38.3141ZM32.9701 89.904V90.992H38.9861V89.904H32.9701ZM34.5701 101.84V102.928H44.2341V101.84H34.5701ZM34.5701 98.288V102.272H35.8981V98.288H34.5701ZM62.1651 88.784V97.712H63.4291V88.784H62.1651ZM59.8451 92.64V93.728H62.5651V92.64H59.8451ZM58.9811 89.056V97.2H60.2291V89.056H58.9811ZM51.9091 95.792V96.864H52.8371C54.9331 96.864 56.4531 96.8 58.2771 96.432L58.1491 95.376C56.3731 95.728 54.8691 95.792 52.8371 95.792H51.9091ZM51.8771 89.872V90.944H56.0371V92.768H51.9091V96.592H53.1891V93.776H57.3171V89.872H51.8771ZM58.6771 98C55.6851 98 53.8611 98.96 53.8611 100.608C53.8611 102.256 55.6851 103.216 58.6771 103.216C61.6531 103.216 63.5091 102.256 63.5091 100.608C63.5091 98.96 61.6531 98 58.6771 98ZM58.6771 99.024C60.8531 99.024 62.1811 99.616 62.1811 100.608C62.1811 101.6 60.8531 102.176 58.6771 102.176C56.5011 102.176 55.1571 101.6 55.1571 100.608C55.1571 99.616 56.5011 99.024 58.6771 99.024ZM72.2119 89.776V90.288C72.2119 93.104 70.4839 95.296 66.3719 96.48L66.8839 97.552C71.5079 96.192 73.5879 93.504 73.5879 89.776H72.2119ZM66.9959 89.776V90.848H72.9319V89.776H66.9959ZM72.0359 92.432L66.2759 92.704L66.4999 93.792L72.0359 93.376V92.432ZM76.4839 88.8V97.488H77.8279V88.8H76.4839ZM73.0439 97.696C70.0519 97.696 68.1959 98.72 68.1959 100.464C68.1959 102.208 70.0519 103.232 73.0439 103.232C76.0359 103.232 77.9079 102.208 77.9079 100.464C77.9079 98.72 76.0359 97.696 73.0439 97.696ZM73.0439 98.752C75.2359 98.752 76.5799 99.376 76.5799 100.464C76.5799 101.536 75.2359 102.176 73.0439 102.176C70.8519 102.176 69.5079 101.536 69.5079 100.464C69.5079 99.376 70.8519 98.752 73.0439 98.752ZM87.2186 89.696C84.2106 89.696 81.9546 91.296 81.9546 93.696C81.9546 96.112 84.2106 97.696 87.2186 97.696C90.2266 97.696 92.4666 96.112 92.4666 93.696C92.4666 91.296 90.2266 89.696 87.2186 89.696ZM87.2186 90.784C89.5066 90.784 91.2026 91.952 91.2026 93.696C91.2026 95.424 89.5066 96.608 87.2186 96.608C84.9306 96.608 83.2346 95.424 83.2346 93.696C83.2346 91.952 84.9306 90.784 87.2186 90.784ZM80.6906 100.224V101.344H93.7946V100.224H80.6906ZM95.4094 100.368V101.472H108.513V100.368H95.4094ZM101.265 97.264V100.832H102.593V97.264H101.265ZM96.9934 89.856V90.928H105.585V93.168H97.0414V97.136H98.3534V94.24H106.897V89.856H96.9934ZM97.0414 96.576V97.664H107.233V96.576H97.0414ZM125.26 88.784V103.248H126.54V88.784H125.26ZM122.828 94.672V95.76H125.612V94.672H122.828ZM121.98 89.104V102.512H123.228V89.104H121.98ZM114.972 90.528V98.88H116.3V90.528H114.972ZM114.972 98.352V99.504H115.9C117.452 99.504 119.116 99.424 121.084 99.04L120.94 97.888C119.052 98.256 117.388 98.352 115.9 98.352H114.972ZM139.639 97.904C136.551 97.904 134.599 98.912 134.599 100.576C134.599 102.224 136.551 103.216 139.639 103.216C142.711 103.216 144.679 102.224 144.679 100.576C144.679 98.912 142.711 97.904 139.639 97.904ZM139.639 98.944C141.911 98.944 143.351 99.568 143.351 100.576C143.351 101.568 141.911 102.192 139.639 102.192C137.367 102.192 135.911 101.568 135.911 100.576C135.911 99.568 137.367 98.944 139.639 98.944ZM134.711 89.504V90.592H144.023V89.504H134.711ZM133.159 95.52V96.592H146.215V95.52H133.159ZM138.519 92.736V95.824H139.831V92.736H138.519ZM143.255 89.504V90.736C143.255 91.872 143.255 92.928 142.855 94.416L144.167 94.576C144.551 93.072 144.551 91.904 144.551 90.736V89.504H143.255ZM147.862 97.344V98.432H160.982V97.344H147.862ZM153.718 97.856V103.248H155.03V97.856H153.718ZM149.51 89.36V95.616H159.302V89.36H157.99V91.344H150.838V89.36H149.51ZM150.838 92.416H157.99V94.544H150.838V92.416ZM173.413 91.04V92.144H175.957V91.04H173.413ZM173.413 94.08V95.184H175.957V94.08H173.413ZM172.485 88.784V97.536H173.813V88.784H172.485ZM163.221 95.6V96.704H164.357C167.029 96.704 168.933 96.608 171.221 96.224L171.109 95.12C168.853 95.52 166.981 95.6 164.357 95.6H163.221ZM163.189 89.68V90.768H168.389V92.576H163.221V96.304H164.517V93.616H169.701V89.68H163.189ZM169.189 97.968C166.245 97.968 164.437 98.928 164.437 100.592C164.437 102.272 166.245 103.232 169.189 103.232C172.149 103.232 173.941 102.272 173.941 100.592C173.941 98.928 172.149 97.968 169.189 97.968ZM169.189 99.008C171.349 99.008 172.661 99.584 172.661 100.592C172.661 101.616 171.349 102.192 169.189 102.192C167.029 102.192 165.733 101.616 165.733 100.592C165.733 99.584 167.029 99.008 169.189 99.008ZM183.844 89.024C180.644 89.024 178.756 89.92 178.756 91.536C178.756 93.152 180.644 94.048 183.844 94.048C187.028 94.048 188.932 93.152 188.932 91.536C188.932 89.92 187.028 89.024 183.844 89.024ZM183.844 90.032C186.196 90.032 187.556 90.576 187.556 91.536C187.556 92.496 186.196 93.04 183.844 93.04C181.476 93.04 180.116 92.496 180.116 91.536C180.116 90.576 181.476 90.032 183.844 90.032ZM177.3 95.008V96.08H190.372V95.008H177.3ZM178.884 97.312V98.336H187.396V99.616H178.916V102.336H180.228V100.576H188.708V97.312H178.884ZM178.916 102.048V103.088H189.14V102.048H178.916ZM199.967 95.568V97.424H201.295V95.568H199.967ZM206.063 88.8V98.496H207.391V88.8H206.063ZM206.831 93.168V94.272H209.503V93.168H206.831ZM196.271 98.08C198.799 98.064 202.223 98.048 205.311 97.504L205.199 96.56C202.207 96.992 198.687 96.992 196.095 96.992L196.271 98.08ZM197.887 99.216V100.272H206.063V103.248H207.391V99.216H197.887ZM196.463 90.096V91.088H204.767V90.096H196.463ZM200.623 91.648C198.575 91.648 197.247 92.464 197.247 93.792C197.247 95.12 198.575 95.936 200.623 95.936C202.655 95.936 203.983 95.12 203.983 93.792C203.983 92.464 202.655 91.648 200.623 91.648ZM200.623 92.56C201.903 92.56 202.735 93.024 202.735 93.792C202.735 94.528 201.903 95.008 200.623 95.008C199.327 95.008 198.495 94.528 198.495 93.792C198.495 93.024 199.327 92.56 200.623 92.56ZM199.967 88.672V90.576H201.295V88.672H199.967ZM221.421 88.8V99.36H222.765V88.8H221.421ZM213.469 101.84V102.928H223.197V101.84H213.469ZM213.469 98.272V102.208H214.781V98.272H213.469ZM215.005 89.792C212.845 89.792 211.229 91.264 211.229 93.36C211.229 95.44 212.845 96.928 215.005 96.928C217.165 96.928 218.765 95.44 218.765 93.36C218.765 91.264 217.165 89.792 215.005 89.792ZM215.005 90.944C216.413 90.944 217.485 91.936 217.485 93.36C217.485 94.768 216.413 95.76 215.005 95.76C213.597 95.76 212.525 94.768 212.525 93.36C212.525 91.936 213.597 90.944 215.005 90.944ZM225.596 91.248V92.336H232.764V91.248H225.596ZM229.18 93.296C227.388 93.296 226.076 94.656 226.076 96.608C226.076 98.544 227.388 99.904 229.18 99.904C230.988 99.904 232.3 98.544 232.3 96.608C232.3 94.656 230.988 93.296 229.18 93.296ZM229.18 94.432C230.3 94.432 231.116 95.328 231.116 96.608C231.116 97.888 230.3 98.784 229.18 98.784C228.076 98.784 227.276 97.888 227.276 96.608C227.276 95.328 228.076 94.432 229.18 94.432ZM236.588 88.784V103.248H237.868V88.784H236.588ZM234.284 94.864V95.968H237.02V94.864H234.284ZM233.5 89.104V102.544H234.748V89.104H233.5ZM228.54 89.2V91.92H229.852V89.2H228.54ZM244.503 100.304V101.408H257.607V100.304H244.503ZM250.359 96.848V100.624H251.687V96.848H250.359ZM246.039 89.808V97.2H256.039V89.808H254.727V92.384H247.351V89.808H246.039ZM247.351 93.456H254.727V96.112H247.351V93.456ZM264.918 93.952V95.056H267.686V93.952H264.918ZM262.214 90.144V92.896C262.214 95.376 261.03 97.968 259.046 99.136L259.878 100.144C261.99 98.848 263.254 95.92 263.254 92.896V90.144H262.214ZM262.47 90.144V92.848C262.47 95.664 263.638 98.544 265.718 99.824L266.486 98.784C264.582 97.632 263.494 95.168 263.494 92.848V90.144H262.47ZM270.23 88.784V103.248H271.51V88.784H270.23ZM267.302 89.088V102.528H268.55V89.088H267.302ZM277.141 96.224V100.56H278.453V96.224H277.141ZM282.485 96.224V100.56H283.813V96.224H282.485ZM273.941 100.304V101.408H287.045V100.304H273.941ZM280.469 89.696C277.397 89.696 275.205 91.152 275.205 93.424C275.205 95.68 277.397 97.136 280.469 97.136C283.525 97.136 285.717 95.68 285.717 93.424C285.717 91.152 283.525 89.696 280.469 89.696ZM280.469 90.752C282.789 90.752 284.437 91.808 284.437 93.424C284.437 95.024 282.789 96.08 280.469 96.08C278.149 96.08 276.485 95.024 276.485 93.424C276.485 91.808 278.149 90.752 280.469 90.752Z" fill="#4F4F4F"/>
<defs>
<linearGradient id="paint0_linear_1107_1142" x1="293" y1="68" x2="-1.1434e-06" y2="67.9999" gradientUnits="userSpaceOnUse">
<stop stop-color="#FF9052"/>
<stop offset="1" stop-color="#FF9052"/>
</linearGradient>
</defs>
</svg>
