<svg width="34" height="46" viewBox="0 0 34 46" fill="none" xmlns="http://www.w3.org/2000/svg">
<path d="M0 0H34V38.3333L17 46L0 38.3333V0Z" fill="#FF9052"/>
<path d="M11.4066 17.0909V28H9.4304V19.0138H9.36648L6.81499 20.6438V18.8327L9.52628 17.0909H11.4066ZM18.307 16C16.207 16 14.677 17.215 14.677 18.97C14.677 20.695 16.207 21.94 18.307 21.94C20.422 21.94 21.952 20.695 21.952 18.97C21.952 17.215 20.422 16 18.307 16ZM18.307 17.62C19.327 17.62 20.047 18.1 20.047 18.97C20.047 19.825 19.327 20.305 18.307 20.305C17.302 20.305 16.582 19.825 16.582 18.97C16.582 18.1 17.302 17.62 18.307 17.62ZM17.377 23.32V28.915H19.372V23.32H17.377ZM23.452 15.445V29.335H25.432V15.445H23.452ZM14.092 24.37C16.492 24.355 19.777 24.325 22.792 23.725L22.657 22.27C19.717 22.72 16.282 22.75 13.852 22.75L14.092 24.37Z" fill="white"/>
</svg>
