<svg width="34" height="46" viewBox="0 0 34 46" fill="none" xmlns="http://www.w3.org/2000/svg">
<path d="M0 0H34V38.3333L17 46L0 38.3333V0Z" fill="#FFAD80"/>
<path d="M6.96946 28V26.5724L10.7567 22.8597C11.119 22.494 11.4208 22.169 11.6623 21.8849C11.9038 21.6009 12.0849 21.3256 12.2056 21.0593C12.3263 20.793 12.3867 20.5089 12.3867 20.207C12.3867 19.8626 12.3086 19.5678 12.1523 19.3228C11.9961 19.0742 11.7812 18.8825 11.5078 18.7475C11.2344 18.6126 10.9237 18.5451 10.5756 18.5451C10.217 18.5451 9.9027 18.6197 9.63281 18.7688C9.36293 18.9144 9.15341 19.1222 9.00426 19.392C8.85866 19.6619 8.78587 19.9833 8.78587 20.3562H6.90554C6.90554 19.6637 7.06357 19.0618 7.37962 18.5504C7.69567 18.0391 8.13068 17.6431 8.68466 17.3626C9.24219 17.082 9.88139 16.9418 10.6023 16.9418C11.3338 16.9418 11.9766 17.0785 12.5305 17.3519C13.0845 17.6254 13.5142 18 13.8196 18.4759C14.1286 18.9517 14.283 19.495 14.283 20.1058C14.283 20.5142 14.2049 20.9155 14.0487 21.3097C13.8924 21.7038 13.6172 22.1406 13.223 22.62C12.8324 23.0994 12.2837 23.68 11.5771 24.3619L9.69673 26.2741V26.3487H14.4482V28H6.96946ZM20.4164 16C18.3164 16 16.7864 17.215 16.7864 18.97C16.7864 20.695 18.3164 21.94 20.4164 21.94C22.5314 21.94 24.0614 20.695 24.0614 18.97C24.0614 17.215 22.5314 16 20.4164 16ZM20.4164 17.62C21.4364 17.62 22.1564 18.1 22.1564 18.97C22.1564 19.825 21.4364 20.305 20.4164 20.305C19.4114 20.305 18.6914 19.825 18.6914 18.97C18.6914 18.1 19.4114 17.62 20.4164 17.62ZM19.4864 23.32V28.915H21.4814V23.32H19.4864ZM25.5614 15.445V29.335H27.5414V15.445H25.5614ZM16.2014 24.37C18.6014 24.355 21.8864 24.325 24.9014 23.725L24.7664 22.27C21.8264 22.72 18.3914 22.75 15.9614 22.75L16.2014 24.37Z" fill="white"/>
</svg>
