<svg width="34" height="46" viewBox="0 0 34 46" fill="none" xmlns="http://www.w3.org/2000/svg">
<path d="M0 0H34V38.3333L17 46L0 38.3333V0Z" fill="#FFC2A0"/>
<path d="M10.8846 28.1491C10.1175 28.1491 9.43572 28.0178 8.83913 27.755C8.24609 27.4922 7.77734 27.1264 7.43288 26.6577C7.08842 26.1889 6.90554 25.6474 6.88423 25.033H8.88707C8.90483 25.3278 9.00249 25.5852 9.18004 25.8054C9.3576 26.022 9.59375 26.1907 9.88849 26.3114C10.1832 26.4322 10.5135 26.4925 10.8793 26.4925C11.2699 26.4925 11.6161 26.4251 11.918 26.2901C12.2198 26.1516 12.456 25.9599 12.6264 25.7148C12.7969 25.4698 12.8803 25.1875 12.8768 24.8679C12.8803 24.5376 12.7951 24.2464 12.6211 23.9943C12.4471 23.7422 12.195 23.5451 11.8647 23.4031C11.538 23.261 11.1438 23.19 10.6822 23.19H9.71804V21.6665H10.6822C11.0621 21.6665 11.3942 21.6009 11.6783 21.4695C11.9659 21.3381 12.1914 21.1534 12.3548 20.9155C12.5181 20.674 12.598 20.3952 12.5945 20.0792C12.598 19.7702 12.5288 19.5021 12.3867 19.2749C12.2482 19.044 12.0511 18.8647 11.7955 18.7369C11.5433 18.609 11.2468 18.5451 10.9059 18.5451C10.5721 18.5451 10.2631 18.6055 9.97905 18.7262C9.69496 18.8469 9.46591 19.0192 9.2919 19.2429C9.1179 19.4631 9.02557 19.7259 9.01491 20.0312H7.11328C7.12749 19.4205 7.30327 18.8842 7.64062 18.4226C7.98153 17.9574 8.43608 17.5952 9.00426 17.3359C9.57244 17.0732 10.2099 16.9418 10.9165 16.9418C11.6445 16.9418 12.2766 17.0785 12.8129 17.3519C13.3526 17.6218 13.7699 17.9858 14.0646 18.4439C14.3594 18.902 14.5067 19.408 14.5067 19.962C14.5103 20.5763 14.3292 21.0913 13.9634 21.5067C13.6012 21.9222 13.1254 22.1939 12.5359 22.3217V22.407C13.3029 22.5135 13.8906 22.7976 14.299 23.2592C14.7109 23.7173 14.9151 24.2873 14.9116 24.9691C14.9116 25.5799 14.7376 26.1268 14.3896 26.6097C14.0451 27.0891 13.5692 27.4656 12.962 27.739C12.3583 28.0124 11.6658 28.1491 10.8846 28.1491ZM20.8705 16C18.7705 16 17.2405 17.215 17.2405 18.97C17.2405 20.695 18.7705 21.94 20.8705 21.94C22.9855 21.94 24.5155 20.695 24.5155 18.97C24.5155 17.215 22.9855 16 20.8705 16ZM20.8705 17.62C21.8905 17.62 22.6105 18.1 22.6105 18.97C22.6105 19.825 21.8905 20.305 20.8705 20.305C19.8655 20.305 19.1455 19.825 19.1455 18.97C19.1455 18.1 19.8655 17.62 20.8705 17.62ZM19.9405 23.32V28.915H21.9355V23.32H19.9405ZM26.0155 15.445V29.335H27.9955V15.445H26.0155ZM16.6555 24.37C19.0555 24.355 22.3405 24.325 25.3555 23.725L25.2205 22.27C22.2805 22.72 18.8455 22.75 16.4155 22.75L16.6555 24.37Z" fill="white"/>
</svg>
