<svg width="18" height="16" viewBox="0 0 18 16" fill="none" xmlns="http://www.w3.org/2000/svg">
<path d="M0.634766 4C0.634766 1.79086 2.42563 0 4.63477 0H13.058C15.2672 0 17.058 1.79086 17.058 4V12C17.058 14.2091 15.2672 16 13.058 16H4.63477C2.42563 16 0.634766 14.2091 0.634766 12V4Z" fill="#FF9E68"/>
<path d="M7.88838 11.4664C7.68308 11.4664 7.47779 11.3997 7.34093 11.1997L4.19314 8.13307C3.85099 7.79974 3.85099 7.33307 4.19314 6.99974C4.53529 6.66641 5.0143 6.66641 5.35645 6.99974L7.88838 9.46641L12.4048 5.06641C12.7469 4.73307 13.2259 4.73307 13.5681 5.06641C13.9102 5.39974 13.9102 5.86641 13.5681 6.19974L8.50425 11.1331C8.29896 11.3997 8.09367 11.4664 7.88838 11.4664Z" fill="white"/>
</svg>
