<svg width="61" height="26" viewBox="0 0 61 26" fill="none" xmlns="http://www.w3.org/2000/svg">
<path d="M0 5C0 2.23858 2.23858 0 5 0H55.2421C58.0035 0 60.2421 2.23858 60.2421 5V21C60.2421 23.7614 58.0035 26 55.2421 26H5C2.23858 26 0 23.7614 0 21V5Z" fill="#EF2828"/>
<path d="M28.7045 13.1818C28.7045 14.4508 28.464 15.5303 27.983 16.4205C27.5057 17.3106 26.8542 17.9905 26.0284 18.4602C25.2064 18.9261 24.2822 19.1591 23.2557 19.1591C22.2216 19.1591 21.2936 18.9242 20.4716 18.4545C19.6496 17.9848 19 17.3049 18.5227 16.4148C18.0455 15.5246 17.8068 14.447 17.8068 13.1818C17.8068 11.9129 18.0455 10.8333 18.5227 9.94318C19 9.05303 19.6496 8.375 20.4716 7.90909C21.2936 7.43939 22.2216 7.20455 23.2557 7.20455C24.2822 7.20455 25.2064 7.43939 26.0284 7.90909C26.8542 8.375 27.5057 9.05303 27.983 9.94318C28.464 10.8333 28.7045 11.9129 28.7045 13.1818ZM26.2102 13.1818C26.2102 12.3598 26.0871 11.6667 25.8409 11.1023C25.5985 10.5379 25.2557 10.1098 24.8125 9.81818C24.3693 9.52652 23.8504 9.38068 23.2557 9.38068C22.661 9.38068 22.142 9.52652 21.6989 9.81818C21.2557 10.1098 20.911 10.5379 20.6648 11.1023C20.4223 11.6667 20.3011 12.3598 20.3011 13.1818C20.3011 14.0038 20.4223 14.697 20.6648 15.2614C20.911 15.8258 21.2557 16.2538 21.6989 16.5455C22.142 16.8371 22.661 16.983 23.2557 16.983C23.8504 16.983 24.3693 16.8371 24.8125 16.5455C25.2557 16.2538 25.5985 15.8258 25.8409 15.2614C26.0871 14.697 26.2102 14.0038 26.2102 13.1818ZM40.2599 7.36364V19H38.1349L33.0724 11.6761H32.9872V19H30.527V7.36364H32.6861L37.7088 14.6818H37.8111V7.36364H40.2599Z" fill="white"/>
</svg>
