<svg width="61" height="26" viewBox="0 0 61 26" fill="none" xmlns="http://www.w3.org/2000/svg">
<path d="M0 5C0 2.23858 2.23858 0 5 0H55.2421C58.0035 0 60.2421 2.23858 60.2421 5V21C60.2421 23.7614 58.0035 26 55.2421 26H5C2.23858 26 0 23.7614 0 21V5Z" fill="#575757"/>
<path d="M24.7045 14.1818C24.7045 15.4508 24.464 16.5303 23.983 17.4205C23.5057 18.3106 22.8542 18.9905 22.0284 19.4602C21.2064 19.9261 20.2822 20.1591 19.2557 20.1591C18.2216 20.1591 17.2936 19.9242 16.4716 19.4545C15.6496 18.9848 15 18.3049 14.5227 17.4148C14.0455 16.5246 13.8068 15.447 13.8068 14.1818C13.8068 12.9129 14.0455 11.8333 14.5227 10.9432C15 10.053 15.6496 9.375 16.4716 8.90909C17.2936 8.43939 18.2216 8.20455 19.2557 8.20455C20.2822 8.20455 21.2064 8.43939 22.0284 8.90909C22.8542 9.375 23.5057 10.053 23.983 10.9432C24.464 11.8333 24.7045 12.9129 24.7045 14.1818ZM22.2102 14.1818C22.2102 13.3598 22.0871 12.6667 21.8409 12.1023C21.5985 11.5379 21.2557 11.1098 20.8125 10.8182C20.3693 10.5265 19.8504 10.3807 19.2557 10.3807C18.661 10.3807 18.142 10.5265 17.6989 10.8182C17.2557 11.1098 16.911 11.5379 16.6648 12.1023C16.4223 12.6667 16.3011 13.3598 16.3011 14.1818C16.3011 15.0038 16.4223 15.697 16.6648 16.2614C16.911 16.8258 17.2557 17.2538 17.6989 17.5455C18.142 17.8371 18.661 17.983 19.2557 17.983C19.8504 17.983 20.3693 17.8371 20.8125 17.5455C21.2557 17.2538 21.5985 16.8258 21.8409 16.2614C22.0871 15.697 22.2102 15.0038 22.2102 14.1818ZM26.527 20V8.36364H34.2315V10.392H28.9872V13.1648H33.7202V15.1932H28.9872V20H26.527ZM35.8864 20V8.36364H43.5909V10.392H38.3466V13.1648H43.0795V15.1932H38.3466V20H35.8864Z" fill="white"/>
</svg>
