<svg width="72" height="72" viewBox="0 0 72 72" fill="none" xmlns="http://www.w3.org/2000/svg">
<circle cx="36" cy="36" r="34.5" fill="white" stroke="#EEEEEE"/>
<path fill-rule="evenodd" clip-rule="evenodd" d="M37.2 41.9441V42.4368C37.2 42.9891 36.7523 43.4368 36.2 43.4368H35.8C35.2477 43.4368 34.8 42.9891 34.8 42.4368V39.4368L34.8 39.0067C34.4361 38.7976 34.1336 38.4965 33.9229 38.1335C33.7123 37.7704 33.6009 37.3584 33.6 36.9387C33.6148 36.3121 33.874 35.7162 34.3224 35.2783C34.7707 34.8404 35.3726 34.5952 35.9993 34.5952C36.6261 34.5952 37.2279 34.8404 37.6763 35.2783C38.1246 35.7162 38.3839 36.3121 38.3987 36.9387C38.3987 37.8253 37.9133 38.5907 37.2 39.0067V41.9387C37.2 41.9405 37.2 41.9423 37.2 41.9441ZM33.0035 25.9092C32.2086 26.7039 31.7614 27.7814 31.76 28.9053H40.2387C40.2376 27.7815 39.7907 26.704 38.996 25.9093C38.2013 25.1146 37.1238 24.6677 36 24.6667C34.876 24.6677 33.7984 25.1146 33.0035 25.9092ZM42.9053 28.9053H44.7987C45.219 28.9052 45.6353 28.9878 46.0237 29.1485C46.4121 29.3093 46.765 29.545 47.0623 29.8421C47.3596 30.1393 47.5954 30.4921 47.7563 30.8804C47.9172 31.2688 48 31.685 48 32.1053V45.7053C48 46.1257 47.9172 46.5419 47.7563 46.9302C47.5954 47.3186 47.3596 47.6714 47.0623 47.9685C46.765 48.2657 46.4121 48.5014 46.0237 48.6621C45.6353 48.8229 45.219 48.9055 44.7987 48.9053H27.2C26.3513 48.9053 25.5374 48.5682 24.9373 47.9681C24.3371 47.368 24 46.554 24 45.7053V32.1053C24 31.2566 24.3371 30.4427 24.9373 29.8426C25.5374 29.2425 26.3513 28.9053 27.2 28.9053H29.0933C29.0955 27.0743 29.8238 25.319 31.1187 24.0244C32.4135 22.7298 34.169 22.0018 36 22C37.8309 22.0018 39.5862 22.7299 40.8809 24.0245C42.1755 25.3191 42.9036 27.0745 42.9053 28.9053Z" fill="#FF9052"/>
</svg>
