<svg width="170" height="46" viewBox="0 0 170 46" fill="none" xmlns="http://www.w3.org/2000/svg">
<path d="M0 9C0 4.02944 4.02944 0 9 0H161C165.971 0 170 4.02944 170 9V35.903C170 41.4794 165.479 46 159.903 46H10.097C4.52057 46 0 41.4794 0 35.903V9Z" fill="#FF9052"/>
<g clip-path="url(#clip0_909_1108)">
<path d="M64.4175 14.7458V23.4923H66.7676V14.7458H64.4175ZM55.9538 24.1991V30.8252H66.7676V24.1991H64.4529V25.7187H58.2685V24.1991H55.9538ZM58.2685 27.5033H64.4529V28.9699H58.2685V27.5033ZM57.9151 15.4172C55.3883 15.4172 53.48 17.0252 53.48 19.2516C53.48 21.4956 55.3883 23.1036 57.9151 23.1036C60.4419 23.1036 62.3325 21.4956 62.3325 19.2516C62.3325 17.0252 60.4419 15.4172 57.9151 15.4172ZM57.9151 17.3432C59.152 17.3432 60.0531 18.0677 60.0531 19.2516C60.0531 20.4708 59.152 21.1776 57.9151 21.1776C56.6782 21.1776 55.7594 20.4708 55.7594 19.2516C55.7594 18.0677 56.6782 17.3432 57.9151 17.3432ZM79.2057 22.1317C76.6436 21.3719 75.5304 19.552 75.4951 17.6966H78.6756V15.8236H69.8761V17.6966H73.1097C73.0743 19.7286 71.9081 21.796 69.2753 22.6795L70.4415 24.4995C72.3499 23.881 73.6398 22.5911 74.3642 20.9832C75.071 22.3261 76.3079 23.4039 78.0925 23.934L79.2057 22.1317ZM76.997 29.235C74.912 29.235 73.7988 28.7932 73.7988 27.8744C73.7988 26.9379 74.912 26.4961 76.997 26.4961C79.0644 26.4961 80.1776 26.9379 80.1776 27.8744C80.1776 28.7932 79.0644 29.235 76.997 29.235ZM76.997 24.6938C73.6044 24.6938 71.4841 25.8777 71.4841 27.8744C71.4841 29.8534 73.6044 31.0196 76.997 31.0196C80.3719 31.0196 82.4923 29.8534 82.4923 27.8744C82.4923 25.8777 80.3719 24.6938 76.997 24.6938ZM82.3156 18.4918V14.7458H79.9832V24.4111H82.3156V20.4001H84.4713V18.4918H82.3156ZM90.4599 25.7894C89.3644 25.7894 88.5516 25.0472 88.5516 23.8104C88.5516 22.5735 89.3644 21.8137 90.4599 21.8137C91.5555 21.8137 92.3506 22.5735 92.3506 23.7927C92.3506 25.0472 91.5555 25.7894 90.4599 25.7894ZM90.4599 19.923C88.0922 19.923 86.3252 21.531 86.3252 23.7927C86.3252 26.0897 88.0922 27.6977 90.4599 27.6977C92.81 27.6977 94.5593 26.0897 94.5593 23.7927C94.5593 21.531 92.81 19.923 90.4599 19.923ZM91.6085 15.0285H89.2761V17.1489H85.6714V19.0042H95.1424V17.1489H91.6085V15.0285ZM100.867 21.1069H98.535V14.7458H96.2026V31.0196H98.535V23.0329H100.867V21.1069ZM102.916 16.4244V18.2797H108.34C108.005 21.8844 106.202 24.4288 102.05 26.4255L103.269 28.2631C109.047 25.4713 110.726 21.4073 110.726 16.4244H102.916ZM113.217 14.7281V31.0019H115.567V14.7281H113.217Z" fill="white"/>
</g>
<defs>
<clipPath id="clip0_909_1108">
<rect width="109.097" height="31" fill="white" transform="translate(30.4512 7.5)"/>
</clipPath>
</defs>
</svg>
