<svg width="170" height="46" viewBox="0 0 170 46" fill="none" xmlns="http://www.w3.org/2000/svg">
<path d="M0 9C0 4.02944 4.02944 0 9 0H161C165.971 0 170 4.02944 170 9V35.903C170 41.4794 165.479 46 159.903 46H10.097C4.52057 46 0 41.4794 0 35.903V9Z" fill="#FF9052"/>
<g clip-path="url(#clip0_909_1119)">
<path d="M43.1623 23.9164V27.6447H45.5123V23.9164H43.1623ZM44.3461 15.5409C40.8475 15.5409 38.2324 17.3256 38.2324 20.0467C38.2324 22.8032 40.8475 24.5702 44.3461 24.5702C47.8447 24.5702 50.4599 22.8032 50.4599 20.0467C50.4599 17.3256 47.8447 15.5409 44.3461 15.5409ZM44.3461 17.3962C46.5902 17.3962 48.1451 18.3858 48.1451 20.0467C48.1451 21.743 46.5902 22.7148 44.3461 22.7148C42.1021 22.7148 40.5471 21.743 40.5471 20.0467C40.5471 18.3858 42.1021 17.3962 44.3461 17.3962ZM36.9602 27.2736V29.1819H51.7674V27.2736H36.9602ZM54.4872 15.3996V17.2549H66.6793V15.3996H54.4872ZM54.6109 20.0114V21.849H66.5556V20.0114H54.6109ZM56.5722 16.1064V20.9655H58.9223V16.1064H56.5722ZM62.2442 16.1064V20.9655H64.5942V16.1064H62.2442ZM53.1973 23.1389V24.9942H67.9868V23.1389H53.1973ZM54.9819 28.9169V30.7899H66.3259V28.9169H54.9819ZM54.9819 26.0897V29.5177H57.332V26.0897H54.9819ZM72.3145 19.2339V19.658C72.3145 22.1671 71.484 24.8352 69.1516 26.1958L70.4769 27.9627C73.092 26.4608 74.0815 23.0506 74.0815 19.658V19.2339H72.3145ZM72.7739 19.2339V19.658C72.7739 22.9975 73.7811 26.1958 76.4316 27.574L77.7038 25.8424C75.3891 24.6055 74.5409 22.1141 74.5409 19.658V19.2339H72.7739ZM69.6994 17.4669V19.3576H77.1384V17.4669H69.6994ZM72.3145 15.2582V18.9865H74.5409V15.2582H72.3145ZM81.3968 14.7105V31.0726H83.6231V14.7105H81.3968ZM79.4354 20.9832V22.8915H82.1566V20.9832H79.4354ZM77.8805 14.9578V30.3305H80.0715V14.9578H77.8805ZM86.6079 22.0434V23.8987H88.0039C91.4494 23.8987 93.5168 23.8634 95.8139 23.4746L95.5842 21.6546C93.3401 22.008 91.3788 22.0434 88.0039 22.0434H86.6079ZM86.6079 15.8413V22.8032H88.9403V17.6966H94.471V15.8413H86.6079ZM88.2159 18.9512V20.7535H93.9939V18.9512H88.2159ZM96.9447 14.7281V24.6055H99.3125V14.7281H96.9447ZM93.7818 24.8529C90.3186 24.8529 88.1805 26.0014 88.1805 27.9627C88.1805 29.9417 90.3186 31.0726 93.7818 31.0726C97.2274 31.0726 99.3831 29.9417 99.3831 27.9627C99.3831 26.0014 97.2274 24.8529 93.7818 24.8529ZM93.7818 26.6552C95.9022 26.6552 97.0331 27.0792 97.0331 27.9627C97.0331 28.8639 95.9022 29.288 93.7818 29.288C91.6438 29.288 90.5306 28.8639 90.5306 27.9627C90.5306 27.0792 91.6438 26.6552 93.7818 26.6552ZM112.422 14.6928V31.0549H114.79V14.6928H112.422ZM114.171 20.9479V22.8739H117.051V20.9479H114.171ZM108.128 16.3891V16.7955C108.128 21.2306 106.096 24.2344 101.803 26.4608L103.11 28.2455C108.552 25.5066 110.425 21.3013 110.425 16.3891H108.128ZM102.704 16.3891V18.2797H109.33V16.3891H102.704ZM129.49 14.7105V31.0726H131.857V14.7105H129.49ZM124.666 16.4067V16.8308C124.666 21.2129 122.969 24.1814 118.269 26.4431L119.489 28.3161C125.302 25.5066 126.998 21.4073 126.998 16.4067H124.666ZM119.135 16.4067V18.2621H125.779V16.4067H119.135Z" fill="white"/>
</g>
<defs>
<clipPath id="clip0_909_1119">
<rect width="109.097" height="31" fill="white" transform="translate(30.4512 7.5)"/>
</clipPath>
</defs>
</svg>
