<svg width="96" height="31" viewBox="0 0 96 31" fill="none" xmlns="http://www.w3.org/2000/svg">
<path d="M7.408 13.856C4.464 13.856 2.656 14.848 2.656 16.544C2.656 18.24 4.464 19.232 7.408 19.232C10.352 19.232 12.16 18.24 12.16 16.544C12.16 14.848 10.352 13.856 7.408 13.856ZM7.408 14.928C9.552 14.928 10.864 15.52 10.864 16.544C10.864 17.584 9.552 18.176 7.408 18.176C5.264 18.176 3.952 17.584 3.952 16.544C3.952 15.52 5.264 14.928 7.408 14.928ZM10.688 4.784V13.472H12.016V4.784H10.688ZM11.648 8.416V9.536H14.16V8.416H11.648ZM1.392 5.696V12.368H8.08V5.696H6.784V7.856H2.704V5.696H1.392ZM2.704 8.912H6.784V11.296H2.704V8.912ZM26.2708 10.544V11.664H28.9428V10.544H26.2708ZM25.2948 4.768V19.248H26.6388V4.768H25.2948ZM16.0788 6.192V15.152H17.4068V6.192H16.0788ZM16.0788 14.464V15.584H17.2308C19.4227 15.584 21.6468 15.44 24.1108 14.928L23.9508 13.824C21.5668 14.32 19.3748 14.464 17.2308 14.464H16.0788ZM40.0135 4.768V19.248H41.3575V4.768H40.0135ZM40.9895 10.64V11.744H43.6615V10.64H40.9895ZM36.3175 6.336V6.544C36.3175 10.368 34.3175 13.456 30.3175 15.488L31.0535 16.512C35.7255 14.16 37.6135 10.448 37.6135 6.336H36.3175ZM30.9895 6.336V7.424H37.0055V6.336H30.9895ZM55.4843 4.784V19.248H56.8123V4.784H55.4843ZM51.2443 6.336V6.56C51.2443 10.4 49.3083 13.472 45.1323 15.488L45.8363 16.56C50.6683 14.192 52.5563 10.528 52.5563 6.336H51.2443ZM45.7883 6.336V7.424H51.8203V6.336H45.7883Z" fill="white"/>
<rect x="73" y="1" width="21.2941" height="25.0839" stroke="white" stroke-width="2"/>
<path d="M73.2939 26.2669V1.28928L88.0879 5.08876V29.2761L73.2939 26.2669Z" fill="#D9D9D9" stroke="white" stroke-width="2"/>
<rect x="83" y="14" width="2" height="5" fill="white"/>
</svg>
