<svg width="96" height="22" viewBox="0 0 96 22" fill="none" xmlns="http://www.w3.org/2000/svg">
<path d="M32.412 11.718C34.914 11.34 37.236 10.098 38.262 8.352C39.288 10.098 41.592 11.34 44.094 11.718L44.616 10.53C41.736 10.134 39 8.352 39 6.372H44.148V5.184H39V3.186H37.524V5.184H32.376V6.372H37.506C37.506 8.37 34.788 10.134 31.872 10.53L32.412 11.718ZM45.57 12.942H30.972V14.148H37.524V19.35H39V14.148H45.57V12.942ZM48.0966 4.914V6.138H54.0186C53.6766 9.954 51.4626 13.05 47.3406 15.12L48.1506 16.272C53.3706 13.662 55.4766 9.504 55.4766 4.914H48.0966ZM62.2446 9.738H59.6526V3.186H58.1766V19.332H59.6526V10.962H62.2446V9.738ZM68.2452 14.508C66.7872 14.508 65.7252 13.464 65.7252 12.024C65.7252 10.566 66.7872 9.522 68.2452 9.522C69.7212 9.522 70.7832 10.566 70.7832 12.024C70.7832 13.464 69.7212 14.508 68.2452 14.508ZM68.2452 8.298C65.9772 8.298 64.3392 9.846 64.3392 12.024C64.3392 14.22 65.9772 15.732 68.2452 15.732C70.5492 15.732 72.1872 14.22 72.1872 12.024C72.1872 9.846 70.5492 8.298 68.2452 8.298ZM68.9652 3.384H67.4892V5.778H63.4212V6.966H72.9432V5.778H68.9652V3.384ZM78.5952 9.828H75.9492V3.204H74.4732V19.332H75.9492V11.07H78.5952V9.828ZM80.7438 4.932V6.12H86.8098C86.5038 9.954 84.3438 13.05 80.0058 15.12L80.7978 16.326C86.1618 13.698 88.3038 9.594 88.3038 4.932H80.7438ZM91.5618 3.186V19.332H93.0378V3.186H91.5618Z" fill="#C1C1C1"/>
<g clip-path="url(#clip0_515_2320)">
<path d="M0 7C0 4.79086 1.79086 3 4 3H12.4233C14.6324 3 16.4233 4.79086 16.4233 7V15C16.4233 17.2091 14.6324 19 12.4233 19H4C1.79086 19 0 17.2091 0 15V7Z" fill="#C1C1C1"/>
<path d="M13.0018 3H3.42152C2.51441 3.00106 1.64476 3.35259 1.00334 3.97748C0.361916 4.60237 0.00108658 5.4496 0 6.33333L0 15.6667C0.00108658 16.5504 0.361916 17.3976 1.00334 18.0225C1.64476 18.6474 2.51441 18.9989 3.42152 19H13.0018C13.9089 18.9989 14.7785 18.6474 15.4199 18.0225C16.0614 17.3976 16.4222 16.5504 16.4233 15.6667V6.33333C16.4222 5.4496 16.0614 4.60237 15.4199 3.97748C14.7785 3.35259 13.9089 3.00106 13.0018 3V3ZM15.0547 15.6667C15.0547 16.1971 14.8384 16.7058 14.4534 17.0809C14.0684 17.456 13.5462 17.6667 13.0018 17.6667H3.42152C2.87705 17.6667 2.35489 17.456 1.96989 17.0809C1.5849 16.7058 1.36861 16.1971 1.36861 15.6667V6.33333C1.36861 5.8029 1.5849 5.29419 1.96989 4.91912C2.35489 4.54405 2.87705 4.33333 3.42152 4.33333H13.0018C13.5462 4.33333 14.0684 4.54405 14.4534 4.91912C14.8384 5.29419 15.0547 5.8029 15.0547 6.33333V15.6667Z" fill="#C1C1C1"/>
</g>
<g clip-path="url(#clip1_515_2320)">
<path fill-rule="evenodd" clip-rule="evenodd" d="M9.12753 11.1272H13.1234C13.2022 11.1272 13.2803 11.1117 13.3531 11.0815C13.4259 11.0514 13.4921 11.0072 13.5478 10.9515C13.6036 10.8958 13.6478 10.8296 13.678 10.7568C13.7082 10.684 13.7237 10.606 13.7237 10.5272C13.7237 10.4484 13.7082 10.3703 13.6781 10.2975C13.648 10.2247 13.6038 10.1585 13.5481 10.1028C13.4924 10.047 13.4262 10.0028 13.3534 9.9726C13.2806 9.94242 13.2026 9.92687 13.1237 9.92685L9.12753 9.9272L9.12753 5.93063C9.12222 5.77498 9.05664 5.62747 8.94463 5.51925C8.83262 5.41103 8.68295 5.35056 8.5272 5.35061C8.37145 5.35065 8.22182 5.41121 8.10987 5.5195C7.99793 5.62778 7.93243 5.77533 7.92722 5.93099L7.92757 9.9272L3.93136 9.92685C3.81283 9.92726 3.69707 9.9627 3.59864 10.0287C3.50021 10.0948 3.42349 10.1884 3.37815 10.2979C3.3328 10.4074 3.32085 10.5279 3.34379 10.6442C3.36674 10.7605 3.42355 10.8674 3.50709 10.9514C3.61563 11.06 3.76554 11.1272 3.931 11.1272L7.92757 11.1272L7.92721 15.1234C7.92709 15.2022 7.94252 15.2803 7.97262 15.3531C8.00273 15.426 8.04692 15.4922 8.10266 15.5479C8.1584 15.6037 8.22459 15.6478 8.29744 15.6779C8.37029 15.7081 8.44837 15.7235 8.5272 15.7234C8.60604 15.7234 8.68413 15.7079 8.75699 15.6777C8.82984 15.6476 8.89604 15.6034 8.95179 15.5476C9.00755 15.4919 9.05177 15.4257 9.08192 15.3528C9.11207 15.28 9.12757 15.2019 9.12753 15.123L9.12753 11.1272Z" fill="white"/>
</g>
<defs>
<clipPath id="clip0_515_2320">
<path d="M0 7C0 4.79086 1.79086 3 4 3H12.4233C14.6324 3 16.4233 4.79086 16.4233 7V15C16.4233 17.2091 14.6324 19 12.4233 19H4C1.79086 19 0 17.2091 0 15V7Z" fill="white"/>
</clipPath>
<clipPath id="clip1_515_2320">
<rect width="12" height="12" fill="white" transform="translate(8.48535 2) rotate(45)"/>
</clipPath>
</defs>
</svg>
