<svg width="83" height="24" viewBox="0 0 83 24" fill="none" xmlns="http://www.w3.org/2000/svg">
<path d="M10.8785 4.608V12.576H13.0225V4.608H10.8785ZM3.1665 13.216V19.264H13.0225V13.216H10.9105V14.592H5.2625V13.216H3.1665ZM5.2625 16.224H10.9105V17.568H5.2625V16.224ZM4.9585 5.216C2.6545 5.216 0.9265 6.672 0.9265 8.72C0.9265 10.768 2.6545 12.224 4.9585 12.224C7.2625 12.224 8.9745 10.768 8.9745 8.72C8.9745 6.672 7.2625 5.216 4.9585 5.216ZM4.9585 6.976C6.0785 6.976 6.8945 7.632 6.8945 8.72C6.8945 9.824 6.0785 10.464 4.9585 10.464C3.8225 10.464 3.0065 9.824 3.0065 8.72C3.0065 7.632 3.8225 6.976 4.9585 6.976ZM18.7173 6.256V7.184C18.7173 9.072 17.6773 11.008 15.2133 11.824L16.2693 13.504C19.1333 12.56 20.4613 10.016 20.4613 7.184V6.256H18.7173ZM19.1493 6.256V7.184C19.1493 9.824 20.4293 12.144 23.2453 12.992L24.2533 11.328C21.8693 10.608 20.8773 8.912 20.8773 7.184V6.256H19.1493ZM15.7733 5.6V7.296H23.7733V5.6H15.7733ZM24.9573 4.608V13.392H27.0853V4.608H24.9573ZM26.4933 8.016V9.76H29.0533V8.016H26.4933ZM22.2533 13.664C19.1653 13.664 17.2293 14.736 17.2293 16.544C17.2293 18.352 19.1653 19.424 22.2533 19.424C25.3253 19.424 27.2613 18.352 27.2613 16.544C27.2613 14.736 25.3253 13.664 22.2533 13.664ZM22.2533 15.328C24.1413 15.328 25.1493 15.712 25.1493 16.544C25.1493 17.376 24.1413 17.792 22.2533 17.792C20.3653 17.792 19.3413 17.376 19.3413 16.544C19.3413 15.712 20.3653 15.328 22.2533 15.328ZM39.644 4.608V19.424H41.756V4.608H39.644ZM41.276 10.384V12.16H43.9V10.384H41.276ZM30.076 6.8V8.496H38.7V6.8H30.076ZM34.412 9.328C32.252 9.328 30.652 10.8 30.652 12.864C30.652 14.928 32.252 16.4 34.412 16.4C36.572 16.4 38.172 14.928 38.172 12.864C38.172 10.8 36.572 9.328 34.412 9.328ZM34.412 11.056C35.42 11.056 36.14 11.728 36.14 12.864C36.14 14 35.42 14.672 34.412 14.672C33.404 14.672 32.684 14 32.684 12.864C32.684 11.728 33.404 11.056 34.412 11.056ZM33.34 4.848V7.44H35.468V4.848H33.34ZM55.0668 4.608V19.424H57.2108V4.608H55.0668ZM50.6988 6.144V6.528C50.6988 10.496 49.1628 13.184 44.9068 15.232L46.0108 16.928C51.2748 14.384 52.8108 10.672 52.8108 6.144H50.6988ZM45.6908 6.144V7.824H51.7068V6.144H45.6908Z" fill="#FF9052"/>
<path fill-rule="evenodd" clip-rule="evenodd" d="M67.8921 19.1187C68.2198 19.4463 68.7509 19.4463 69.0786 19.1187L75.7277 12.4696C75.7497 12.4475 75.7703 12.4246 75.7894 12.4008L76.3377 11.8525L69.077 4.59188C68.7501 4.265 68.2202 4.265 67.8933 4.59188C67.5664 4.91877 67.5664 5.44875 67.8933 5.77563L73.971 11.8533L67.8921 17.9322C67.5645 18.2599 67.5645 18.7911 67.8921 19.1187Z" fill="#FF9052"/>
</svg>
