<svg width="66" height="26" viewBox="0 0 66 26" fill="none" xmlns="http://www.w3.org/2000/svg">
<path d="M0 5C0 2.23858 2.23858 0 5 0L61 0C63.7614 0 66 2.23858 66 5V21C66 23.7614 63.7614 26 61 26L5 26C2.23858 26 0 23.7614 0 21L0 5Z" fill="#C5C5C5"/>
<path d="M12.224 6.04V6.728C12.224 8.472 10.544 10.408 7.136 10.856L7.968 12.568C11.856 11.992 14.096 9.576 14.096 6.728V6.04H12.224ZM12.624 6.04V6.728C12.624 9.576 14.864 11.992 18.752 12.568L19.568 10.856C16.176 10.408 14.48 8.456 14.48 6.728V6.04L12.624 6.04ZM12.24 15L12.24 20.424H14.352L14.352 15H12.24ZM6.656 13.656V15.384L20.048 15.384V13.656L6.656 13.656ZM29.3908 9.192V10.92H32.2068V9.192H29.3908ZM31.6308 5.608L31.6308 14.408L33.7588 14.408V5.608L31.6308 5.608ZM28.7348 14.728C25.5988 14.728 23.6628 15.8 23.6628 17.592C23.6628 19.4 25.5988 20.44 28.7348 20.44C31.8708 20.44 33.8068 19.4 33.8068 17.592C33.8068 15.8 31.8708 14.728 28.7348 14.728ZM28.7348 16.344C30.6708 16.344 31.6948 16.744 31.6948 17.592C31.6948 18.424 30.6708 18.824 28.7348 18.824C26.8148 18.824 25.7908 18.424 25.7908 17.592C25.7908 16.744 26.8148 16.344 28.7348 16.344ZM24.7828 7.096V8.024C24.7828 9.928 23.7268 11.896 21.2788 12.728L22.3668 14.408C25.1988 13.448 26.5108 10.856 26.5108 8.024V7.096L24.7828 7.096ZM25.2308 7.096V8.024C25.2308 10.664 26.4948 13.128 29.2468 14.04L30.2868 12.36C27.9508 11.576 26.9428 9.768 26.9428 8.024V7.096L25.2308 7.096ZM21.8548 6.504V8.2H29.8228V6.504L21.8548 6.504Z" fill="white"/>
<path d="M42 17.6671V21H45.3329L55.1626 11.1703L51.8297 7.83738L42 17.6671ZM57.74 8.59283C58.0867 8.24622 58.0867 7.68629 57.74 7.33967L55.6603 5.25996C55.3137 4.91335 54.7538 4.91335 54.4072 5.25996L52.7807 6.8864L56.1136 10.2193L57.74 8.59283Z" fill="white"/>
</svg>
