<svg width="75" height="38" viewBox="0 0 75 38" fill="none" xmlns="http://www.w3.org/2000/svg">
<path d="M0 0H65C70.5228 0 75 4.47715 75 10V38H0V0Z" fill="#D9D9D9" fill-opacity="0.43"/>
<path d="M47 23.6671V27H50.3329L60.1626 17.1703L56.8297 13.8374L47 23.6671ZM62.74 14.5928C63.0867 14.2462 63.0867 13.6863 62.74 13.3397L60.6603 11.26C60.3137 10.9133 59.7538 10.9133 59.4072 11.26L57.7807 12.8864L61.1136 16.2193L62.74 14.5928Z" fill="white"/>
<path d="M16.64 13.296V14.096C16.64 16.16 14.096 17.888 11.456 18.288L11.984 19.36C14.992 18.848 17.808 16.864 17.808 14.096V13.296H16.64ZM16.88 13.296V14.096C16.88 16.832 19.712 18.848 22.688 19.36L23.216 18.288C20.608 17.888 18.032 16.112 18.032 14.096V13.296H16.88ZM16.64 21.744V27.248H17.952V21.744H16.64ZM10.8 20.928V22.032H23.872V20.928H10.8ZM33.2308 16.528V17.632H36.4948V16.528H33.2308ZM36.0788 12.784V21.408H37.4068V12.784H36.0788ZM32.6548 21.84C29.6628 21.84 27.8228 22.848 27.8228 24.544C27.8228 26.256 29.6628 27.232 32.6548 27.232C35.6308 27.232 37.4708 26.256 37.4708 24.544C37.4708 22.848 35.6308 21.84 32.6548 21.84ZM32.6548 22.88C34.8308 22.88 36.1588 23.488 36.1588 24.544C36.1588 25.584 34.8308 26.192 32.6548 26.192C30.4788 26.192 29.1508 25.584 29.1508 24.544C29.1508 23.488 30.4788 22.88 32.6548 22.88ZM29.1988 14.24V15.408C29.1988 17.488 27.7108 19.424 25.5668 20.208L26.2548 21.264C28.6548 20.368 30.2868 18.08 30.2868 15.408V14.24H29.1988ZM29.4548 14.24V15.408C29.4548 17.84 31.0068 20.016 33.3588 20.864L34.0308 19.808C31.9348 19.072 30.5268 17.28 30.5268 15.408V14.24H29.4548ZM25.9668 13.84V14.928H33.6948V13.84H25.9668Z" fill="white"/>
</svg>
