<svg width="26" height="24" viewBox="0 0 26 24" fill="none" xmlns="http://www.w3.org/2000/svg">
<g clip-path="url(#clip0_515_2284)">
<path d="M21.2594 12C21.2594 13.1046 22.1785 14 23.3123 14C24.4461 14 25.3652 13.1046 25.3652 12C25.3652 10.8954 24.4461 10 23.3123 10C22.1785 10 21.2594 10.8954 21.2594 12Z" fill="black"/>
<path d="M10.9947 12C10.9947 13.1046 11.9138 14 13.0477 14C14.1815 14 15.1006 13.1046 15.1006 12C15.1006 10.8954 14.1815 10 13.0477 10C11.9138 10 10.9947 10.8954 10.9947 12Z" fill="black"/>
<path d="M0.730055 12C0.730055 13.1046 1.64919 14 2.783 14C3.9168 14 4.83594 13.1046 4.83594 12C4.83594 10.8954 3.9168 10 2.783 10C1.64919 10 0.730055 10.8954 0.730055 12Z" fill="black"/>
</g>
<defs>
<clipPath id="clip0_515_2284">
<rect width="24" height="24.6349" fill="white" transform="translate(25.3652) rotate(90)"/>
</clipPath>
</defs>
</svg>
