<svg width="63" height="26" viewBox="0 0 63 26" fill="none" xmlns="http://www.w3.org/2000/svg">
<rect width="63" height="26" rx="5" fill="#FF9052"/>
<path d="M33.472 14.664C30.384 14.664 28.448 15.736 28.448 17.544C28.448 19.368 30.384 20.44 33.472 20.44C36.544 20.44 38.48 19.368 38.48 17.544C38.48 15.736 36.544 14.664 33.472 14.664ZM33.472 16.328C35.36 16.328 36.368 16.712 36.368 17.544C36.368 18.392 35.36 18.792 33.472 18.792C31.584 18.792 30.56 18.392 30.56 17.544C30.56 16.712 31.584 16.328 33.472 16.328ZM36.176 5.608V14.328H38.304V5.608H36.176ZM37.712 9.048V10.808H40.272V9.048L37.712 9.048ZM27.072 6.552V13.512L34.192 13.512V6.552H32.08V8.376H29.184V6.552L27.072 6.552ZM29.184 10.024L32.08 10.024V11.848L29.184 11.848V10.024ZM44.6548 7.256V8.184C44.6548 10.072 43.6148 12.008 41.1508 12.824L42.2068 14.504C45.0708 13.56 46.3988 11.016 46.3988 8.184V7.256L44.6548 7.256ZM45.0868 7.256V8.184C45.0868 10.824 46.3668 13.144 49.1828 13.992L50.1908 12.328C47.8068 11.608 46.8148 9.912 46.8148 8.184V7.256L45.0868 7.256ZM41.7108 6.6V8.296H49.7108V6.6L41.7108 6.6ZM50.8948 5.608V14.392H53.0228V5.608L50.8948 5.608ZM52.4308 9.016V10.76L54.9908 10.76V9.016H52.4308ZM48.1908 14.664C45.1028 14.664 43.1668 15.736 43.1668 17.544C43.1668 19.352 45.1028 20.424 48.1908 20.424C51.2628 20.424 53.1988 19.352 53.1988 17.544C53.1988 15.736 51.2628 14.664 48.1908 14.664ZM48.1908 16.328C50.0788 16.328 51.0868 16.712 51.0868 17.544C51.0868 18.376 50.0788 18.792 48.1908 18.792C46.3028 18.792 45.2788 18.376 45.2788 17.544C45.2788 16.712 46.3028 16.328 48.1908 16.328Z" fill="white"/>
<path d="M20.5865 7.48794L14.7542 5.05098C14.5918 4.98301 14.4095 4.98301 14.2465 5.05098L8.41416 7.48794C8.16366 7.59262 8 7.84074 8 8.11672L8 13.7826C8 16.3636 11.2084 18.874 14.2011 20.4266C14.3894 20.5245 14.6112 20.5245 14.7989 20.4266C17.7916 18.874 21 16.3636 21 13.7826V8.11672C21.0007 7.84142 20.837 7.59262 20.5865 7.48794ZM14.5003 9.00925C15.3133 9.00925 15.9719 9.6795 15.9719 10.5068C15.9719 11.3341 15.3133 12.0036 14.5003 12.0036C13.6874 12.0036 13.0287 11.3334 13.0287 10.5061C13.0287 9.67882 13.6874 9.00925 14.5003 9.00925ZM14.5003 16.7424C13.1797 16.7424 11.2305 15.622 11.2305 14.913C11.2305 14.204 12.1463 12.6793 14.5003 12.6793C16.8544 12.6793 17.7702 14.204 17.7702 14.913C17.7702 15.622 15.821 16.7424 14.5003 16.7424Z" fill="white"/>
</svg>
