<svg width="63" height="25" viewBox="0 0 63 25" fill="none" xmlns="http://www.w3.org/2000/svg">
<path d="M35.0388 14.122C31.5648 14.122 29.3868 15.328 29.3868 17.362C29.3868 19.414 31.5648 20.62 35.0388 20.62C38.4948 20.62 40.6728 19.414 40.6728 17.362C40.6728 15.328 38.4948 14.122 35.0388 14.122ZM35.0388 15.994C37.1628 15.994 38.2968 16.426 38.2968 17.362C38.2968 18.316 37.1628 18.766 35.0388 18.766C32.9148 18.766 31.7628 18.316 31.7628 17.362C31.7628 16.426 32.9148 15.994 35.0388 15.994ZM38.0808 3.934V13.744H40.4748V3.934H38.0808ZM39.8088 7.804V9.784H42.6888V7.804H39.8088ZM27.8388 4.996V12.826H35.8488V4.996H33.4728V7.048H30.2148V4.996H27.8388ZM30.2148 8.902H33.4728V10.954H30.2148V8.902ZM47.6194 5.788V6.832C47.6194 8.956 46.4494 11.134 43.6774 12.052L44.8654 13.942C48.0874 12.88 49.5814 10.018 49.5814 6.832V5.788H47.6194ZM48.1054 5.788V6.832C48.1054 9.802 49.5454 12.412 52.7134 13.366L53.8474 11.494C51.1654 10.684 50.0494 8.776 50.0494 6.832V5.788H48.1054ZM44.3074 5.05V6.958H53.3074V5.05H44.3074ZM54.6394 3.934V13.816H57.0334V3.934H54.6394ZM56.3674 7.768V9.73H59.2474V7.768H56.3674ZM51.5974 14.122C48.1234 14.122 45.9454 15.328 45.9454 17.362C45.9454 19.396 48.1234 20.602 51.5974 20.602C55.0534 20.602 57.2314 19.396 57.2314 17.362C57.2314 15.328 55.0534 14.122 51.5974 14.122ZM51.5974 15.994C53.7214 15.994 54.8554 16.426 54.8554 17.362C54.8554 18.298 53.7214 18.766 51.5974 18.766C49.4734 18.766 48.3214 18.298 48.3214 17.362C48.3214 16.426 49.4734 15.994 51.5974 15.994Z" fill="#FF9052"/>
<path d="M20.8419 3.965L11.1842 0.08125C10.9154 -0.0270833 10.6134 -0.0270833 10.3435 0.08125L0.685807 3.965C0.271004 4.13183 0 4.52725 0 4.96708V13.9967C0 18.1101 5.31279 22.1108 10.2683 24.5852C10.5802 24.7412 10.9475 24.7412 11.2583 24.5852C16.2138 22.1108 21.5266 18.1101 21.5266 13.9967V4.96708C21.5277 4.52833 21.2567 4.13183 20.8419 3.965ZM10.7639 6.3895C12.11 6.3895 13.2007 7.45767 13.2007 8.77608C13.2007 10.0945 12.11 11.1616 10.7639 11.1616C9.41768 11.1616 8.32702 10.0934 8.32702 8.775C8.32702 7.45658 9.41768 6.3895 10.7639 6.3895ZM10.7639 17.2293C8.57701 17.2293 5.34929 16.9282 5.34929 15.7982C5.34929 14.6683 6.86581 12.2384 10.7639 12.2384C14.6619 12.2384 16.1784 14.6683 16.1784 15.7982C16.1784 16.9282 12.9507 17.2293 10.7639 17.2293Z" fill="#FF9052"/>
</svg>
