<svg width="32" height="32" viewBox="0 0 32 32" fill="none" xmlns="http://www.w3.org/2000/svg">
<path fill-rule="evenodd" clip-rule="evenodd" d="M14.3998 17.758L14.3998 28.4137C14.3998 28.6238 14.4411 28.832 14.5215 29.0262C14.6019 29.2204 14.7197 29.3968 14.8683 29.5455C15.0168 29.6941 15.1932 29.8121 15.3874 29.8926C15.5815 29.973 15.7896 30.0145 15.9998 30.0146C16.21 30.0146 16.4181 29.9733 16.6123 29.8929C16.8065 29.8125 16.9829 29.6947 17.1316 29.5461C17.2802 29.3976 17.3982 29.2212 17.4787 29.027C17.5592 28.8329 17.6006 28.6248 17.6007 28.4146L17.5997 17.758L28.2572 17.758C28.6723 17.7439 29.0657 17.569 29.3543 17.2703C29.6429 16.9716 29.8041 16.5725 29.804 16.1572C29.8039 15.7418 29.6424 15.3428 29.3536 15.0443C29.0648 14.7458 28.6714 14.5711 28.2563 14.5572L17.5997 14.5582L17.6007 3.90158C17.5996 3.58552 17.5051 3.27683 17.329 3.01434C17.1529 2.75185 16.9032 2.54729 16.6112 2.42637C16.3191 2.30545 15.9979 2.27357 15.6878 2.33475C15.3777 2.39593 15.0926 2.54744 14.8684 2.77021C14.579 3.05965 14.3998 3.4594 14.3998 3.90064L14.3998 14.5582L3.74327 14.5572C3.53306 14.5569 3.32486 14.598 3.13059 14.6783C2.93632 14.7586 2.7598 14.8764 2.61116 15.0251C2.46253 15.1737 2.34469 15.3502 2.26441 15.5445C2.18412 15.7387 2.14297 15.9469 2.14332 16.1572C2.1432 16.3674 2.18453 16.5756 2.26494 16.7699C2.34535 16.9642 2.46327 17.1407 2.61195 17.2894C2.76063 17.4381 2.93715 17.556 3.13144 17.6364C3.32572 17.7168 3.53395 17.7582 3.74421 17.758L14.3998 17.758Z" fill="#FF9052"/>
</svg>
