<svg width="24" height="24" viewBox="0 0 24 24" fill="none" xmlns="http://www.w3.org/2000/svg">
<path fill-rule="evenodd" clip-rule="evenodd" d="M11.1317 12.8966L11.1317 18.7776C11.1317 18.8936 11.1545 19.0084 11.1988 19.1156C11.2432 19.2228 11.3082 19.3202 11.3902 19.4022C11.4722 19.4843 11.5696 19.5494 11.6767 19.5938C11.7839 19.6382 11.8987 19.6611 12.0147 19.6611C12.1307 19.6612 12.2456 19.6383 12.3528 19.594C12.46 19.5496 12.5573 19.4846 12.6394 19.4026C12.7214 19.3206 12.7865 19.2232 12.831 19.1161C12.8754 19.0089 12.8983 18.8941 12.8983 18.7781L12.8978 12.8966L18.7798 12.8966C19.0089 12.8887 19.226 12.7922 19.3853 12.6274C19.5446 12.4625 19.6336 12.2422 19.6335 12.013C19.6334 11.7838 19.5443 11.5635 19.3849 11.3988C19.2256 11.234 19.0084 11.1376 18.7793 11.13L12.8978 11.1305L12.8983 5.24894C12.8977 5.07449 12.8455 4.90412 12.7483 4.75925C12.6512 4.61438 12.5133 4.50148 12.3522 4.43474C12.191 4.368 12.0137 4.35041 11.8425 4.38418C11.6714 4.41794 11.5141 4.50156 11.3903 4.62451C11.2306 4.78426 11.1317 5.00489 11.1317 5.24842L11.1317 11.1305L5.25015 11.13C5.13414 11.1298 5.01923 11.1525 4.91201 11.1968C4.80478 11.2411 4.70736 11.3061 4.62533 11.3882C4.54329 11.4702 4.47826 11.5676 4.43395 11.6748C4.38964 11.7821 4.36693 11.897 4.36712 12.013C4.36705 12.129 4.38986 12.244 4.43424 12.3512C4.47862 12.4584 4.5437 12.5558 4.62576 12.6379C4.70782 12.72 4.80525 12.785 4.91247 12.8294C5.0197 12.8738 5.13463 12.8966 5.25067 12.8966L11.1317 12.8966Z" fill="#FF9052"/>
</svg>
