<svg width="22" height="20" viewBox="0 0 22 20" fill="none" xmlns="http://www.w3.org/2000/svg">
<path fill-rule="evenodd" clip-rule="evenodd" d="M12.6526 9.99994L17.4864 5.29077C17.5817 5.19791 17.6574 5.08767 17.709 4.96632C17.7607 4.84498 17.7873 4.71492 17.7873 4.58356C17.7873 4.45221 17.7608 4.32213 17.7093 4.20076C17.6577 4.07939 17.5821 3.9691 17.4868 3.87619C17.3915 3.78328 17.2783 3.70956 17.1538 3.65926C17.0292 3.60896 16.8957 3.58305 16.7609 3.58301C16.626 3.58297 16.4925 3.6088 16.3679 3.65904C16.2434 3.70927 16.1301 3.78291 16.0348 3.87577L11.201 8.58577L6.36643 3.87577C6.17171 3.69858 5.91394 3.60203 5.64753 3.6065C5.38113 3.61096 5.12692 3.71609 4.93857 3.89969C4.75022 4.0833 4.64246 4.33102 4.63803 4.59056C4.63361 4.8501 4.73286 5.10117 4.91485 5.29077L9.74945 9.99994L4.91485 14.7091C4.77197 14.8493 4.67482 15.0275 4.63561 15.2213C4.59641 15.4151 4.6169 15.6159 4.69452 15.7984C4.77214 15.9809 4.90341 16.1369 5.07183 16.2469C5.24025 16.3569 5.4383 16.416 5.64107 16.4166C5.90367 16.4166 6.16627 16.3191 6.36643 16.1241L11.201 11.4141L16.0348 16.1241C16.13 16.2172 16.2431 16.291 16.3676 16.3414C16.4922 16.3917 16.6257 16.4177 16.7606 16.4177C16.8954 16.4177 17.029 16.3917 17.1535 16.3414C17.278 16.291 17.3912 16.2172 17.4864 16.1241C17.5818 16.0312 17.6575 15.9209 17.7092 15.7995C17.7608 15.6781 17.7874 15.548 17.7874 15.4166C17.7874 15.2852 17.7608 15.1551 17.7092 15.0337C17.6575 14.9123 17.5818 14.802 17.4864 14.7091L12.6526 9.99994Z" fill="#717171"/>
</svg>
