<svg width="83" height="24" viewBox="0 0 83 24" fill="none" xmlns="http://www.w3.org/2000/svg">
<path d="M7.5345 13.664C4.4465 13.664 2.5105 14.736 2.5105 16.544C2.5105 18.368 4.4465 19.44 7.5345 19.44C10.6065 19.44 12.5425 18.368 12.5425 16.544C12.5425 14.736 10.6065 13.664 7.5345 13.664ZM7.5345 15.328C9.4225 15.328 10.4305 15.712 10.4305 16.544C10.4305 17.392 9.4225 17.792 7.5345 17.792C5.6465 17.792 4.6225 17.392 4.6225 16.544C4.6225 15.712 5.6465 15.328 7.5345 15.328ZM10.2385 4.608V13.328H12.3665V4.608H10.2385ZM11.7745 8.048V9.808H14.3345V8.048H11.7745ZM1.1345 5.552V12.512H8.2545V5.552H6.1425V7.376H3.2465V5.552H1.1345ZM3.2465 9.024H6.1425V10.848H3.2465V9.024ZM26.4773 10.208V11.952H29.0853V10.208H26.4773ZM24.8933 4.592V19.408H27.0373V4.592H24.8933ZM15.8693 6.016V15.216H17.9973V6.016H15.8693ZM15.8693 14.032V15.792H17.1493C19.3253 15.792 21.7093 15.664 24.1573 15.152L23.9333 13.408C21.5493 13.888 19.2613 14.032 17.1493 14.032H15.8693ZM39.612 4.592V19.408H41.756V4.592H39.612ZM41.196 10.256V12H43.804V10.256H41.196ZM35.724 6.128V6.496C35.724 10.512 33.884 13.232 29.996 15.248L31.18 16.864C36.108 14.384 37.804 10.576 37.804 6.128H35.724ZM30.812 6.128V7.84H36.812V6.128H30.812ZM55.0668 4.608V19.424H57.2108V4.608H55.0668ZM50.6988 6.144V6.528C50.6988 10.496 49.1628 13.184 44.9068 15.232L46.0108 16.928C51.2748 14.384 52.8108 10.672 52.8108 6.144H50.6988ZM45.6908 6.144V7.824H51.7068V6.144H45.6908Z" fill="white"/>
<path fill-rule="evenodd" clip-rule="evenodd" d="M74.8571 5.92855H67.1429V17.0044H74.8571V5.92855ZM66 4.7998V18.1331H76V4.7998H66Z" fill="white"/>
<path fill-rule="evenodd" clip-rule="evenodd" d="M72 6.69472L66 4.7998V18.2998L72 19.9998V6.69472ZM70.5 11.4998C70.2239 11.4998 70 11.7237 70 11.9998V13.9998C70 14.2759 70.2239 14.4998 70.5 14.4998C70.7761 14.4998 71 14.2759 71 13.9998V11.9998C71 11.7237 70.7761 11.4998 70.5 11.4998Z" fill="white"/>
</svg>
