<svg width="44" height="44" viewBox="0 0 44 44" fill="none" xmlns="http://www.w3.org/2000/svg">
<path fill-rule="evenodd" clip-rule="evenodd" d="M31.5458 18.7272L21.3103 28.9645C20.9655 29.307 20.4992 29.4992 20.0133 29.4992C19.5273 29.4992 19.061 29.307 18.7162 28.9645L12.4535 22.7018C12.2833 22.5316 12.1483 22.3295 12.0562 22.1072C11.964 21.8848 11.9166 21.6464 11.9166 21.4057C11.9166 20.9195 12.1097 20.4533 12.4535 20.1095C12.7973 19.7657 13.2635 19.5726 13.7497 19.5726C14.2358 19.5726 14.7021 19.7657 15.0458 20.1095L20.0123 25.076L28.9535 16.1348C29.1237 15.9646 29.3258 15.8296 29.5482 15.7375C29.7706 15.6454 30.009 15.598 30.2497 15.598C30.4904 15.598 30.7288 15.6454 30.9512 15.7375C31.1735 15.8296 31.3756 15.9646 31.5458 16.1348C31.7161 16.3051 31.8511 16.5071 31.9432 16.7295C32.0353 16.9519 32.0827 17.1903 32.0827 17.431C32.0827 17.6717 32.0353 17.9101 31.9432 18.1325C31.8511 18.3549 31.7161 18.557 31.5458 18.7272ZM21.9997 1.83301C10.8622 1.83301 1.83301 10.8622 1.83301 21.9997C1.83301 33.1372 10.8622 42.1663 21.9997 42.1663C33.1372 42.1663 42.1663 33.1372 42.1663 21.9997C42.1663 10.8622 33.1372 1.83301 21.9997 1.83301Z" fill="#EFEFEF"/>
</svg>
