<svg width="26" height="26" viewBox="0 0 26 26" fill="none" xmlns="http://www.w3.org/2000/svg">
<path fill-rule="evenodd" clip-rule="evenodd" d="M22.011 11.6997H14.4277V4.11641C14.4277 3.77162 14.2907 3.44096 14.0469 3.19717C13.8031 2.95337 13.4724 2.81641 13.1277 2.81641C12.7829 2.81641 12.4522 2.95337 12.2084 3.19717C11.9646 3.44096 11.8277 3.77162 11.8277 4.11641V11.6997H4.24434C3.89955 11.6997 3.56889 11.8367 3.3251 12.0805C3.0813 12.3243 2.94434 12.655 2.94434 12.9997C2.94434 13.3445 3.0813 13.6752 3.3251 13.919C3.56889 14.1628 3.89955 14.2997 4.24434 14.2997H11.8277V21.8831C11.8277 22.2279 11.9646 22.5585 12.2084 22.8023C12.4522 23.0461 12.7829 23.1831 13.1277 23.1831C13.4724 23.1831 13.8031 23.0461 14.0469 22.8023C14.2907 22.5585 14.4277 22.2279 14.4277 21.8831V14.2997H22.011C22.3558 14.2997 22.6864 14.1628 22.9302 13.919C23.174 13.6752 23.311 13.3445 23.311 12.9997C23.311 12.655 23.174 12.3243 22.9302 12.0805C22.6864 11.8367 22.3558 11.6997 22.011 11.6997" fill="white"/>
</svg>
