<svg width="211" height="14" viewBox="0 0 211 14" fill="none" xmlns="http://www.w3.org/2000/svg">
<path d="M6.25823 7.53C5.63423 7.53 5.14889 7.33933 4.80223 6.958C4.45556 6.57667 4.28223 6.048 4.28223 5.372C4.28223 4.67867 4.45989 4.14567 4.81523 3.773C5.17923 3.39167 5.67756 3.201 6.31023 3.201C6.51823 3.201 6.71756 3.22267 6.90823 3.266C7.10756 3.30067 7.30256 3.36133 7.49323 3.448L7.27223 4.098C7.10756 4.02867 6.94289 3.97667 6.77823 3.942C6.62223 3.90733 6.46189 3.89 6.29723 3.89C5.91589 3.89 5.62556 4.01567 5.42623 4.267C5.23556 4.50967 5.14023 4.878 5.14023 5.372C5.14023 5.84 5.23556 6.204 5.42623 6.464C5.61689 6.71533 5.89423 6.841 6.25823 6.841C6.43156 6.841 6.61356 6.81933 6.80423 6.776C7.00356 6.724 7.21156 6.65467 7.42823 6.568V7.27C7.22023 7.35667 7.02089 7.42167 6.83023 7.465C6.63956 7.50833 6.44889 7.53 6.25823 7.53ZM5.90723 10.715C5.17056 10.715 4.47723 10.5763 3.82723 10.299C3.17723 10.0217 2.60523 9.64033 2.11123 9.155C1.62589 8.661 1.24456 8.089 0.967227 7.439C0.689893 6.789 0.551227 6.09567 0.551227 5.359C0.551227 4.61367 0.689893 3.92033 0.967227 3.279C1.24456 2.629 1.62589 2.06133 2.11123 1.576C2.60523 1.082 3.17723 0.696333 3.82723 0.418999C4.47723 0.141666 5.17056 0.00299931 5.90723 0.00299931C6.65256 0.00299931 7.34589 0.141666 7.98723 0.418999C8.63723 0.696333 9.20489 1.082 9.69023 1.576C10.1842 2.06133 10.5699 2.629 10.8472 3.279C11.1246 3.92033 11.2632 4.61367 11.2632 5.359C11.2632 6.09567 11.1246 6.789 10.8472 7.439C10.5699 8.089 10.1842 8.661 9.69023 9.155C9.20489 9.64033 8.63723 10.0217 7.98723 10.299C7.34589 10.5763 6.65256 10.715 5.90723 10.715ZM5.90723 9.987C6.54856 9.987 7.14656 9.87 7.70123 9.636C8.26456 9.39333 8.75856 9.05967 9.18323 8.635C9.60789 8.21033 9.93723 7.72067 10.1712 7.166C10.4139 6.60267 10.5352 6.00033 10.5352 5.359C10.5352 4.71767 10.4139 4.11967 10.1712 3.565C9.93723 3.00167 9.60789 2.50767 9.18323 2.083C8.75856 1.65833 8.26456 1.329 7.70123 1.095C7.14656 0.852333 6.54856 0.730999 5.90723 0.730999C5.26589 0.730999 4.66356 0.852333 4.10023 1.095C3.54556 1.329 3.05589 1.65833 2.63123 2.083C2.20656 2.50767 1.87289 3.00167 1.63023 3.565C1.39623 4.11967 1.27923 4.71767 1.27923 5.359C1.27923 6.00033 1.39623 6.60267 1.63023 7.166C1.87289 7.72067 2.20656 8.21033 2.63123 8.635C3.05589 9.05967 3.54556 9.39333 4.10023 9.636C4.66356 9.87 5.26589 9.987 5.90723 9.987ZM22.6222 10H16.3822V8.934L18.7742 6.503C19.2422 6.02633 19.6322 5.61467 19.9442 5.268C20.2562 4.91267 20.4902 4.57467 20.6462 4.254C20.8022 3.92467 20.8802 3.56933 20.8802 3.188C20.8802 2.72 20.7415 2.36467 20.4642 2.122C20.1955 1.87933 19.8358 1.758 19.3852 1.758C18.9605 1.758 18.5792 1.836 18.2412 1.992C17.9032 2.148 17.5522 2.37333 17.1882 2.668L16.4472 1.745C16.8198 1.433 17.2445 1.16433 17.7212 0.939C18.1978 0.705 18.7655 0.588 19.4242 0.588C20.2995 0.588 20.9928 0.813333 21.5042 1.264C22.0155 1.71467 22.2712 2.317 22.2712 3.071C22.2712 3.565 22.1715 4.02433 21.9722 4.449C21.7728 4.87367 21.4912 5.294 21.1272 5.71C20.7632 6.126 20.3342 6.568 19.8402 7.036L18.1112 8.713V8.778H22.6222V10ZM30.0746 5.346C30.0746 6.35133 29.9706 7.20933 29.7626 7.92C29.5546 8.63067 29.2166 9.17667 28.7486 9.558C28.2893 9.93933 27.6826 10.13 26.9286 10.13C25.8626 10.13 25.074 9.70967 24.5626 8.869C24.06 8.01967 23.8086 6.84533 23.8086 5.346C23.8086 4.34067 23.9083 3.48267 24.1076 2.772C24.3156 2.06133 24.6493 1.51967 25.1086 1.147C25.568 0.765666 26.1746 0.575 26.9286 0.575C27.986 0.575 28.7746 0.995333 29.2946 1.836C29.8146 2.668 30.0746 3.838 30.0746 5.346ZM25.1866 5.346C25.1866 6.55933 25.3166 7.46933 25.5766 8.076C25.8366 8.674 26.2873 8.973 26.9286 8.973C27.5613 8.973 28.012 8.674 28.2806 8.076C28.5493 7.478 28.6836 6.568 28.6836 5.346C28.6836 4.14133 28.5493 3.24 28.2806 2.642C28.012 2.03533 27.5613 1.732 26.9286 1.732C26.2873 1.732 25.8366 2.03533 25.5766 2.642C25.3166 3.24 25.1866 4.14133 25.1866 5.346ZM37.5011 10H31.2611V8.934L33.6531 6.503C34.1211 6.02633 34.5111 5.61467 34.8231 5.268C35.1351 4.91267 35.3691 4.57467 35.5251 4.254C35.6811 3.92467 35.7591 3.56933 35.7591 3.188C35.7591 2.72 35.6204 2.36467 35.3431 2.122C35.0744 1.87933 34.7148 1.758 34.2641 1.758C33.8394 1.758 33.4581 1.836 33.1201 1.992C32.7821 2.148 32.4311 2.37333 32.0671 2.668L31.3261 1.745C31.6988 1.433 32.1234 1.16433 32.6001 0.939C33.0768 0.705 33.6444 0.588 34.3031 0.588C35.1784 0.588 35.8718 0.813333 36.3831 1.264C36.8944 1.71467 37.1501 2.317 37.1501 3.071C37.1501 3.565 37.0504 4.02433 36.8511 4.449C36.6518 4.87367 36.3701 5.294 36.0061 5.71C35.6421 6.126 35.2131 6.568 34.7191 7.036L32.9901 8.713V8.778H37.5011V10ZM44.9405 10H38.7005V8.934L41.0925 6.503C41.5605 6.02633 41.9505 5.61467 42.2625 5.268C42.5745 4.91267 42.8085 4.57467 42.9645 4.254C43.1205 3.92467 43.1985 3.56933 43.1985 3.188C43.1985 2.72 43.0599 2.36467 42.7825 2.122C42.5139 1.87933 42.1542 1.758 41.7035 1.758C41.2789 1.758 40.8975 1.836 40.5595 1.992C40.2215 2.148 39.8705 2.37333 39.5065 2.668L38.7655 1.745C39.1382 1.433 39.5629 1.16433 40.0395 0.939C40.5162 0.705 41.0839 0.588 41.7425 0.588C42.6179 0.588 43.3112 0.813333 43.8225 1.264C44.3339 1.71467 44.5895 2.317 44.5895 3.071C44.5895 3.565 44.4899 4.02433 44.2905 4.449C44.0912 4.87367 43.8095 5.294 43.4455 5.71C43.0815 6.126 42.6525 6.568 42.1585 7.036L40.4295 8.713V8.778H44.9405V10ZM46.426 9.233C46.426 8.895 46.5127 8.65667 46.686 8.518C46.8593 8.37933 47.0673 8.31 47.31 8.31C47.5527 8.31 47.7607 8.37933 47.934 8.518C48.116 8.65667 48.207 8.895 48.207 9.233C48.207 9.571 48.116 9.81367 47.934 9.961C47.7607 10.1083 47.5527 10.182 47.31 10.182C47.0673 10.182 46.8593 10.1083 46.686 9.961C46.5127 9.81367 46.426 9.571 46.426 9.233ZM59.0386 7.491C59.0386 8.31433 58.7396 8.96 58.1416 9.428C57.5436 9.896 56.7246 10.13 55.6846 10.13C55.1733 10.13 54.6966 10.0867 54.2546 10C53.8126 9.922 53.4356 9.805 53.1236 9.649V8.323C53.4703 8.479 53.8776 8.622 54.3456 8.752C54.8136 8.87333 55.2903 8.934 55.7756 8.934C56.3996 8.934 56.8676 8.81267 57.1796 8.57C57.4916 8.32733 57.6476 8.00233 57.6476 7.595C57.6476 7.309 57.5783 7.07067 57.4396 6.88C57.301 6.68067 57.0756 6.49867 56.7636 6.334C56.4603 6.16067 56.0616 5.97867 55.5676 5.788C55.117 5.61467 54.714 5.411 54.3586 5.177C54.0033 4.943 53.726 4.65267 53.5266 4.306C53.3273 3.95933 53.2276 3.53467 53.2276 3.032C53.2276 2.26933 53.505 1.67133 54.0596 1.238C54.6143 0.804666 55.3423 0.588 56.2436 0.588C56.7463 0.588 57.21 0.64 57.6346 0.744C58.068 0.848 58.4796 0.982333 58.8696 1.147L58.4276 2.304C58.0723 2.15667 57.7083 2.03533 57.3356 1.94C56.9716 1.84467 56.5946 1.797 56.2046 1.797C55.6933 1.797 55.3033 1.90967 55.0346 2.135C54.766 2.36033 54.6316 2.655 54.6316 3.019C54.6316 3.305 54.6966 3.54767 54.8266 3.747C54.9566 3.93767 55.1646 4.11533 55.4506 4.28C55.7366 4.436 56.1136 4.605 56.5816 4.787C57.1016 4.995 57.5436 5.216 57.9076 5.45C58.2803 5.67533 58.562 5.95267 58.7526 6.282C58.9433 6.60267 59.0386 7.00567 59.0386 7.491ZM63.9761 10H62.5721V1.927H59.7901V0.717999H66.7581V1.927H63.9761V10ZM75.3833 0.717999V6.724C75.3833 7.36533 75.249 7.946 74.9803 8.466C74.7203 8.97733 74.3173 9.38467 73.7713 9.688C73.2253 9.98267 72.5363 10.13 71.7043 10.13C70.5256 10.13 69.6286 9.818 69.0133 9.194C68.4066 8.56133 68.1033 7.72933 68.1033 6.698V0.717999H69.5073V6.633C69.5073 8.167 70.2613 8.934 71.7693 8.934C72.5493 8.934 73.1126 8.726 73.4593 8.31C73.8146 7.894 73.9923 7.33067 73.9923 6.62V0.717999H75.3833ZM80.3789 0.717999C81.5923 0.717999 82.4763 0.965 83.0309 1.459C83.5856 1.94433 83.8629 2.62467 83.8629 3.5C83.8629 4.02 83.7459 4.50533 83.5119 4.956C83.2866 5.40667 82.9053 5.775 82.3679 6.061C81.8306 6.33833 81.1026 6.477 80.1839 6.477H79.1829V10H77.7789V0.717999H80.3789ZM80.2749 1.901H79.1829V5.294H80.0279C80.8166 5.294 81.4103 5.164 81.8089 4.904C82.2163 4.63533 82.4199 4.18467 82.4199 3.552C82.4199 2.99733 82.2466 2.58567 81.8999 2.317C81.5533 2.03967 81.0116 1.901 80.2749 1.901ZM88.2999 5.06L90.5749 0.717999H92.0829L88.9889 6.399V10H87.5979V6.451L84.5039 0.717999H86.0249L88.2999 5.06ZM99.256 2.863C100.131 2.863 100.786 3.058 101.219 3.448C101.661 3.82933 101.882 4.43167 101.882 5.255V10H100.907L100.634 9.025H100.582C100.279 9.40633 99.958 9.688 99.62 9.87C99.2906 10.0433 98.8313 10.13 98.242 10.13C97.6093 10.13 97.085 9.961 96.669 9.623C96.253 9.27633 96.045 8.739 96.045 8.011C96.045 7.29167 96.3136 6.75 96.851 6.386C97.397 6.01333 98.2246 5.80967 99.334 5.775L100.53 5.736V5.346C100.53 4.83467 100.413 4.475 100.179 4.267C99.945 4.05033 99.6156 3.942 99.191 3.942C98.8356 3.942 98.4933 3.994 98.164 4.098C97.8346 4.202 97.5183 4.32767 97.215 4.475L96.773 3.474C97.1023 3.30067 97.4793 3.15767 97.904 3.045C98.3373 2.92367 98.788 2.863 99.256 2.863ZM100.517 6.633L99.581 6.659C98.7836 6.69367 98.229 6.828 97.917 7.062C97.6136 7.296 97.462 7.61667 97.462 8.024C97.462 8.388 97.5703 8.65233 97.787 8.817C98.0036 8.98167 98.2853 9.064 98.632 9.064C99.1693 9.064 99.6156 8.91233 99.971 8.609C100.335 8.30567 100.517 7.85067 100.517 7.244V6.633ZM105.382 10H104.004V0.119999H105.382V10ZM108.924 10H107.546V0.119999H108.924V10ZM117.923 2.863C118.2 2.863 118.456 2.88467 118.69 2.928L118.547 4.215C118.321 4.15433 118.087 4.124 117.845 4.124C117.489 4.124 117.16 4.21067 116.857 4.384C116.553 4.55733 116.306 4.80867 116.116 5.138C115.934 5.45867 115.843 5.84867 115.843 6.308V10H114.465V2.993H115.557L115.739 4.241H115.791C116.007 3.86833 116.298 3.54767 116.662 3.279C117.026 3.00167 117.446 2.863 117.923 2.863ZM120.689 0.328C120.897 0.328 121.079 0.388666 121.235 0.51C121.391 0.631333 121.469 0.835 121.469 1.121C121.469 1.39833 121.391 1.602 121.235 1.732C121.079 1.85333 120.897 1.914 120.689 1.914C120.473 1.914 120.286 1.85333 120.13 1.732C119.974 1.602 119.896 1.39833 119.896 1.121C119.896 0.835 119.974 0.631333 120.13 0.51C120.286 0.388666 120.473 0.328 120.689 0.328ZM121.365 2.993V10H119.987V2.993H121.365ZM125.947 2.863C126.398 2.863 126.805 2.94967 127.169 3.123C127.533 3.29633 127.841 3.56067 128.092 3.916H128.157L128.313 2.993H129.431V10.091C129.431 12.1103 128.352 13.12 126.194 13.12C125.692 13.12 125.228 13.0853 124.803 13.016C124.379 12.9467 123.989 12.8383 123.633 12.691V11.482C123.997 11.664 124.4 11.7983 124.842 11.885C125.293 11.9803 125.77 12.028 126.272 12.028C126.836 12.028 127.273 11.8633 127.585 11.534C127.906 11.2133 128.066 10.7583 128.066 10.169V9.935C128.066 9.82233 128.071 9.675 128.079 9.493C128.088 9.311 128.097 9.17233 128.105 9.077H128.053C127.811 9.441 127.512 9.70967 127.156 9.883C126.81 10.0477 126.407 10.13 125.947 10.13C125.063 10.13 124.37 9.81367 123.867 9.181C123.373 8.53967 123.126 7.65133 123.126 6.516C123.126 5.38933 123.373 4.501 123.867 3.851C124.37 3.19233 125.063 2.863 125.947 2.863ZM126.233 4.007C125.687 4.007 125.267 4.22367 124.972 4.657C124.686 5.08167 124.543 5.70567 124.543 6.529C124.543 7.34367 124.686 7.96333 124.972 8.388C125.267 8.81267 125.696 9.025 126.259 9.025C126.901 9.025 127.369 8.85167 127.663 8.505C127.967 8.14967 128.118 7.57333 128.118 6.776V6.516C128.118 5.61467 127.967 4.97333 127.663 4.592C127.36 4.202 126.883 4.007 126.233 4.007ZM132.969 0.119999V2.759C132.969 2.97567 132.96 3.19233 132.943 3.409C132.925 3.62567 132.908 3.80333 132.891 3.942H132.982C133.207 3.58667 133.506 3.32233 133.879 3.149C134.26 2.967 134.672 2.876 135.114 2.876C135.937 2.876 136.565 3.07967 136.999 3.487C137.441 3.89433 137.662 4.54433 137.662 5.437V10H136.297V5.632C136.297 4.54 135.816 3.994 134.854 3.994C134.134 3.994 133.64 4.21067 133.372 4.644C133.103 5.07733 132.969 5.68833 132.969 6.477V10H131.591V0.119999H132.969ZM142.301 9.012C142.691 9.012 143.042 8.95567 143.354 8.843V9.883C143.207 9.95233 143.008 10.0087 142.756 10.052C142.505 10.104 142.254 10.13 142.002 10.13C141.621 10.13 141.27 10.065 140.949 9.935C140.637 9.805 140.386 9.57967 140.195 9.259C140.005 8.93833 139.909 8.492 139.909 7.92V4.046H138.934V3.422L139.961 2.902L140.442 1.42H141.287V2.993H143.289V4.046H141.287V7.894C141.287 8.27533 141.378 8.557 141.56 8.739C141.751 8.921 141.998 9.012 142.301 9.012ZM149.41 8.024C149.41 8.71733 149.158 9.24167 148.656 9.597C148.162 9.95233 147.464 10.13 146.563 10.13C146.069 10.13 145.644 10.0953 145.289 10.026C144.942 9.95667 144.621 9.84833 144.327 9.701V8.492C144.63 8.63933 144.985 8.77367 145.393 8.895C145.809 9.00767 146.212 9.064 146.602 9.064C147.122 9.064 147.494 8.98167 147.72 8.817C147.954 8.65233 148.071 8.43133 148.071 8.154C148.071 7.998 148.027 7.85933 147.941 7.738C147.854 7.608 147.689 7.478 147.447 7.348C147.213 7.20933 146.866 7.05333 146.407 6.88C145.956 6.70667 145.575 6.529 145.263 6.347C144.959 6.165 144.725 5.94833 144.561 5.697C144.396 5.44567 144.314 5.12933 144.314 4.748C144.314 4.14133 144.556 3.67767 145.042 3.357C145.536 3.02767 146.186 2.863 146.992 2.863C147.416 2.863 147.815 2.90633 148.188 2.993C148.569 3.07967 148.937 3.201 149.293 3.357L148.838 4.41C148.534 4.28 148.222 4.17167 147.902 4.085C147.581 3.98967 147.256 3.942 146.927 3.942C146.077 3.942 145.653 4.189 145.653 4.683C145.653 4.84767 145.7 4.99067 145.796 5.112C145.9 5.23333 146.073 5.35467 146.316 5.476C146.567 5.59733 146.914 5.74467 147.356 5.918C147.78 6.08267 148.144 6.256 148.448 6.438C148.76 6.61133 148.998 6.82367 149.163 7.075C149.327 7.32633 149.41 7.64267 149.41 8.024ZM157.888 2.863C158.165 2.863 158.421 2.88467 158.655 2.928L158.512 4.215C158.286 4.15433 158.052 4.124 157.81 4.124C157.454 4.124 157.125 4.21067 156.822 4.384C156.518 4.55733 156.271 4.80867 156.081 5.138C155.899 5.45867 155.808 5.84867 155.808 6.308V10H154.43V2.993H155.522L155.704 4.241H155.756C155.972 3.86833 156.263 3.54767 156.627 3.279C156.991 3.00167 157.411 2.863 157.888 2.863ZM162.454 2.863C163.373 2.863 164.096 3.149 164.625 3.721C165.154 4.28433 165.418 5.05567 165.418 6.035V6.789H160.712C160.729 7.50833 160.916 8.05867 161.271 8.44C161.635 8.82133 162.142 9.012 162.792 9.012C163.243 9.012 163.641 8.973 163.988 8.895C164.343 8.80833 164.707 8.68267 165.08 8.518V9.662C164.725 9.82667 164.369 9.94367 164.014 10.013C163.659 10.091 163.234 10.13 162.74 10.13C162.064 10.13 161.466 9.99567 160.946 9.727C160.426 9.45833 160.019 9.05967 159.724 8.531C159.438 8.00233 159.295 7.34367 159.295 6.555C159.295 5.76633 159.425 5.099 159.685 4.553C159.954 4.007 160.322 3.591 160.79 3.305C161.267 3.01033 161.821 2.863 162.454 2.863ZM162.454 3.929C161.96 3.929 161.561 4.08933 161.258 4.41C160.963 4.73067 160.79 5.18567 160.738 5.775H164.04C164.031 5.229 163.897 4.787 163.637 4.449C163.386 4.10233 162.991 3.929 162.454 3.929ZM171.792 8.024C171.792 8.71733 171.54 9.24167 171.038 9.597C170.544 9.95233 169.846 10.13 168.945 10.13C168.451 10.13 168.026 10.0953 167.671 10.026C167.324 9.95667 167.003 9.84833 166.709 9.701V8.492C167.012 8.63933 167.367 8.77367 167.775 8.895C168.191 9.00767 168.594 9.064 168.984 9.064C169.504 9.064 169.876 8.98167 170.102 8.817C170.336 8.65233 170.453 8.43133 170.453 8.154C170.453 7.998 170.409 7.85933 170.323 7.738C170.236 7.608 170.071 7.478 169.829 7.348C169.595 7.20933 169.248 7.05333 168.789 6.88C168.338 6.70667 167.957 6.529 167.645 6.347C167.341 6.165 167.107 5.94833 166.943 5.697C166.778 5.44567 166.696 5.12933 166.696 4.748C166.696 4.14133 166.938 3.67767 167.424 3.357C167.918 3.02767 168.568 2.863 169.374 2.863C169.798 2.863 170.197 2.90633 170.57 2.993C170.951 3.07967 171.319 3.201 171.675 3.357L171.22 4.41C170.916 4.28 170.604 4.17167 170.284 4.085C169.963 3.98967 169.638 3.942 169.309 3.942C168.459 3.942 168.035 4.189 168.035 4.683C168.035 4.84767 168.082 4.99067 168.178 5.112C168.282 5.23333 168.455 5.35467 168.698 5.476C168.949 5.59733 169.296 5.74467 169.738 5.918C170.162 6.08267 170.526 6.256 170.83 6.438C171.142 6.61133 171.38 6.82367 171.545 7.075C171.709 7.32633 171.792 7.64267 171.792 8.024ZM176.19 2.863C177.109 2.863 177.833 3.149 178.361 3.721C178.89 4.28433 179.154 5.05567 179.154 6.035V6.789H174.448C174.466 7.50833 174.652 8.05867 175.007 8.44C175.371 8.82133 175.878 9.012 176.528 9.012C176.979 9.012 177.378 8.973 177.724 8.895C178.08 8.80833 178.444 8.68267 178.816 8.518V9.662C178.461 9.82667 178.106 9.94367 177.75 10.013C177.395 10.091 176.97 10.13 176.476 10.13C175.8 10.13 175.202 9.99567 174.682 9.727C174.162 9.45833 173.755 9.05967 173.46 8.531C173.174 8.00233 173.031 7.34367 173.031 6.555C173.031 5.76633 173.161 5.099 173.421 4.553C173.69 4.007 174.058 3.591 174.526 3.305C175.003 3.01033 175.558 2.863 176.19 2.863ZM176.19 3.929C175.696 3.929 175.298 4.08933 174.994 4.41C174.7 4.73067 174.526 5.18567 174.474 5.775H177.776C177.768 5.229 177.633 4.787 177.373 4.449C177.122 4.10233 176.728 3.929 176.19 3.929ZM184.332 2.863C184.609 2.863 184.865 2.88467 185.099 2.928L184.956 4.215C184.731 4.15433 184.497 4.124 184.254 4.124C183.899 4.124 183.569 4.21067 183.266 4.384C182.963 4.55733 182.716 4.80867 182.525 5.138C182.343 5.45867 182.252 5.84867 182.252 6.308V10H180.874V2.993H181.966L182.148 4.241H182.2C182.417 3.86833 182.707 3.54767 183.071 3.279C183.435 3.00167 183.855 2.863 184.332 2.863ZM187.969 10L185.317 2.993H186.773L188.229 7.088C188.316 7.36533 188.407 7.66867 188.502 7.998C188.598 8.32733 188.663 8.60033 188.697 8.817H188.749C188.784 8.60033 188.853 8.32733 188.957 7.998C189.061 7.66 189.157 7.35667 189.243 7.088L190.699 2.993H192.155L189.49 10H187.969ZM195.995 2.863C196.914 2.863 197.637 3.149 198.166 3.721C198.695 4.28433 198.959 5.05567 198.959 6.035V6.789H194.253C194.27 7.50833 194.457 8.05867 194.812 8.44C195.176 8.82133 195.683 9.012 196.333 9.012C196.784 9.012 197.182 8.973 197.529 8.895C197.884 8.80833 198.248 8.68267 198.621 8.518V9.662C198.266 9.82667 197.91 9.94367 197.555 10.013C197.2 10.091 196.775 10.13 196.281 10.13C195.605 10.13 195.007 9.99567 194.487 9.727C193.967 9.45833 193.56 9.05967 193.265 8.531C192.979 8.00233 192.836 7.34367 192.836 6.555C192.836 5.76633 192.966 5.099 193.226 4.553C193.495 4.007 193.863 3.591 194.331 3.305C194.808 3.01033 195.362 2.863 195.995 2.863ZM195.995 3.929C195.501 3.929 195.102 4.08933 194.799 4.41C194.504 4.73067 194.331 5.18567 194.279 5.775H197.581C197.572 5.229 197.438 4.787 197.178 4.449C196.927 4.10233 196.532 3.929 195.995 3.929ZM203.084 10.13C202.234 10.13 201.554 9.82667 201.043 9.22C200.531 8.61333 200.276 7.712 200.276 6.516C200.276 5.31133 200.536 4.40133 201.056 3.786C201.576 3.17067 202.26 2.863 203.11 2.863C203.638 2.863 204.072 2.96267 204.41 3.162C204.748 3.36133 205.021 3.604 205.229 3.89H205.307C205.289 3.76867 205.268 3.591 205.242 3.357C205.216 3.123 205.203 2.91933 205.203 2.746V0.119999H206.581V10H205.502L205.268 9.064H205.203C205.003 9.35867 204.735 9.61 204.397 9.818C204.059 10.026 203.621 10.13 203.084 10.13ZM203.409 8.999C204.085 8.999 204.557 8.81267 204.826 8.44C205.103 8.06733 205.246 7.49967 205.255 6.737V6.529C205.255 5.70567 205.12 5.07733 204.852 4.644C204.592 4.21067 204.106 3.994 203.396 3.994C202.832 3.994 202.408 4.21933 202.122 4.67C201.836 5.12067 201.693 5.74467 201.693 6.542C201.693 7.33067 201.836 7.93733 202.122 8.362C202.408 8.78667 202.837 8.999 203.409 8.999ZM208.545 9.233C208.545 8.895 208.632 8.65667 208.805 8.518C208.978 8.37933 209.186 8.31 209.429 8.31C209.672 8.31 209.88 8.37933 210.053 8.518C210.235 8.65667 210.326 8.895 210.326 9.233C210.326 9.571 210.235 9.81367 210.053 9.961C209.88 10.1083 209.672 10.182 209.429 10.182C209.186 10.182 208.978 10.1083 208.805 9.961C208.632 9.81367 208.545 9.571 208.545 9.233Z" fill="#CF4B00"/>
</svg>
