<svg width="348" height="52" viewBox="0 0 348 52" fill="none" xmlns="http://www.w3.org/2000/svg">
<rect width="348" height="52" rx="3" fill="#F9DD4A"/>
<path d="M112.448 19.9803V20.2683C112.448 24.9483 111.26 28.1343 106.076 30.7443L107.354 32.5623C113.564 29.4123 114.788 25.1283 114.788 19.9803H112.448ZM107.102 19.9803V21.8703H113.87V19.9803H107.102ZM112.502 24.0663L106.238 24.4263L106.526 26.4783L112.502 25.9023V24.0663ZM116.804 18.3603V35.0283H119.216V18.3603H116.804ZM118.586 24.7323V26.6943H121.52V24.7323H118.586ZM129.006 19.9803V20.2683C129.006 24.9483 127.818 28.1343 122.634 30.7443L123.912 32.5623C130.122 29.4123 131.346 25.1283 131.346 19.9803H129.006ZM123.66 19.9803V21.8703H130.428V19.9803H123.66ZM129.06 24.0663L122.796 24.4263L123.084 26.4783L129.06 25.9023V24.0663ZM133.362 18.3603V35.0283H135.774V18.3603H133.362ZM135.144 24.7323V26.6943H138.078V24.7323H135.144ZM145.601 27.7563V31.5543H147.995V27.7563H145.601ZM146.807 19.2243C143.243 19.2243 140.579 21.0423 140.579 23.8143C140.579 26.6223 143.243 28.4223 146.807 28.4223C150.371 28.4223 153.035 26.6223 153.035 23.8143C153.035 21.0423 150.371 19.2243 146.807 19.2243ZM146.807 21.1143C149.093 21.1143 150.677 22.1223 150.677 23.8143C150.677 25.5423 149.093 26.5323 146.807 26.5323C144.521 26.5323 142.937 25.5423 142.937 23.8143C142.937 22.1223 144.521 21.1143 146.807 21.1143ZM139.283 31.1763V33.1203H154.367V31.1763H139.283ZM155.842 31.2663V33.2103H170.926V31.2663H155.842ZM162.16 28.1163V32.0583H164.554V28.1163H162.16ZM157.534 19.4583V21.3483H166.858V23.1303H157.57V27.8103H159.946V25.0023H169.234V19.4583H157.534ZM157.57 26.8563V28.7823H169.612V26.8563H157.57ZM181.126 19.6563V22.0863C181.126 25.3263 179.758 28.5303 176.86 29.7903L178.282 31.7703C181.594 30.2403 183.07 26.3703 183.07 22.0863V19.6563H181.126ZM181.594 19.6563V22.0863C181.594 26.1903 183.07 29.8983 186.292 31.3743L187.696 29.4483C184.852 28.2243 183.538 25.1643 183.538 22.0863V19.6563H181.594ZM188.488 18.3603V35.0823H190.9V18.3603H188.488ZM197.324 20.0883V21.1323C197.324 23.2203 196.154 25.3803 193.364 26.2803L194.606 28.1343C197.792 27.1083 199.286 24.2823 199.286 21.1323V20.0883H197.324ZM197.81 20.0883V21.1323C197.81 24.1203 199.25 26.8383 202.364 27.8463L203.588 25.9923C200.888 25.1283 199.754 23.0943 199.754 21.1323V20.0883H197.81ZM194.012 19.3503V21.2583H203.012V19.3503H194.012ZM204.344 18.3783V28.4223H206.738V18.3783H204.344ZM206.072 22.4103V24.3723H208.952V22.4103H206.072ZM195.614 29.1423V31.0683H204.344V35.0463H206.738V29.1423H195.614ZM220.867 18.3783V35.0463H223.243V18.3783H220.867ZM222.703 24.8763V26.8743H225.655V24.8763H222.703ZM210.103 20.8443V22.7523H219.805V20.8443H210.103ZM214.981 23.6883C212.551 23.6883 210.751 25.3443 210.751 27.6663C210.751 29.9883 212.551 31.6443 214.981 31.6443C217.411 31.6443 219.211 29.9883 219.211 27.6663C219.211 25.3443 217.411 23.6883 214.981 23.6883ZM214.981 25.6323C216.115 25.6323 216.925 26.3883 216.925 27.6663C216.925 28.9443 216.115 29.7003 214.981 29.7003C213.847 29.7003 213.037 28.9443 213.037 27.6663C213.037 26.3883 213.847 25.6323 214.981 25.6323ZM213.775 18.6483V21.5643H216.169V18.6483H213.775ZM238.218 18.3783V35.0463H240.63V18.3783H238.218ZM233.304 20.1063V20.5383C233.304 25.0023 231.576 28.0263 226.788 30.3303L228.03 32.2383C233.952 29.3763 235.68 25.2003 235.68 20.1063H233.304ZM227.67 20.1063V21.9963H234.438V20.1063H227.67Z" fill="black"/>
<path d="M40.5917 15.4072C34.1749 15.4072 29 19.6829 29 24.8736C29 28.2429 31.1527 31.1931 34.3819 32.8778L33.2889 37.0937C33.2683 37.1569 33.2652 37.2247 33.2798 37.2896C33.2944 37.3545 33.3262 37.414 33.3717 37.4613C33.4381 37.5217 33.5234 37.5552 33.6118 37.5554C33.6852 37.5493 33.7547 37.5194 33.8106 37.4699L38.5135 34.1947C39.2077 34.2937 39.9075 34.345 40.6083 34.3486C47.0168 34.3486 52.2 30.0729 52.2 24.8736C52.2 19.6743 47.0003 15.4072 40.5917 15.4072Z" fill="#392020"/>
<path d="M33.0572 23.3769H31.7904C31.6333 23.3816 31.4783 23.3401 31.3432 23.2572C31.2833 23.2184 31.2318 23.1672 31.1919 23.1069C31.152 23.0466 31.1246 22.9784 31.1114 22.9066C31.1074 22.8611 31.1074 22.8153 31.1114 22.7698C31.1075 22.6847 31.1235 22.5997 31.1581 22.5223C31.1927 22.4449 31.2448 22.3773 31.3101 22.3251C31.4545 22.2172 31.6287 22.1601 31.8069 22.1626H35.6239C35.7822 22.1569 35.9383 22.2017 36.071 22.2909C36.1324 22.328 36.185 22.3787 36.2251 22.4393C36.2652 22.5 36.2917 22.569 36.3028 22.6415C36.3069 22.6842 36.3069 22.7272 36.3028 22.7698C36.3068 22.8562 36.2908 22.9423 36.2562 23.0211C36.2217 23.0999 36.1696 23.169 36.1041 23.223C35.9633 23.3308 35.7908 23.3852 35.6156 23.3769H34.3902V27.875C34.3952 27.9708 34.3808 28.0666 34.3481 28.1564C34.3153 28.2462 34.2648 28.3281 34.1998 28.3966C34.1375 28.4622 34.0625 28.5136 33.9798 28.5475C33.8971 28.5813 33.8085 28.5969 33.7195 28.5933C33.5641 28.5979 33.4118 28.5466 33.289 28.448C33.172 28.3517 33.0927 28.215 33.0654 28.0631C33.0573 28.0007 33.0573 27.9374 33.0654 27.875L33.0572 23.3769Z" fill="#FEE500"/>
<path d="M36.6676 22.4963C36.704 22.3555 36.7895 22.2337 36.9077 22.1542C37.0336 22.0805 37.1771 22.0449 37.3217 22.0516H37.6363C37.7898 22.0459 37.9417 22.0844 38.0752 22.1627C38.2166 22.261 38.3171 22.4105 38.3567 22.5818L40.0126 27.4133C40.0556 27.5394 40.0915 27.6679 40.1203 27.7982C40.1231 27.8523 40.1231 27.9065 40.1203 27.9606C40.1231 28.044 40.1082 28.127 40.0768 28.2038C40.0453 28.2806 39.998 28.3494 39.9381 28.4053C39.8801 28.4667 39.8105 28.5151 39.7336 28.5475C39.6566 28.5799 39.5741 28.5955 39.491 28.5934C39.3633 28.6066 39.2351 28.5749 39.1269 28.5036C39.0188 28.4322 38.937 28.3253 38.8949 28.2001L38.5471 27.1483H36.3695L36.0218 28.2001C35.9807 28.3278 35.8979 28.4367 35.7877 28.5085C35.6775 28.5802 35.5466 28.6102 35.4174 28.5934C35.2773 28.5972 35.1402 28.552 35.0282 28.4652C34.9191 28.3755 34.8455 28.2479 34.8212 28.1061C34.8168 28.0577 34.8168 28.009 34.8212 27.9606C34.807 27.8758 34.807 27.789 34.8212 27.7042C34.8212 27.6101 34.8792 27.5074 34.9123 27.4133L36.6676 22.4963ZM37.4956 23.6166L36.709 26.182H38.2739L37.4956 23.6166Z" fill="#FEE500"/>
<path d="M40.3103 22.7699C40.3019 22.578 40.3674 22.3905 40.4924 22.2483C40.556 22.182 40.6324 22.1303 40.7165 22.0964C40.8006 22.0625 40.8907 22.0472 40.981 22.0515C41.1361 22.0496 41.2874 22.1008 41.4115 22.1969C41.5265 22.2972 41.6029 22.4367 41.6268 22.5902C41.6349 22.6498 41.6349 22.7103 41.6268 22.7699V27.268H43.9037C44.0615 27.2658 44.2167 27.3102 44.3508 27.3961C44.4111 27.4345 44.4629 27.4856 44.5029 27.546C44.5428 27.6064 44.57 27.6748 44.5827 27.7468C44.5827 27.7468 44.5827 27.8323 44.5827 27.8751C44.5866 27.9602 44.5706 28.0451 44.536 28.1225C44.5014 28.1999 44.4493 28.2676 44.384 28.3198C44.2396 28.4277 44.0654 28.4847 43.8872 28.4822H41.0886C40.9103 28.494 40.7332 28.4461 40.5835 28.3454C40.4497 28.2421 40.3605 28.0885 40.3351 27.9179C40.3291 27.8239 40.3291 27.7296 40.3351 27.6356L40.3103 22.7699Z" fill="#FEE500"/>
<path d="M44.7316 22.7703C44.7266 22.5789 44.7917 22.3927 44.9138 22.2486C45.0378 22.1322 45.197 22.0634 45.3644 22.0541C45.5319 22.0447 45.6973 22.0953 45.8328 22.1973C45.9503 22.2967 46.0296 22.4362 46.0564 22.5906C46.0605 22.6504 46.0605 22.7105 46.0564 22.7703V24.8653L48.1511 22.3683C48.2319 22.2831 48.3176 22.2032 48.4078 22.1289C48.4929 22.0766 48.5904 22.0499 48.6893 22.0519C48.8341 22.051 48.9756 22.0958 49.095 22.1802C49.1513 22.2193 49.1994 22.2698 49.2364 22.3286C49.2734 22.3874 49.2985 22.4532 49.3103 22.5222C49.3137 22.5392 49.3137 22.5567 49.3103 22.5736C49.3063 22.5933 49.3063 22.6137 49.3103 22.6334C49.31 22.7234 49.2872 22.8118 49.2441 22.89C49.2001 22.9728 49.1474 23.0501 49.0868 23.1208L47.7123 24.6772L49.3683 27.3281V27.4136C49.4543 27.5362 49.5213 27.6718 49.567 27.8156V27.8583C49.5766 27.9574 49.5627 28.0574 49.5267 28.1498C49.4906 28.2421 49.4334 28.324 49.36 28.3885C49.2219 28.4963 49.0529 28.5536 48.8798 28.551C48.7647 28.5559 48.6505 28.5293 48.5486 28.474C48.4383 28.3976 48.3474 28.295 48.2836 28.1747L46.7436 25.6093L46.0067 26.4046V27.8326C46.0116 28.024 45.9466 28.2102 45.8245 28.3543C45.7591 28.4203 45.6813 28.4719 45.5958 28.5057C45.5104 28.5396 45.4192 28.555 45.3277 28.551C45.175 28.5543 45.0258 28.5029 44.9055 28.4056C44.7885 28.3093 44.7091 28.1727 44.6819 28.0209C44.6737 27.9584 44.6737 27.8951 44.6819 27.8326L44.7316 22.7703Z" fill="#FEE500"/>
</svg>
