<svg width="345" height="54" viewBox="0 0 345 54" fill="none" xmlns="http://www.w3.org/2000/svg">
<rect width="345" height="54" rx="10" fill="#F9DD4A"/>
<path d="M118.448 20.536V20.824C118.448 25.504 117.26 28.69 112.076 31.3L113.354 33.118C119.564 29.968 120.788 25.684 120.788 20.536H118.448ZM113.102 20.536V22.426H119.87V20.536H113.102ZM118.502 24.622L112.238 24.982L112.526 27.034L118.502 26.458V24.622ZM122.804 18.916V35.584H125.216V18.916H122.804ZM124.586 25.288V27.25H127.52V25.288H124.586ZM135.006 20.536V20.824C135.006 25.504 133.818 28.69 128.634 31.3L129.912 33.118C136.122 29.968 137.346 25.684 137.346 20.536H135.006ZM129.66 20.536V22.426H136.428V20.536H129.66ZM135.06 24.622L128.796 24.982L129.084 27.034L135.06 26.458V24.622ZM139.362 18.916V35.584H141.774V18.916H139.362ZM141.144 25.288V27.25H144.078V25.288H141.144ZM151.601 28.312V32.11H153.995V28.312H151.601ZM152.807 19.78C149.243 19.78 146.579 21.598 146.579 24.37C146.579 27.178 149.243 28.978 152.807 28.978C156.371 28.978 159.035 27.178 159.035 24.37C159.035 21.598 156.371 19.78 152.807 19.78ZM152.807 21.67C155.093 21.67 156.677 22.678 156.677 24.37C156.677 26.098 155.093 27.088 152.807 27.088C150.521 27.088 148.937 26.098 148.937 24.37C148.937 22.678 150.521 21.67 152.807 21.67ZM145.283 31.732V33.676H160.367V31.732H145.283ZM161.842 31.822V33.766H176.926V31.822H161.842ZM168.16 28.672V32.614H170.554V28.672H168.16ZM163.534 20.014V21.904H172.858V23.686H163.57V28.366H165.946V25.558H175.234V20.014H163.534ZM163.57 27.412V29.338H175.612V27.412H163.57ZM187.126 20.212V22.642C187.126 25.882 185.758 29.086 182.86 30.346L184.282 32.326C187.594 30.796 189.07 26.926 189.07 22.642V20.212H187.126ZM187.594 20.212V22.642C187.594 26.746 189.07 30.454 192.292 31.93L193.696 30.004C190.852 28.78 189.538 25.72 189.538 22.642V20.212H187.594ZM194.488 18.916V35.638H196.9V18.916H194.488ZM203.324 20.644V21.688C203.324 23.776 202.154 25.936 199.364 26.836L200.606 28.69C203.792 27.664 205.286 24.838 205.286 21.688V20.644H203.324ZM203.81 20.644V21.688C203.81 24.676 205.25 27.394 208.364 28.402L209.588 26.548C206.888 25.684 205.754 23.65 205.754 21.688V20.644H203.81ZM200.012 19.906V21.814H209.012V19.906H200.012ZM210.344 18.934V28.978H212.738V18.934H210.344ZM212.072 22.966V24.928H214.952V22.966H212.072ZM201.614 29.698V31.624H210.344V35.602H212.738V29.698H201.614ZM226.867 18.934V35.602H229.243V18.934H226.867ZM228.703 25.432V27.43H231.655V25.432H228.703ZM216.103 21.4V23.308H225.805V21.4H216.103ZM220.981 24.244C218.551 24.244 216.751 25.9 216.751 28.222C216.751 30.544 218.551 32.2 220.981 32.2C223.411 32.2 225.211 30.544 225.211 28.222C225.211 25.9 223.411 24.244 220.981 24.244ZM220.981 26.188C222.115 26.188 222.925 26.944 222.925 28.222C222.925 29.5 222.115 30.256 220.981 30.256C219.847 30.256 219.037 29.5 219.037 28.222C219.037 26.944 219.847 26.188 220.981 26.188ZM219.775 19.204V22.12H222.169V19.204H219.775ZM244.218 18.934V35.602H246.63V18.934H244.218ZM239.304 20.662V21.094C239.304 25.558 237.576 28.582 232.788 30.886L234.03 32.794C239.952 29.932 241.68 25.756 241.68 20.662H239.304ZM233.67 20.662V22.552H240.438V20.662H233.67Z" fill="black"/>
<path d="M78.4918 16C72.1303 16 67 20.4401 67 25.8305C67 29.3293 69.1342 32.3931 72.3355 34.1425L71.252 38.5205C71.2315 38.5862 71.2284 38.6566 71.2429 38.724C71.2574 38.7914 71.2889 38.8532 71.334 38.9023C71.3998 38.9651 71.4844 38.9998 71.5721 39C71.6448 38.9937 71.7138 38.9626 71.7691 38.9112L76.4315 35.5101C77.1197 35.6129 77.8135 35.6662 78.5082 35.6699C84.8615 35.6699 90 31.2297 90 25.8305C90 20.4312 84.8451 16 78.4918 16Z" fill="#392020"/>
<path d="M71.0218 24.2762H69.7659C69.6103 24.2811 69.4565 24.238 69.3227 24.1519C69.2632 24.1116 69.2121 24.0584 69.1726 23.9958C69.133 23.9331 69.1059 23.8623 69.0928 23.7877C69.0888 23.7405 69.0888 23.693 69.0928 23.6457C69.0889 23.5573 69.1048 23.4691 69.1391 23.3887C69.1734 23.3083 69.2251 23.2381 69.2898 23.1839C69.4329 23.0718 69.6057 23.0126 69.7823 23.0152H73.5664C73.7233 23.0092 73.8781 23.0557 74.0097 23.1484C74.0705 23.1869 74.1227 23.2396 74.1624 23.3025C74.2022 23.3655 74.2285 23.4372 74.2395 23.5125C74.2435 23.5568 74.2435 23.6014 74.2395 23.6457C74.2434 23.7354 74.2276 23.8248 74.1933 23.9067C74.1591 23.9885 74.1074 24.0603 74.0425 24.1163C73.9029 24.2283 73.7318 24.2848 73.5582 24.2762H72.3434V28.9473C72.3483 29.0468 72.3341 29.1463 72.3016 29.2395C72.2691 29.3328 72.219 29.4177 72.1546 29.489C72.0928 29.5571 72.0185 29.6104 71.9365 29.6456C71.8545 29.6808 71.7666 29.697 71.6785 29.6932C71.5243 29.6979 71.3734 29.6447 71.2516 29.5423C71.1357 29.4423 71.057 29.3003 71.03 29.1426C71.0219 29.0778 71.0219 29.0121 71.03 28.9473L71.0218 24.2762Z" fill="#FEE500"/>
<path d="M74.6018 23.362C74.6379 23.2159 74.7227 23.0894 74.8398 23.0068C74.9647 22.9302 75.1069 22.8933 75.2503 22.9002H75.5622C75.7143 22.8943 75.8649 22.9343 75.9972 23.0157C76.1374 23.1177 76.2371 23.273 76.2763 23.4508L77.918 28.4682C77.9606 28.5991 77.9962 28.7326 78.0247 28.8679C78.0275 28.9241 78.0275 28.9804 78.0247 29.0366C78.0275 29.1231 78.0128 29.2093 77.9816 29.2891C77.9504 29.3688 77.9035 29.4403 77.8441 29.4984C77.7866 29.5621 77.7176 29.6124 77.6413 29.646C77.565 29.6796 77.4832 29.6959 77.4009 29.6937C77.2743 29.7073 77.1471 29.6745 77.0399 29.6004C76.9327 29.5263 76.8516 29.4153 76.8099 29.2853L76.4651 28.193H74.3063L73.9615 29.2853C73.9208 29.4178 73.8388 29.531 73.7295 29.6055C73.6202 29.68 73.4905 29.7111 73.3623 29.6937C73.2235 29.6977 73.0876 29.6507 72.9765 29.5605C72.8683 29.4674 72.7954 29.3348 72.7713 29.1876C72.767 29.1374 72.767 29.0868 72.7713 29.0366C72.7572 28.9484 72.7572 28.8584 72.7713 28.7702C72.7713 28.6726 72.8288 28.5659 72.8616 28.4682L74.6018 23.362ZM75.4226 24.5254L74.6428 27.1895H76.1942L75.4226 24.5254Z" fill="#FEE500"/>
<path d="M78.2126 23.6462C78.2043 23.4469 78.2692 23.2521 78.3932 23.1045C78.4562 23.0357 78.5319 22.9819 78.6153 22.9468C78.6988 22.9116 78.7881 22.8957 78.8775 22.9002C79.0313 22.8982 79.1813 22.9513 79.3043 23.0512C79.4184 23.1553 79.4941 23.3002 79.5178 23.4596C79.5258 23.5215 79.5258 23.5843 79.5178 23.6462V28.3173H81.7751C81.9315 28.315 82.0853 28.3612 82.2183 28.4504C82.2781 28.4902 82.3294 28.5433 82.369 28.606C82.4086 28.6688 82.4356 28.7398 82.4482 28.8145C82.4482 28.8145 82.4482 28.9033 82.4482 28.9477C82.4521 29.0362 82.4362 29.1242 82.4019 29.2046C82.3676 29.285 82.3159 29.3554 82.2512 29.4095C82.1081 29.5216 81.9353 29.5808 81.7587 29.5782H78.9842C78.8075 29.5905 78.6319 29.5407 78.4835 29.4362C78.3508 29.3288 78.2624 29.1694 78.2373 28.9922C78.2312 28.8946 78.2312 28.7966 78.2373 28.699L78.2126 23.6462Z" fill="#FEE500"/>
<path d="M82.5963 23.6465C82.5914 23.4478 82.6559 23.2544 82.7769 23.1048C82.9 22.9839 83.0578 22.9125 83.2237 22.9028C83.3897 22.8931 83.5537 22.9456 83.6881 23.0515C83.8046 23.1548 83.8832 23.2996 83.9097 23.46C83.9137 23.5221 83.9137 23.5844 83.9097 23.6465V25.8222L85.9864 23.2291C86.0664 23.1406 86.1514 23.0576 86.2409 22.9805C86.3252 22.9262 86.4219 22.8984 86.52 22.9005C86.6634 22.8997 86.8037 22.9461 86.9222 23.0337C86.978 23.0744 87.0257 23.1268 87.0623 23.1879C87.099 23.2489 87.1239 23.3173 87.1356 23.389C87.1389 23.4065 87.1389 23.4247 87.1356 23.4423C87.1316 23.4628 87.1316 23.4839 87.1356 23.5044C87.1353 23.5979 87.1127 23.6897 87.0699 23.7709C87.0264 23.8568 86.9741 23.9372 86.914 24.0105L85.5514 25.6268L87.1931 28.3797V28.4685C87.2783 28.5958 87.3448 28.7366 87.3901 28.886V28.9303C87.3996 29.0332 87.3859 29.1371 87.3501 29.2329C87.3144 29.3288 87.2577 29.4139 87.1849 29.4809C87.0479 29.5928 86.8804 29.6523 86.7088 29.6496C86.5947 29.6547 86.4815 29.6271 86.3804 29.5696C86.2711 29.4903 86.181 29.3837 86.1178 29.2589L84.591 26.5948L83.8604 27.4207V28.9036C83.8654 29.1023 83.8009 29.2957 83.6799 29.4453C83.615 29.5139 83.5378 29.5675 83.4531 29.6026C83.3684 29.6377 83.278 29.6537 83.1874 29.6496C83.0359 29.6531 82.888 29.5997 82.7687 29.4986C82.6528 29.3987 82.5741 29.2568 82.5471 29.0991C82.539 29.0342 82.539 28.9684 82.5471 28.9036L82.5963 23.6465Z" fill="#FEE500"/>
</svg>
