<svg width="160" height="160" viewBox="0 0 160 160" fill="none" xmlns="http://www.w3.org/2000/svg">
<path fill-rule="evenodd" clip-rule="evenodd" d="M45.8356 44.6128H114.211C116.908 44.6128 119.095 46.7936 119.095 49.4837V83.5801C119.095 86.2703 116.908 88.4511 114.211 88.4511H75.1393V103.064H114.211C125 103.064 133.747 94.3407 133.747 83.5801V49.4837C133.747 38.7231 125 30 114.211 30H45.8356C35.0463 30 26.2998 38.7231 26.2998 49.4837V86.0156H40.9516V49.4837C40.9516 46.7936 43.1383 44.6128 45.8356 44.6128Z" fill="#D9D9D9"/>
<path d="M63.04 65.9365C63.04 69.8025 59.906 72.9365 56.04 72.9365C52.174 72.9365 49.04 69.8025 49.04 65.9365C49.04 62.0705 52.174 58.9365 56.04 58.9365C59.906 58.9365 63.04 62.0705 63.04 65.9365Z" fill="#FF9052"/>
<path d="M87.04 66C87.04 69.866 83.906 73 80.04 73C76.174 73 73.04 69.866 73.04 66C73.04 62.134 76.174 59 80.04 59C83.906 59 87.04 62.134 87.04 66Z" fill="#FF9052"/>
<path d="M111.04 65.9365C111.04 69.8025 107.906 72.9365 104.04 72.9365C100.174 72.9365 97.04 69.8025 97.04 65.9365C97.04 62.0705 100.174 58.9365 104.04 58.9365C107.906 58.9365 111.04 62.0705 111.04 65.9365Z" fill="#FF9052"/>
<path fill-rule="evenodd" clip-rule="evenodd" d="M75.3003 88.5002L94.8003 88.3994L65.7156 118.716L65.7363 118.737L63.4656 121.062L55.4631 129.403L55.3899 129.332L55.2365 129.489L34.001 108.752L44.5007 97.9995L55.4168 108.659L75.3003 88.5002Z" fill="#FF9052"/>
</svg>
