<svg width="160" height="186" viewBox="0 0 160 186" fill="none" xmlns="http://www.w3.org/2000/svg">
<path fill-rule="evenodd" clip-rule="evenodd" d="M45.8356 44.6128H114.211C116.908 44.6128 119.095 46.7936 119.095 49.4837V83.5801C119.095 86.2703 116.908 88.4511 114.211 88.4511H75.1393V103.064H114.211C125 103.064 133.747 94.3407 133.747 83.5801V49.4837C133.747 38.7231 125 30 114.211 30H45.8356C35.0463 30 26.2998 38.7231 26.2998 49.4837V86.0156H40.9516V49.4837C40.9516 46.7936 43.1383 44.6128 45.8356 44.6128Z" fill="#D9D9D9"/>
<path d="M63.04 65.9365C63.04 69.8025 59.906 72.9365 56.04 72.9365C52.174 72.9365 49.04 69.8025 49.04 65.9365C49.04 62.0705 52.174 58.9365 56.04 58.9365C59.906 58.9365 63.04 62.0705 63.04 65.9365Z" fill="#FF9052"/>
<path d="M87.04 66C87.04 69.866 83.906 73 80.04 73C76.174 73 73.04 69.866 73.04 66C73.04 62.134 76.174 59 80.04 59C83.906 59 87.04 62.134 87.04 66Z" fill="#FF9052"/>
<path d="M111.04 65.9365C111.04 69.8025 107.906 72.9365 104.04 72.9365C100.174 72.9365 97.04 69.8025 97.04 65.9365C97.04 62.0705 100.174 58.9365 104.04 58.9365C107.906 58.9365 111.04 62.0705 111.04 65.9365Z" fill="#FF9052"/>
<path fill-rule="evenodd" clip-rule="evenodd" d="M75.3003 88.5002L94.8003 88.3994L65.7156 118.716L65.7363 118.737L63.4657 121.062L55.4631 129.403L55.3899 129.332L55.2365 129.489L34.001 108.752L44.5007 97.9995L55.4168 108.659L75.3003 88.5002Z" fill="#FF9052"/>
<path d="M42.9753 178.07C42.9753 180.287 42.1703 182.06 40.5603 183.39C38.9737 184.697 36.7103 185.35 33.7703 185.35C31.1337 185.35 28.777 184.848 26.7003 183.845V178.91C27.8903 179.423 29.1153 179.902 30.3753 180.345C31.6587 180.765 32.9303 180.975 34.1903 180.975C35.497 180.975 36.4187 180.73 36.9553 180.24C37.5153 179.727 37.7953 179.085 37.7953 178.315C37.7953 177.685 37.5737 177.148 37.1303 176.705C36.7103 176.262 36.1387 175.853 35.4153 175.48C34.692 175.083 33.8637 174.663 32.9303 174.22C32.347 173.94 31.717 173.613 31.0403 173.24C30.3637 172.843 29.7103 172.365 29.0803 171.805C28.4737 171.222 27.972 170.522 27.5753 169.705C27.1787 168.888 26.9803 167.908 26.9803 166.765C26.9803 164.525 27.7387 162.787 29.2553 161.55C30.772 160.29 32.837 159.66 35.4503 159.66C36.757 159.66 37.9937 159.812 39.1603 160.115C40.327 160.418 41.5637 160.85 42.8703 161.41L41.1553 165.54C40.012 165.073 38.9853 164.712 38.0753 164.455C37.1653 164.198 36.232 164.07 35.2753 164.07C34.272 164.07 33.502 164.303 32.9653 164.77C32.4287 165.237 32.1603 165.843 32.1603 166.59C32.1603 167.477 32.557 168.177 33.3503 168.69C34.1437 169.203 35.322 169.833 36.8853 170.58C38.1687 171.187 39.2537 171.817 40.1403 172.47C41.0503 173.123 41.7503 173.893 42.2403 174.78C42.7303 175.667 42.9753 176.763 42.9753 178.07ZM57.1427 185H51.8577V164.42H45.0677V160.01H63.9327V164.42H57.1427V185ZM88.1212 160.01V176.18C88.1212 177.907 87.7362 179.47 86.9662 180.87C86.2196 182.247 85.0762 183.343 83.5362 184.16C81.9962 184.953 80.0712 185.35 77.7612 185.35C74.4479 185.35 71.9279 184.51 70.2012 182.83C68.4746 181.127 67.6112 178.887 67.6112 176.11V160.01H72.8962V175.305C72.8962 177.382 73.3162 178.84 74.1562 179.68C74.9962 180.497 76.2446 180.905 77.9012 180.905C79.6279 180.905 80.8762 180.45 81.6462 179.54C82.4396 178.63 82.8362 177.207 82.8362 175.27V160.01H88.1212ZM102.221 160.01C105.441 160.01 107.786 160.71 109.256 162.11C110.75 163.487 111.496 165.388 111.496 167.815C111.496 169.285 111.193 170.65 110.586 171.91C109.98 173.17 108.965 174.185 107.541 174.955C106.141 175.725 104.228 176.11 101.801 176.11H99.5263V185H94.2413V160.01H102.221ZM101.941 164.35H99.5263V171.77H101.276C102.77 171.77 103.948 171.478 104.811 170.895C105.698 170.288 106.141 169.32 106.141 167.99C106.141 165.563 104.741 164.35 101.941 164.35ZM123.989 170.3L129.204 160.01H134.909L126.614 175.27V185H121.364V175.445L113.069 160.01H118.809L123.989 170.3Z" fill="black"/>
</svg>
