<svg width="287" height="308" viewBox="0 0 287 308" fill="none" xmlns="http://www.w3.org/2000/svg">
<path d="M93.9556 279.08C93.9556 280.76 93.5423 282.227 92.7156 283.48C91.889 284.733 90.689 285.707 89.1156 286.4C87.569 287.067 85.6756 287.4 83.4356 287.4C82.449 287.4 81.4756 287.333 80.5156 287.2C79.5823 287.067 78.6756 286.88 77.7956 286.64C76.9423 286.373 76.129 286.053 75.3556 285.68V280.04C76.7156 280.627 78.1156 281.173 79.5556 281.68C81.0223 282.16 82.4756 282.4 83.9156 282.4C84.9023 282.4 85.689 282.267 86.2756 282C86.889 281.733 87.329 281.373 87.5956 280.92C87.889 280.467 88.0356 279.947 88.0356 279.36C88.0356 278.64 87.7823 278.027 87.2756 277.52C86.7956 277.013 86.1423 276.547 85.3156 276.12C84.489 275.667 83.5423 275.187 82.4756 274.68C81.809 274.36 81.089 273.987 80.3156 273.56C79.5423 273.107 78.7956 272.56 78.0756 271.92C77.3823 271.253 76.809 270.453 76.3556 269.52C75.9023 268.587 75.6756 267.467 75.6756 266.16C75.6756 264.453 76.0623 263 76.8356 261.8C77.6356 260.573 78.7556 259.64 80.1956 259C81.6623 258.36 83.3823 258.04 85.3556 258.04C86.849 258.04 88.2623 258.213 89.5956 258.56C90.9556 258.907 92.369 259.4 93.8356 260.04L91.8756 264.76C90.569 264.227 89.3956 263.813 88.3556 263.52C87.3156 263.227 86.249 263.08 85.1556 263.08C84.409 263.08 83.769 263.2 83.2356 263.44C82.7023 263.68 82.289 264.013 81.9956 264.44C81.729 264.867 81.5956 265.373 81.5956 265.96C81.5956 266.627 81.7956 267.2 82.1956 267.68C82.5956 268.133 83.1956 268.573 83.9956 269C84.7956 269.427 85.7956 269.933 86.9956 270.52C88.4623 271.213 89.7023 271.933 90.7156 272.68C91.7556 273.427 92.5556 274.307 93.1156 275.32C93.6756 276.333 93.9556 277.587 93.9556 279.08ZM107.867 282.64C108.534 282.64 109.174 282.573 109.787 282.44C110.4 282.307 111.014 282.147 111.627 281.96V286.4C110.987 286.667 110.187 286.893 109.227 287.08C108.294 287.293 107.267 287.4 106.147 287.4C104.84 287.4 103.667 287.187 102.627 286.76C101.614 286.333 100.8 285.6 100.187 284.56C99.6002 283.493 99.3069 282.027 99.3069 280.16V269.64H96.4669V267.12L99.7469 265.12L101.467 260.52H105.267V265.16H111.387V269.64H105.267V280.16C105.267 280.987 105.507 281.613 105.987 282.04C106.467 282.44 107.094 282.64 107.867 282.64ZM136.051 265.16V287H131.491L130.691 284.2H130.371C129.917 284.947 129.331 285.56 128.611 286.04C127.917 286.493 127.144 286.827 126.291 287.04C125.437 287.28 124.557 287.4 123.651 287.4C122.104 287.4 120.744 287.12 119.571 286.56C118.397 286 117.491 285.133 116.851 283.96C116.211 282.787 115.891 281.267 115.891 279.4V265.16H121.851V277.92C121.851 279.467 122.131 280.64 122.691 281.44C123.251 282.24 124.144 282.64 125.371 282.64C126.597 282.64 127.544 282.36 128.211 281.8C128.904 281.24 129.384 280.427 129.651 279.36C129.944 278.293 130.091 276.987 130.091 275.44V265.16H136.051ZM154.46 264.76C156.913 264.76 158.9 265.72 160.42 267.64C161.94 269.533 162.7 272.333 162.7 276.04C162.7 278.52 162.34 280.613 161.62 282.32C160.9 284 159.913 285.267 158.66 286.12C157.406 286.973 155.953 287.4 154.3 287.4C153.26 287.4 152.353 287.267 151.58 287C150.833 286.733 150.193 286.387 149.66 285.96C149.126 285.533 148.66 285.08 148.26 284.6H147.94C148.046 285.107 148.126 285.64 148.18 286.2C148.233 286.733 148.26 287.267 148.26 287.8V296.6H142.3V265.16H147.14L147.98 268H148.26C148.66 267.413 149.14 266.88 149.7 266.4C150.26 265.893 150.926 265.493 151.7 265.2C152.5 264.907 153.42 264.76 154.46 264.76ZM152.54 269.52C151.5 269.52 150.673 269.733 150.06 270.16C149.446 270.587 148.993 271.24 148.7 272.12C148.433 272.973 148.286 274.053 148.26 275.36V276C148.26 277.413 148.393 278.613 148.66 279.6C148.926 280.56 149.38 281.293 150.02 281.8C150.66 282.307 151.526 282.56 152.62 282.56C153.526 282.56 154.273 282.307 154.86 281.8C155.446 281.293 155.886 280.547 156.18 279.56C156.473 278.573 156.62 277.373 156.62 275.96C156.62 273.827 156.286 272.227 155.62 271.16C154.98 270.067 153.953 269.52 152.54 269.52ZM163.711 265.16H170.231L174.351 277.44C174.484 277.84 174.591 278.24 174.671 278.64C174.778 279.04 174.858 279.453 174.911 279.88C174.991 280.307 175.044 280.76 175.071 281.24H175.191C175.271 280.547 175.378 279.893 175.511 279.28C175.671 278.64 175.844 278.027 176.031 277.44L180.071 265.16H186.471L177.231 289.8C176.671 291.293 175.938 292.547 175.031 293.56C174.151 294.573 173.124 295.333 171.951 295.84C170.778 296.347 169.498 296.6 168.111 296.6C167.444 296.6 166.858 296.56 166.351 296.48C165.871 296.427 165.444 296.36 165.071 296.28V291.56C165.364 291.613 165.711 291.667 166.111 291.72C166.538 291.773 166.978 291.8 167.431 291.8C168.258 291.8 168.964 291.627 169.551 291.28C170.164 290.933 170.671 290.453 171.071 289.84C171.471 289.253 171.791 288.613 172.031 287.92L172.391 286.84L163.711 265.16Z" fill="black"/>
<mask id="path-2-inside-1_515_2219" fill="white">
<path d="M117.441 145.401C97.3835 146.772 82.2011 163.636 83.5299 183.067C84.8588 202.497 102.196 217.137 122.253 215.765C142.311 214.393 157.493 197.53 156.164 178.099C154.835 158.668 137.498 144.029 117.441 145.401Z"/>
</mask>
<path d="M117.441 145.401C97.3835 146.772 82.2011 163.636 83.5299 183.067C84.8588 202.497 102.196 217.137 122.253 215.765C142.311 214.393 157.493 197.53 156.164 178.099C154.835 158.668 137.498 144.029 117.441 145.401Z" fill="white"/>
<path d="M117.646 148.394C99.1509 149.658 85.3132 165.173 86.5229 182.862L80.5369 183.271C79.0889 162.099 95.6161 143.886 117.236 142.408L117.646 148.394ZM86.5229 182.862C87.7327 200.551 103.554 214.037 122.049 212.772L122.458 218.758C100.838 220.237 81.9849 204.444 80.5369 183.271L86.5229 182.862ZM122.049 212.772C140.543 211.507 154.381 195.992 153.171 178.304L159.157 177.894C160.605 199.067 144.078 217.279 122.458 218.758L122.049 212.772ZM153.171 178.304C151.961 160.615 136.14 147.129 117.646 148.394L117.236 142.408C138.856 140.929 157.709 156.722 159.157 177.894L153.171 178.304Z" fill="#FF9052" mask="url(#path-2-inside-1_515_2219)"/>
<circle cx="117.62" cy="166.444" r="3.05024" transform="rotate(179.554 117.62 166.444)" fill="#FF9052" stroke="#FF9052" stroke-width="3"/>
<circle cx="131.271" cy="166.337" r="3.05024" transform="rotate(179.554 131.271 166.337)" fill="#FF9052" stroke="#FF9052" stroke-width="3"/>
<mask id="path-6-inside-2_515_2219" fill="white">
<path d="M172.058 94.722C190.929 101.654 200.783 122.094 194.068 140.375C187.352 158.657 166.61 167.858 147.739 160.926C128.868 153.994 119.013 133.554 125.729 115.272C132.444 96.9906 153.186 87.79 172.058 94.722Z"/>
</mask>
<path d="M172.058 94.722C190.929 101.654 200.783 122.094 194.068 140.375C187.352 158.657 166.61 167.858 147.739 160.926C128.868 153.994 119.013 133.554 125.729 115.272C132.444 96.9906 153.186 87.79 172.058 94.722Z" fill="white"/>
<path d="M171.023 97.5381C188.424 103.93 197.365 122.698 191.252 139.341L196.884 141.41C204.201 121.489 193.434 99.3781 173.092 91.906L171.023 97.5381ZM191.252 139.341C185.138 155.984 166.174 164.502 148.773 158.11L146.704 163.742C167.046 171.214 189.566 161.33 196.884 141.41L191.252 139.341ZM148.773 158.11C131.372 151.718 122.431 132.949 128.545 116.307L122.913 114.238C115.595 134.158 126.363 156.269 146.704 163.742L148.773 158.11ZM128.545 116.307C134.658 99.6639 153.622 91.1461 171.023 97.5381L173.092 91.906C152.75 84.4339 130.23 94.3174 122.913 114.238L128.545 116.307Z" fill="#FF9052" mask="url(#path-6-inside-2_515_2219)"/>
<circle cx="154.386" cy="142.961" r="3.05024" transform="rotate(-170.074 154.386 142.961)" fill="#FF9052" stroke="#FF9052" stroke-width="3"/>
<circle cx="167.835" cy="145.314" r="3.05024" transform="rotate(-170.074 167.835 145.314)" fill="#FF9052" stroke="#FF9052" stroke-width="3"/>
</svg>
