<svg width="348" height="52" viewBox="0 0 348 52" fill="none" xmlns="http://www.w3.org/2000/svg">
<rect width="348" height="52" rx="3" fill="#03C75A"/>
<path fill-rule="evenodd" clip-rule="evenodd" d="M38.1002 25.3539V33.8002H33.2002V18.2002H38.1002L38.1002 18.2002L44.0002 26.7313V18.2002H48.9002V33.8002H44.0002V33.8002L38.1002 25.3539Z" fill="white"/>
<path d="M106.778 19.518V29.202H109.154V19.518H106.778ZM106.778 28.59V30.624H107.948C110.072 30.624 111.872 30.552 113.87 30.12L113.564 28.122C111.638 28.518 109.964 28.59 107.948 28.59H106.778ZM118.226 17.934V34.602H120.512V17.934H118.226ZM111.422 23.19V25.116H115.22V23.19H111.422ZM114.698 18.222V33.864H116.93V18.222H114.698ZM134.136 17.916V34.638H136.548V17.916H134.136ZM127.566 19.086C125.046 19.086 123.192 21.39 123.192 25.026C123.192 28.698 125.046 31.002 127.566 31.002C130.086 31.002 131.94 28.698 131.94 25.026C131.94 21.39 130.086 19.086 127.566 19.086ZM127.566 21.264C128.808 21.264 129.636 22.578 129.636 25.026C129.636 27.51 128.808 28.842 127.566 28.842C126.324 28.842 125.478 27.51 125.478 25.026C125.478 22.578 126.324 21.264 127.566 21.264ZM150.875 17.916V34.638H153.251V17.916H150.875ZM147.095 23.784V25.71H151.559V23.784H147.095ZM139.877 19.23V30.714H147.887V19.23H145.529V23.262H142.253V19.23H139.877ZM142.253 25.116H145.529V28.788H142.253V25.116ZM155.842 30.822V32.766H170.926V30.822H155.842ZM162.16 27.672V31.614H164.554V27.672H162.16ZM157.534 19.014V20.904H166.858V22.686H157.57V27.366H159.946V24.558H169.234V19.014H157.534ZM157.57 26.412V28.338H169.612V26.412H157.57ZM181.126 19.212V21.642C181.126 24.882 179.758 28.086 176.86 29.346L178.282 31.326C181.594 29.796 183.07 25.926 183.07 21.642V19.212H181.126ZM181.594 19.212V21.642C181.594 25.746 183.07 29.454 186.292 30.93L187.696 29.004C184.852 27.78 183.538 24.72 183.538 21.642V19.212H181.594ZM188.488 17.916V34.638H190.9V17.916H188.488ZM197.324 19.644V20.688C197.324 22.776 196.154 24.936 193.364 25.836L194.606 27.69C197.792 26.664 199.286 23.838 199.286 20.688V19.644H197.324ZM197.81 19.644V20.688C197.81 23.676 199.25 26.394 202.364 27.402L203.588 25.548C200.888 24.684 199.754 22.65 199.754 20.688V19.644H197.81ZM194.012 18.906V20.814H203.012V18.906H194.012ZM204.344 17.934V27.978H206.738V17.934H204.344ZM206.072 21.966V23.928H208.952V21.966H206.072ZM195.614 28.698V30.624H204.344V34.602H206.738V28.698H195.614ZM220.867 17.934V34.602H223.243V17.934H220.867ZM222.703 24.432V26.43H225.655V24.432H222.703ZM210.103 20.4V22.308H219.805V20.4H210.103ZM214.981 23.244C212.551 23.244 210.751 24.9 210.751 27.222C210.751 29.544 212.551 31.2 214.981 31.2C217.411 31.2 219.211 29.544 219.211 27.222C219.211 24.9 217.411 23.244 214.981 23.244ZM214.981 25.188C216.115 25.188 216.925 25.944 216.925 27.222C216.925 28.5 216.115 29.256 214.981 29.256C213.847 29.256 213.037 28.5 213.037 27.222C213.037 25.944 213.847 25.188 214.981 25.188ZM213.775 18.204V21.12H216.169V18.204H213.775ZM238.218 17.934V34.602H240.63V17.934H238.218ZM233.304 19.662V20.094C233.304 24.558 231.576 27.582 226.788 29.886L228.03 31.794C233.952 28.932 235.68 24.756 235.68 19.662H233.304ZM227.67 19.662V21.552H234.438V19.662H227.67Z" fill="white"/>
</svg>
