<svg width="78" height="24" viewBox="0 0 78 24" fill="none" xmlns="http://www.w3.org/2000/svg">
<path d="M10.285 3.608V14.216H12.429V3.608H10.285ZM11.821 7.736V9.48H14.397V7.736H11.821ZM6.157 4.712V5.768C6.157 8.12 4.285 10.104 0.653 11.096L1.549 12.792C5.965 11.512 8.429 8.744 8.429 4.712H6.157ZM1.293 4.712V6.424H7.309V4.712H1.293ZM2.845 16.472V18.168H12.925V16.472H2.845ZM2.845 13.144V17.224H4.989V13.144H2.845ZM25.7558 3.608V14.52H27.8838V3.608H25.7558ZM15.8518 4.664V6.36H23.6758V4.664H15.8518ZM15.6918 12.76C18.0438 12.76 21.2278 12.696 23.9798 12.232L23.8678 10.68C21.1958 10.984 17.8678 11.016 15.4838 11.016L15.6918 12.76ZM17.0198 6.152V11.224H19.0677V6.152H17.0198ZM20.4598 6.152V11.224H22.4918V6.152H20.4598ZM23.9638 6.2V7.896H26.9078V6.2H23.9638ZM23.9638 9.176V10.888H26.9078V9.176H23.9638ZM18.0918 16.472V18.168H28.2198V16.472H18.0918ZM18.0918 13.72V17.752H20.2358V13.72H18.0918ZM34.3748 15.064V16.792H47.7828V15.064H34.3748ZM39.9908 12.264V15.768H42.1188V12.264H39.9908ZM35.8788 4.568V6.248H44.1668V7.832H35.9108V11.992H38.0228V9.496H46.2788V4.568H35.8788ZM35.9108 11.144V12.856H46.6148V11.144H35.9108ZM50.4535 4.968V6.648H59.8455V4.968H50.4535ZM49.0935 14.76V16.488H62.4855V14.76H49.0935ZM58.7255 4.968V6.728C58.7255 8.728 58.7255 10.84 58.1815 13.688L60.3095 13.864C60.8375 10.824 60.8375 8.808 60.8375 6.728V4.968H58.7255ZM73.9723 3.624V14.264H76.1163V3.624H73.9723ZM66.2443 16.472V18.168H76.4843V16.472H66.2443ZM66.2443 13.192V17.16H68.3723V13.192H66.2443ZM68.0523 4.552C65.7803 4.552 64.0203 6.12 64.0203 8.312C64.0203 10.488 65.7803 12.072 68.0523 12.072C70.3243 12.072 72.0683 10.488 72.0683 8.312C72.0683 6.12 70.3243 4.552 68.0523 4.552ZM68.0523 6.392C69.1403 6.392 69.9883 7.096 69.9883 8.312C69.9883 9.512 69.1403 10.216 68.0523 10.216C66.9483 10.216 66.1003 9.512 66.1003 8.312C66.1003 7.096 66.9483 6.392 68.0523 6.392Z" fill="white"/>
<rect y="23" width="78" height="1" fill="white"/>
</svg>
