<svg width="289" height="73" viewBox="0 0 289 73" fill="none" xmlns="http://www.w3.org/2000/svg">
<rect x="68" y="22" width="93" height="14" fill="#FF9052"/>
<path d="M84.4521 26.06C84.4521 27.96 83.7621 29.48 82.3821 30.62C81.0221 31.74 79.0821 32.3 76.5621 32.3C74.3021 32.3 72.2821 31.87 70.5021 31.01V26.78C71.5221 27.22 72.5721 27.63 73.6521 28.01C74.7521 28.37 75.8421 28.55 76.9221 28.55C78.0421 28.55 78.8321 28.34 79.2921 27.92C79.7721 27.48 80.0121 26.93 80.0121 26.27C80.0121 25.73 79.8221 25.27 79.4421 24.89C79.0821 24.51 78.5921 24.16 77.9721 23.84C77.3521 23.5 76.6421 23.14 75.8421 22.76C75.3421 22.52 74.8021 22.24 74.2221 21.92C73.6421 21.58 73.0821 21.17 72.5421 20.69C72.0221 20.19 71.5921 19.59 71.2521 18.89C70.9121 18.19 70.7421 17.35 70.7421 16.37C70.7421 14.45 71.3921 12.96 72.6921 11.9C73.9921 10.82 75.7621 10.28 78.0021 10.28C79.1221 10.28 80.1821 10.41 81.1821 10.67C82.1821 10.93 83.2421 11.3 84.3621 11.78L82.8921 15.32C81.9121 14.92 81.0321 14.61 80.2521 14.39C79.4721 14.17 78.6721 14.06 77.8521 14.06C76.9921 14.06 76.3321 14.26 75.8721 14.66C75.4121 15.06 75.1821 15.58 75.1821 16.22C75.1821 16.98 75.5221 17.58 76.2021 18.02C76.8821 18.46 77.8921 19 79.2321 19.64C80.3321 20.16 81.2621 20.7 82.0221 21.26C82.8021 21.82 83.4021 22.48 83.8221 23.24C84.2421 24 84.4521 24.94 84.4521 26.06ZM96.5955 32H92.0655V14.36H86.2455V10.58H102.416V14.36H96.5955V32ZM123.149 10.58V24.44C123.149 25.92 122.819 27.26 122.159 28.46C121.519 29.64 120.539 30.58 119.219 31.28C117.899 31.96 116.249 32.3 114.269 32.3C111.429 32.3 109.269 31.58 107.789 30.14C106.309 28.68 105.569 26.76 105.569 24.38V10.58H110.099V23.69C110.099 25.47 110.459 26.72 111.179 27.44C111.899 28.14 112.969 28.49 114.389 28.49C115.869 28.49 116.939 28.1 117.599 27.32C118.279 26.54 118.619 25.32 118.619 23.66V10.58H123.149ZM135.234 10.58C137.994 10.58 140.004 11.18 141.264 12.38C142.544 13.56 143.184 15.19 143.184 17.27C143.184 18.53 142.924 19.7 142.404 20.78C141.884 21.86 141.014 22.73 139.794 23.39C138.594 24.05 136.954 24.38 134.874 24.38H132.924V32H128.394V10.58H135.234ZM134.994 14.3H132.924V20.66H134.424C135.704 20.66 136.714 20.41 137.454 19.91C138.214 19.39 138.594 18.56 138.594 17.42C138.594 15.34 137.394 14.3 134.994 14.3ZM153.892 19.4L158.362 10.58H163.252L156.142 23.66V32H151.642V23.81L144.532 10.58H149.452L153.892 19.4ZM179.471 20.6V22.256H183.575V20.6H179.471ZM187.199 12.176V33.872H189.119V12.176H187.199ZM182.903 12.632V32.792H184.799V12.632H182.903ZM175.559 13.976C172.751 13.976 170.951 16.88 170.951 21.536C170.951 26.192 172.751 29.096 175.559 29.096C178.367 29.096 180.191 26.192 180.191 21.536C180.191 16.88 178.367 13.976 175.559 13.976ZM175.559 15.824C177.287 15.824 178.367 18.032 178.367 21.536C178.367 25.04 177.287 27.248 175.559 27.248C173.855 27.248 172.775 25.04 172.775 21.536C172.775 18.032 173.855 15.824 175.559 15.824ZM203.589 19.52V21.152H209.637V19.52H203.589ZM198.357 14.048V17.912C198.357 21.944 195.909 26.12 192.717 27.704L193.989 29.288C197.421 27.44 199.989 22.784 199.989 17.912V14.048H198.357ZM198.741 14.048V17.912C198.741 22.664 201.261 27.128 204.765 28.904L205.941 27.296C202.797 25.808 200.349 21.872 200.349 17.912V14.048H198.741ZM208.653 12.152V33.896H210.621V12.152H208.653ZM1.60569 56.696V58.328H21.2137V56.696H1.60569ZM10.4377 53.528V57.536H12.4057V53.528H10.4377ZM4.14969 64.76V66.392H19.0537V64.76H4.14969ZM4.14969 60.128V65.288H6.14169V60.128H4.14969ZM11.4217 45.8C6.76569 45.8 3.78969 47.456 3.78969 50.144C3.78969 52.856 6.76569 54.464 11.4217 54.464C16.0537 54.464 19.0537 52.856 19.0537 50.144C19.0537 47.456 16.0537 45.8 11.4217 45.8ZM11.4217 47.432C14.8297 47.432 17.0137 48.464 17.0137 50.144C17.0137 51.848 14.8297 52.856 11.4217 52.856C8.01369 52.856 5.82969 51.848 5.82969 50.144C5.82969 48.464 8.01369 47.432 11.4217 47.432ZM38.3958 45.152V66.896H40.3878V45.152H38.3958ZM39.9078 53.792V55.472H43.9398V53.792H39.9078ZM24.5718 60.008V61.664H26.2998C30.4518 61.664 33.3318 61.496 36.7158 60.896L36.4998 59.24C33.2118 59.864 30.3798 60.008 26.2998 60.008H24.5718ZM24.5238 47.192V48.824H32.3718V53.336H24.5718V60.68H26.5398V54.968H34.3398V47.192H24.5238ZM61.5539 45.2V61.04H63.5699V45.2H61.5539ZM49.6259 64.76V66.392H64.2179V64.76H49.6259ZM49.6259 59.408V65.312H51.5939V59.408H49.6259ZM51.9299 46.688C48.6899 46.688 46.2659 48.896 46.2659 52.04C46.2659 55.16 48.6899 57.392 51.9299 57.392C55.1699 57.392 57.5699 55.16 57.5699 52.04C57.5699 48.896 55.1699 46.688 51.9299 46.688ZM51.9299 48.416C54.0419 48.416 55.6499 49.904 55.6499 52.04C55.6499 54.152 54.0419 55.64 51.9299 55.64C49.8179 55.64 48.2099 54.152 48.2099 52.04C48.2099 49.904 49.8179 48.416 51.9299 48.416ZM77.6561 46.544C73.1441 46.544 69.7601 48.944 69.7601 52.544C69.7601 56.168 73.1441 58.544 77.6561 58.544C82.1681 58.544 85.5281 56.168 85.5281 52.544C85.5281 48.944 82.1681 46.544 77.6561 46.544ZM77.6561 48.176C81.0881 48.176 83.6321 49.928 83.6321 52.544C83.6321 55.136 81.0881 56.912 77.6561 56.912C74.2241 56.912 71.6801 55.136 71.6801 52.544C71.6801 49.928 74.2241 48.176 77.6561 48.176ZM67.8641 62.336V64.016H87.5201V62.336H67.8641ZM89.9422 62.552V64.208H109.598V62.552H89.9422ZM98.7262 57.896V63.248H100.718V57.896H98.7262ZM92.3182 46.784V48.392H105.206V51.752H92.3902V57.704H94.3582V53.36H107.174V46.784H92.3182ZM92.3902 56.864V58.496H107.678V56.864H92.3902ZM127.975 58.856C123.343 58.856 120.415 60.368 120.415 62.864C120.415 65.336 123.343 66.824 127.975 66.824C132.583 66.824 135.535 65.336 135.535 62.864C135.535 60.368 132.583 58.856 127.975 58.856ZM127.975 60.416C131.383 60.416 133.543 61.352 133.543 62.864C133.543 64.352 131.383 65.288 127.975 65.288C124.567 65.288 122.383 64.352 122.383 62.864C122.383 61.352 124.567 60.416 127.975 60.416ZM120.583 46.256V47.888H134.551V46.256H120.583ZM118.255 55.28V56.888H137.839V55.28H118.255ZM126.295 51.104V55.736H128.263V51.104H126.295ZM133.399 46.256V48.104C133.399 49.808 133.399 51.392 132.799 53.624L134.767 53.864C135.343 51.608 135.343 49.856 135.343 48.104V46.256H133.399ZM140.309 58.016V59.648H159.989V58.016H140.309ZM149.093 58.784V66.872H151.061V58.784H149.093ZM142.781 46.04V55.424H157.469V46.04H155.501V49.016H144.773V46.04H142.781ZM144.773 50.624H155.501V53.816H144.773V50.624ZM177.099 45.176V66.872H179.091V45.176H177.099ZM178.611 54.08V55.76H182.643V54.08H178.611ZM162.291 48.632V50.264H175.083V48.632H162.291ZM168.771 52.064C165.723 52.064 163.491 54.128 163.491 57.056C163.491 59.984 165.723 62.048 168.771 62.048C171.843 62.048 174.051 59.984 174.051 57.056C174.051 54.128 171.843 52.064 168.771 52.064ZM168.771 53.72C170.739 53.72 172.155 55.088 172.155 57.056C172.155 59 170.739 60.392 168.771 60.392C166.803 60.392 165.387 59 165.387 57.056C165.387 55.088 166.803 53.72 168.771 53.72ZM167.739 45.44V49.376H169.731V45.44H167.739ZM186.553 47.336V48.992H200.521V47.336H186.553ZM184.489 62.192V63.848H204.097V62.192H184.489ZM192.097 54.44V63.008H194.089V54.44H192.097ZM199.777 47.336V49.496C199.777 52.088 199.777 55.136 198.961 59.288L200.953 59.552C201.745 55.16 201.745 52.184 201.745 49.496V47.336H199.777ZM228.57 45.2V57.224H230.586V45.2H228.57ZM218.442 45.968V48.08C218.442 51.2 216.186 54.08 212.922 55.232L213.93 56.792C217.602 55.472 220.098 52.088 220.098 48.08V45.968H218.442ZM218.802 45.968V48.08C218.802 51.968 221.298 55.16 224.946 56.408L225.93 54.824C222.714 53.768 220.434 51.104 220.434 48.08V45.968H218.802ZM216.234 58.52V60.152H230.706V58.52H216.234ZM216.018 64.976V66.584H230.946V64.976H216.018ZM219.21 59.216V65.912H221.154V59.216H219.21ZM225.786 59.216V65.912H227.754V59.216H225.786ZM249.544 45.152V66.896H251.56V45.152H249.544ZM251.08 53.72V55.4H255.112V53.72H251.08ZM235.792 59.816V61.496H237.496C241.576 61.496 244.432 61.376 247.768 60.752L247.552 59.072C244.312 59.672 241.504 59.816 237.496 59.816H235.792ZM235.792 47.264V60.56H237.76V48.896H245.872V47.264H235.792ZM267.35 48.992V50.624H273.422V48.992H267.35ZM267.35 53.624V55.28H273.47V53.624H267.35ZM257.942 47.048V57.224H267.854V47.048H257.942ZM265.886 48.656V55.616H259.886V48.656H265.886ZM272.798 45.2V61.04H274.79V45.2H272.798ZM260.846 64.76V66.392H275.318V64.76H260.846ZM260.846 59.6V65.504H262.838V59.6H260.846ZM281.172 59.912V59.216C281.172 58.336 281.316 57.616 281.604 57.056C281.908 56.48 282.452 55.872 283.236 55.232C283.812 54.768 284.26 54.376 284.58 54.056C284.916 53.72 285.156 53.392 285.3 53.072C285.444 52.736 285.516 52.352 285.516 51.92C285.516 51.232 285.284 50.704 284.82 50.336C284.356 49.968 283.7 49.784 282.852 49.784C282.1 49.784 281.412 49.888 280.788 50.096C280.164 50.288 279.556 50.528 278.964 50.816L278.052 48.896C278.74 48.528 279.492 48.224 280.308 47.984C281.124 47.744 282.028 47.624 283.02 47.624C284.588 47.624 285.796 48.008 286.644 48.776C287.508 49.544 287.94 50.568 287.94 51.848C287.94 52.552 287.828 53.152 287.604 53.648C287.38 54.144 287.052 54.6 286.62 55.016C286.204 55.432 285.708 55.88 285.132 56.36C284.62 56.776 284.228 57.136 283.956 57.44C283.684 57.744 283.5 58.048 283.404 58.352C283.308 58.656 283.26 59.016 283.26 59.432V59.912H281.172ZM280.668 63.584C280.668 62.96 280.82 62.52 281.124 62.264C281.444 62.008 281.844 61.88 282.324 61.88C282.772 61.88 283.156 62.008 283.476 62.264C283.796 62.52 283.956 62.96 283.956 63.584C283.956 64.208 283.796 64.656 283.476 64.928C283.156 65.2 282.772 65.336 282.324 65.336C281.844 65.336 281.444 65.2 281.124 64.928C280.82 64.656 280.668 64.208 280.668 63.584Z" fill="#323232"/>
</svg>
