<svg width="24" height="25" viewBox="0 0 24 25" fill="none" xmlns="http://www.w3.org/2000/svg">
<path fill-rule="evenodd" clip-rule="evenodd" d="M18.356 5H17.037L15.207 3H9.20703L7.37703 5H4.20703C3.10703 5 2.20703 5.9 2.20703 7V19C2.20703 19.5877 2.46391 20.1183 2.87093 20.485L7.86906 15.4869C7.44793 14.7543 7.20703 13.9051 7.20703 13C7.20703 10.24 9.44703 8 12.207 8C13.1121 8 13.9613 8.2409 14.6939 8.66203L18.356 5ZM21.4531 5.43844L16.4831 10.4084C16.9424 11.1643 17.207 12.0514 17.207 13C17.207 15.76 14.967 18 12.207 18C11.2585 18 10.3713 17.7354 9.61542 17.2761L5.89149 21H20.207C21.307 21 22.207 20.1 22.207 19V7C22.207 6.37007 21.9119 5.80573 21.4531 5.43844ZM10.9486 15.9429C11.3348 16.1083 11.7601 16.1998 12.2068 16.1998C13.9741 16.1998 15.4068 14.7671 15.4068 12.9998C15.4068 12.5531 15.3153 12.1278 15.15 11.7415L10.9486 15.9429ZM13.347 10.0089C12.9929 9.8738 12.6085 9.7998 12.2068 9.7998C10.4395 9.7998 9.00684 11.2325 9.00684 12.9998C9.00684 13.4015 9.08083 13.7858 9.21594 14.14L13.347 10.0089Z" fill="#8F8F8F"/>
<rect x="20.5244" y="3.2998" width="1.80437" height="26.1973" transform="rotate(45 20.5244 3.2998)" fill="#EF2828"/>
</svg>
