<svg width="22" height="22" viewBox="0 0 22 22" fill="none" xmlns="http://www.w3.org/2000/svg">
<path fill-rule="evenodd" clip-rule="evenodd" d="M13.4199 11.0005L20.9546 3.46582C21.1032 3.31725 21.2212 3.14085 21.3017 2.94671C21.3821 2.75256 21.4236 2.54446 21.4237 2.33429C21.4237 2.12412 21.3824 1.91599 21.302 1.7218C21.2216 1.5276 21.1038 1.35114 20.9552 1.20248C20.8067 1.05383 20.6303 0.935889 20.4361 0.855403C20.242 0.774918 20.0339 0.73346 19.8237 0.733399C19.6135 0.733337 19.4054 0.774671 19.2112 0.855042C19.017 0.935414 18.8406 1.05325 18.6919 1.20182L11.1572 8.73782L3.62124 1.20182C3.31772 0.918318 2.91592 0.763837 2.50065 0.77098C2.08539 0.778122 1.68914 0.946328 1.39554 1.2401C1.10195 1.53386 0.933977 1.93021 0.927079 2.34548C0.920182 2.76075 1.0749 3.16246 1.35858 3.46582L8.89458 11.0005L1.35858 18.5351C1.13585 18.7594 0.984416 19.0445 0.923307 19.3546C0.862198 19.6647 0.894146 19.986 1.01513 20.278C1.13612 20.57 1.34075 20.8197 1.60327 20.9957C1.8658 21.1717 2.17451 21.2661 2.49058 21.2672C2.89991 21.2672 3.30924 21.1112 3.62124 20.7992L11.1572 13.2631L18.6919 20.7992C18.8403 20.948 19.0166 21.0662 19.2108 21.1468C19.4049 21.2274 19.613 21.2689 19.8232 21.2689C20.0334 21.2689 20.2416 21.2274 20.4357 21.1468C20.6299 21.0662 20.8062 20.948 20.9546 20.7992C21.1033 20.6506 21.2214 20.4741 21.3019 20.2799C21.3824 20.0856 21.4238 19.8774 21.4238 19.6672C21.4238 19.4569 21.3824 19.2487 21.3019 19.0544C21.2214 18.8602 21.1033 18.6837 20.9546 18.5351L13.4199 11.0005Z" fill="white"/>
</svg>
