<svg width="24" height="24" viewBox="0 0 24 24" fill="none" xmlns="http://www.w3.org/2000/svg">
<g clip-path="url(#clip0_1181_1191)">
<path fill-rule="evenodd" clip-rule="evenodd" d="M11.5 0.612305C10.3065 0.612305 9.16193 1.08641 8.31802 1.93032C7.47411 2.77424 7 3.91883 7 5.1123V11.3153C7 12.3867 7.38206 13.4186 8.07072 14.2291L16 6.2998V5.1123C16 3.91883 15.5259 2.77424 14.682 1.93032C13.8381 1.08641 12.6935 0.612305 11.5 0.612305ZM16 9.83534L10.2091 15.6262C10.6243 15.7505 11.0588 15.8153 11.5 15.8153C12.6935 15.8153 13.8381 15.3412 14.682 14.4973C15.5259 13.6534 16 12.5088 16 11.3153V9.83534ZM6.63729 15.6625C5.5869 14.4634 5.00194 12.9203 5 11.3164C5 11.0512 4.89464 10.7969 4.70711 10.6093C4.51957 10.4218 4.26522 10.3164 4 10.3164C3.73478 10.3164 3.48043 10.4218 3.29289 10.6093C3.10536 10.7969 3 11.0512 3 11.3164C3 13.5312 3.84204 15.5521 5.22271 17.0771L6.63729 15.6625ZM7.1603 18.675L8.62866 17.2067C9.54168 17.6678 10.558 17.9152 11.6 17.9164C13.3501 17.9146 15.028 17.2185 16.2656 15.981C17.5031 14.7435 18.1991 13.0656 18.201 11.3154C18.201 11.0502 18.3064 10.7959 18.4939 10.6083C18.6814 10.4208 18.9358 10.3154 19.201 10.3154C19.4662 10.3154 19.7206 10.4208 19.9081 10.6083C20.0956 10.7959 20.201 11.0502 20.201 11.3154C20.201 15.7194 16.873 19.3554 12.6 19.8534V23.0004C12.6 23.2656 12.4946 23.52 12.3071 23.7075C12.1196 23.8951 11.8652 24.0004 11.6 24.0004C11.3348 24.0004 11.0804 23.8951 10.8929 23.7075C10.7054 23.52 10.6 23.2656 10.6 23.0004V19.8534C9.35328 19.7084 8.18697 19.2959 7.1603 18.675Z" fill="#8F8F8F"/>
<rect x="20.4375" y="2.34961" width="1.80437" height="25.4182" transform="rotate(45 20.4375 2.34961)" fill="#EF2828"/>
</g>
<defs>
<clipPath id="clip0_1181_1191">
<rect width="24" height="24" fill="white"/>
</clipPath>
</defs>
</svg>
