<svg width="22" height="16" viewBox="0 0 22 16" fill="none" xmlns="http://www.w3.org/2000/svg">
<path fill-rule="evenodd" clip-rule="evenodd" d="M12.2778 1.3875C12.2778 2.01572 11.7685 2.525 11.1403 2.525C10.5121 2.525 10.0028 2.01572 10.0028 1.3875C10.0028 0.759276 10.5121 0.25 11.1403 0.25C11.7685 0.25 12.2778 0.759276 12.2778 1.3875ZM15.3379 8.42418L19.2681 6.39272C20.0654 5.98031 20.9861 6.67447 20.8075 7.55443L19.4283 14.3663C19.3339 14.8326 18.924 15.1678 18.4482 15.1678H3.8322C3.35641 15.1678 2.9465 14.8326 2.85209 14.3662L1.47292 7.55443C1.43317 7.35685 1.45004 7.15207 1.52158 6.96366C1.59313 6.77525 1.71643 6.61088 1.8773 6.48948C2.03817 6.36808 2.23006 6.29459 2.43087 6.27747C2.63168 6.26035 2.83324 6.3003 3.01233 6.39272L6.94254 8.42418L10.2439 3.34554C10.3409 3.19618 10.4738 3.07343 10.6303 2.98846C10.7868 2.90349 10.9621 2.85898 11.1402 2.85898C11.3183 2.85898 11.4936 2.90349 11.6501 2.98846C11.8067 3.07343 11.9395 3.19618 12.0365 3.34554L15.3379 8.42418ZM1.6375 6.06003C2.26572 6.06003 2.775 5.55076 2.775 4.92253C2.775 4.29431 2.26572 3.78503 1.6375 3.78503C1.00928 3.78503 0.5 4.29431 0.5 4.92253C0.5 5.55076 1.00928 6.06003 1.6375 6.06003ZM20.6777 6.025C21.3059 6.025 21.8152 5.51572 21.8152 4.8875C21.8152 4.25928 21.3059 3.75 20.6777 3.75C20.0495 3.75 19.5402 4.25928 19.5402 4.8875C19.5402 5.51572 20.0495 6.025 20.6777 6.025Z" fill="white"/>
</svg>
