<svg width="13" height="9" viewBox="0 0 13 9" fill="none" xmlns="http://www.w3.org/2000/svg">
<path fill-rule="evenodd" clip-rule="evenodd" d="M6.73018 0.65C6.73018 1.00899 6.43916 1.3 6.08018 1.3C5.72119 1.3 5.43018 1.00899 5.43018 0.65C5.43018 0.291015 5.72119 0 6.08018 0C6.43916 0 6.73018 0.291015 6.73018 0.65ZM8.47879 4.67096L10.7246 3.51013C11.1802 3.27446 11.7064 3.67113 11.6043 4.17396L10.8857 7.7229C10.7913 8.18923 10.3814 8.52446 9.90563 8.52446H2.25461C1.77882 8.52446 1.36891 8.18923 1.2745 7.7229L0.555953 4.17396C0.53324 4.06106 0.54288 3.94404 0.583762 3.83638C0.624644 3.72871 0.695105 3.63479 0.787031 3.56542C0.878956 3.49604 0.988607 3.45405 1.10335 3.44427C1.2181 3.43449 1.33328 3.45732 1.43562 3.51013L3.68145 4.67096L5.56795 1.76888C5.6234 1.68353 5.69929 1.61339 5.78874 1.56483C5.87818 1.51628 5.97834 1.49084 6.08012 1.49084C6.18189 1.49084 6.28206 1.51628 6.3715 1.56483C6.46095 1.61339 6.53684 1.68353 6.59229 1.76888L8.47879 4.67096ZM0.65 3.32002C1.00899 3.32002 1.3 3.029 1.3 2.67002C1.3 2.31103 1.00899 2.02002 0.65 2.02002C0.291015 2.02002 0 2.31103 0 2.67002C0 3.029 0.291015 3.32002 0.65 3.32002ZM11.5301 3.3C11.8891 3.3 12.1801 3.00899 12.1801 2.65C12.1801 2.29101 11.8891 2 11.5301 2C11.1711 2 10.8801 2.29101 10.8801 2.65C10.8801 3.00899 11.1711 3.3 11.5301 3.3Z" fill="#FF9052"/>
</svg>
