<svg width="32" height="32" viewBox="0 0 32 32" fill="none" xmlns="http://www.w3.org/2000/svg">
<circle cx="16" cy="16" r="16" fill="#FF9052"/>
<path d="M13.6 8.7998L12.136 10.3998H9.6C8.72 10.3998 8 11.1198 8 11.9998V21.5998C8 22.4798 8.72 23.1998 9.6 23.1998H22.4C23.28 23.1998 24 22.4798 24 21.5998V11.9998C24 11.1198 23.28 10.3998 22.4 10.3998H19.864L18.4 8.7998H13.6ZM16 20.7998C13.792 20.7998 12 19.0078 12 16.7998C12 14.5918 13.792 12.7998 16 12.7998C18.208 12.7998 20 14.5918 20 16.7998C20 19.0078 18.208 20.7998 16 20.7998Z" fill="white"/>
</svg>
