<svg width="47" height="47" viewBox="0 0 47 47" fill="none" xmlns="http://www.w3.org/2000/svg">
<circle cx="23.5" cy="23.5" r="23.5" fill="#FF9052"/>
<path fill-rule="evenodd" clip-rule="evenodd" d="M32.3178 23.8001H25.3178V16.8001C25.3178 16.4818 25.1913 16.1766 24.9663 15.9516C24.7413 15.7265 24.436 15.6001 24.1178 15.6001C23.7995 15.6001 23.4943 15.7265 23.2692 15.9516C23.0442 16.1766 22.9178 16.4818 22.9178 16.8001V23.8001H15.9178C15.5995 23.8001 15.2943 23.9265 15.0692 24.1516C14.8442 24.3766 14.7178 24.6818 14.7178 25.0001C14.7178 25.3184 14.8442 25.6236 15.0692 25.8486C15.2943 26.0737 15.5995 26.2001 15.9178 26.2001H22.9178V33.2001C22.9178 33.5184 23.0442 33.8236 23.2692 34.0486C23.4943 34.2737 23.7995 34.4001 24.1178 34.4001C24.436 34.4001 24.7413 34.2737 24.9663 34.0486C25.1913 33.8236 25.3178 33.5184 25.3178 33.2001V26.2001H32.3178C32.636 26.2001 32.9413 26.0737 33.1663 25.8486C33.3913 25.6236 33.5178 25.3184 33.5178 25.0001C33.5178 24.6818 33.3913 24.3766 33.1663 24.1516C32.9413 23.9265 32.636 23.8001 32.3178 23.8001" fill="white"/>
</svg>
