<svg width="48" height="48" viewBox="0 0 48 48" fill="none" xmlns="http://www.w3.org/2000/svg">
<circle cx="24" cy="24" r="23" fill="#FF9052"/>
<path d="M21.6 16.7998L20.136 18.3998H17.6C16.72 18.3998 16 19.1198 16 19.9998V29.5998C16 30.4798 16.72 31.1998 17.6 31.1998H30.4C31.28 31.1998 32 30.4798 32 29.5998V19.9998C32 19.1198 31.28 18.3998 30.4 18.3998H27.864L26.4 16.7998H21.6ZM24 28.7998C21.792 28.7998 20 27.0078 20 24.7998C20 22.5918 21.792 20.7998 24 20.7998C26.208 20.7998 28 22.5918 28 24.7998C28 27.0078 26.208 28.7998 24 28.7998Z" fill="white"/>
</svg>
