<svg width="52" height="32" viewBox="0 0 52 32" fill="none" xmlns="http://www.w3.org/2000/svg">
<rect x="0.5" y="0.5" width="51" height="31" rx="4.5" stroke="#E8E8E8"/>
<path d="M21.688 8.784V17.44H23.016V8.784H21.688ZM22.648 12.512V13.632H25.16V12.512H22.648ZM17.688 9.84V10.448C17.688 13.152 15.48 15.328 11.8 16.416L12.36 17.488C16.536 16.256 19.112 13.552 19.112 9.84H17.688ZM12.44 9.84V10.944H18.44V9.84H12.44ZM18.488 17.616C15.608 17.616 13.768 18.672 13.768 20.416C13.768 22.16 15.608 23.216 18.488 23.216C21.352 23.216 23.176 22.16 23.176 20.416C23.176 18.672 21.352 17.616 18.488 17.616ZM18.488 18.672C20.568 18.672 21.896 19.328 21.896 20.416C21.896 21.504 20.568 22.16 18.488 22.16C16.408 22.16 15.08 21.504 15.08 20.416C15.08 19.328 16.408 18.672 18.488 18.672ZM30.6628 16.432V19.504H31.9908V16.432H30.6628ZM27.6708 15.728V16.816H35.1908V15.728H27.6708ZM27.6708 10.096V16.144H28.9988V11.168H35.1428V10.096H27.6708ZM28.6148 12.88V13.936H34.8388V12.88H28.6148ZM36.9668 8.768V23.264H38.2948V8.768H36.9668ZM26.7747 20.352C29.3508 20.352 32.8868 20.336 36.1348 19.728L36.0228 18.736C32.8708 19.216 29.2228 19.232 26.5828 19.232L26.7747 20.352Z" fill="#EF2828"/>
</svg>
