<svg width="48" height="22" viewBox="0 0 48 22" fill="none" xmlns="http://www.w3.org/2000/svg">
<path d="M25.472 12.664C22.384 12.664 20.448 13.736 20.448 15.544C20.448 17.368 22.384 18.44 25.472 18.44C28.544 18.44 30.48 17.368 30.48 15.544C30.48 13.736 28.544 12.664 25.472 12.664ZM25.472 14.328C27.36 14.328 28.368 14.712 28.368 15.544C28.368 16.392 27.36 16.792 25.472 16.792C23.584 16.792 22.56 16.392 22.56 15.544C22.56 14.712 23.584 14.328 25.472 14.328ZM28.176 3.608V12.328H30.304V3.608H28.176ZM29.712 7.048V8.808H32.272V7.048L29.712 7.048ZM19.072 4.552V11.512L26.192 11.512V4.552H24.08V6.376H21.184V4.552L19.072 4.552ZM21.184 8.024L24.08 8.024V9.848L21.184 9.848V8.024ZM36.6548 5.256V6.184C36.6548 8.072 35.6148 10.008 33.1508 10.824L34.2068 12.504C37.0708 11.56 38.3988 9.016 38.3988 6.184V5.256L36.6548 5.256ZM37.0868 5.256V6.184C37.0868 8.824 38.3668 11.144 41.1828 11.992L42.1908 10.328C39.8068 9.608 38.8148 7.912 38.8148 6.184V5.256L37.0868 5.256ZM33.7108 4.6V6.296L41.7108 6.296V4.6L33.7108 4.6ZM42.8948 3.608V12.392H45.0228V3.608L42.8948 3.608ZM44.4308 7.016V8.76L46.9908 8.76V7.016H44.4308ZM40.1908 12.664C37.1028 12.664 35.1668 13.736 35.1668 15.544C35.1668 17.352 37.1028 18.424 40.1908 18.424C43.2628 18.424 45.1988 17.352 45.1988 15.544C45.1988 13.736 43.2628 12.664 40.1908 12.664ZM40.1908 14.328C42.0788 14.328 43.0868 14.712 43.0868 15.544C43.0868 16.376 42.0788 16.792 40.1908 16.792C38.3028 16.792 37.2788 16.376 37.2788 15.544C37.2788 14.712 38.3028 14.328 40.1908 14.328Z" fill="#FF9052"/>
<path d="M12.5865 5.48794L6.75417 3.05098C6.59185 2.98301 6.40948 2.98301 6.24649 3.05098L0.414162 5.48794C0.163661 5.59262 0 5.84074 0 6.11672L0 11.7826C0 14.3636 3.20842 16.874 6.20107 18.4266C6.38944 18.5245 6.61122 18.5245 6.79893 18.4266C9.79158 16.874 13 14.3636 13 11.7826L13 6.11672C13.0007 5.84142 12.837 5.59262 12.5865 5.48794ZM6.50033 7.00925C7.31329 7.00925 7.97194 7.6795 7.97194 8.50678C7.97194 9.33405 7.31329 10.0036 6.50033 10.0036C5.68737 10.0036 5.02872 9.33337 5.02872 8.5061C5.02872 7.67882 5.68737 7.00925 6.50033 7.00925ZM6.50033 14.7424C5.17969 14.7424 3.23046 13.622 3.23046 12.913C3.23046 12.204 4.14629 10.6793 6.50033 10.6793C8.85437 10.6793 9.77021 12.204 9.77021 12.913C9.77021 13.622 7.82097 14.7424 6.50033 14.7424Z" fill="#FF9052"/>
</svg>
